<?xml version="1.0" encoding="utf-8"?>
<!-- Generator: Adobe Illustrator 15.0.0, SVG Export Plug-In . SVG Version: 6.00 Build 0)  -->
<!DOCTYPE svg PUBLIC "-//W3C//DTD SVG 1.1//EN" "http://www.w3.org/Graphics/SVG/1.1/DTD/svg11.dtd">
<svg version="1.1" xmlns="http://www.w3.org/2000/svg" xmlns:xlink="http://www.w3.org/1999/xlink" x="0px" y="0px"
	 width="283.46px" height="283.46px" viewBox="0 0 283.46 283.46" enable-background="new 0 0 283.46 283.46" xml:space="preserve">
<g id="Calque_1">
</g>
<g id="M">
</g>
<g id="R">
</g>
<g id="E">
</g>
<g id="H">
</g>
<g id="C">
	<g>
		<path fill="none" d="M17.508,185.236c-0.12-0.003-0.138,0.14-0.153,0.283c-2.87,16.28-5.739,32.56-8.612,48.84
			c2.729,0.696,5.893,1.091,8.809,1.655c2.894-16.413,5.789-32.826,8.683-49.24C23.325,186.262,20.417,185.749,17.508,185.236z"/>
		<path fill="none" d="M8.56,235.981c-0.629,2.198-0.899,4.907-1.389,7.303c2.94,0.519,5.881,1.039,8.823,1.557
			c0.43-2.441,0.86-4.881,1.292-7.32C14.377,237.007,11.469,236.493,8.56,235.981z"/>
		<path fill="none" d="M15.903,184.954c-1.839-0.324-3.677-0.649-5.516-0.973c-0.12-0.005-0.137,0.138-0.154,0.282
			c-2.869,16.279-5.739,32.561-8.611,48.841c1.655,0.511,3.754,0.711,5.6,1.09C10.115,217.781,13.01,201.366,15.903,184.954z"/>
		<path fill="none" d="M39.608,241.456c-0.629,2.198-0.9,4.907-1.391,7.303c2.907,0.514,5.815,1.025,8.724,1.539
			c0.429-2.441,0.862-4.881,1.292-7.321C45.357,242.47,42.482,241.964,39.608,241.456z"/>
		<path fill="none" d="M17.46,176.128c-1.874-0.33-3.743-0.66-5.616-0.99c-0.43,2.439-0.862,4.881-1.29,7.322
			c1.87,0.329,3.743,0.658,5.613,0.989C16.6,181.009,17.029,178.569,17.46,176.128z"/>
		<path fill="none" d="M55.353,244.233c-1.837-0.326-3.677-0.648-5.516-0.973c-0.431,2.439-0.859,4.879-1.29,7.319
			c1.838,0.326,3.677,0.649,5.516,0.974C54.492,249.112,54.925,246.673,55.353,244.233z"/>
		<path fill="none" d="M48.556,190.712c-0.119-0.005-0.138,0.139-0.152,0.281c-2.877,16.314-5.754,32.627-8.63,48.94
			c2.907,0.513,5.816,1.026,8.725,1.539c2.894-16.414,5.788-32.827,8.684-49.241C54.306,191.725,51.431,191.218,48.556,190.712z"/>
		<path fill="none" d="M34.802,207.726c-0.118-0.004-0.138,0.139-0.152,0.283c-2.288,12.971-4.574,25.941-6.863,38.911
			c2.942,0.519,5.885,1.038,8.827,1.556c2.303-13.07,4.609-26.141,6.914-39.211C40.618,208.751,37.711,208.239,34.802,207.726z"/>
		<path fill="none" d="M33.2,207.443c-2.896-0.51-5.791-1.021-8.688-1.532c-2.304,13.07-4.609,26.143-6.915,39.212
			c2.896,0.51,5.79,1.021,8.687,1.531C28.604,233.605,30.903,220.527,33.2,207.443z"/>
		<path fill="none" d="M47.116,188.905c2.305-13.069,4.61-26.141,6.915-39.211c-2.909-0.514-5.817-1.025-8.726-1.539
			c-0.119-0.004-0.136,0.141-0.153,0.283c-2.287,12.97-4.574,25.941-6.861,38.91C41.232,187.868,44.175,188.388,47.116,188.905z"/>
		<path fill="none" d="M48.722,189.188c2.907,0.514,5.816,1.025,8.724,1.539c0.431-2.441,0.861-4.881,1.292-7.321
			c-2.874-0.507-5.75-1.013-8.625-1.521C49.483,184.085,49.213,186.793,48.722,189.188z"/>
		<path fill="none" d="M44.411,204.25c0.813-4.613,1.627-9.227,2.438-13.841c-2.906-0.512-5.815-1.023-8.725-1.538
			c-1.011,4.372-1.665,9.255-2.539,13.822C38.527,203.214,41.47,203.731,44.411,204.25z"/>
		<path fill="none" d="M27.788,177.95c-2.907-0.512-5.816-1.027-8.724-1.539c-0.63,2.198-0.899,4.908-1.391,7.304
			c2.941,0.519,5.883,1.036,8.825,1.556C26.93,182.83,27.359,180.39,27.788,177.95z"/>
		<path fill="none" d="M34.079,202.429c0.811-4.614,1.619-9.229,2.43-13.843c-2.891-0.508-5.78-1.018-8.672-1.528
			c-0.813,4.613-1.627,9.227-2.439,13.839C28.29,201.408,31.187,201.918,34.079,202.429z"/>
		<path fill="none" d="M43.737,147.879h-0.002c-2.907-0.513-5.812-1.025-8.719-1.536c-2.304,13.068-4.609,26.141-6.913,39.209
			c2.843,0.57,5.983,0.932,8.655,1.624C39.065,174.05,41.392,160.951,43.737,147.879z"/>
		<path fill="none" d="M55.827,88.484c-0.119-0.004-0.138,0.14-0.153,0.283c-2.286,12.971-4.574,25.942-6.861,38.911
			c2.941,0.518,5.884,1.037,8.825,1.557c2.305-13.07,4.609-26.142,6.916-39.212C61.644,89.511,58.735,88.998,55.827,88.484z"/>
		<path fill="none" d="M69.429,71.753c-2.875,16.314-5.753,32.627-8.63,48.939c2.907,0.514,5.817,1.026,8.725,1.539
			c2.894-16.413,5.789-32.827,8.684-49.24c-2.877-0.508-5.753-1.015-8.627-1.521C69.461,71.467,69.444,71.609,69.429,71.753z"/>
		<path fill="none" d="M60.468,245.134c-0.431,2.44-0.86,4.881-1.289,7.32c1.516,0.269,4.762,0.924,6.758,1.299l1.294-7.321
			C65.235,246.057,61.985,245.401,60.468,245.134z"/>
		<path fill="none" d="M59.242,129.519c2.907,0.512,5.816,1.024,8.726,1.538c0.429-2.44,0.86-4.882,1.291-7.321
			c-2.874-0.507-5.75-1.014-8.626-1.52C60.005,124.414,59.733,127.124,59.242,129.519z"/>
		<path fill="none" d="M54.226,88.203c-2.896-0.512-5.791-1.022-8.688-1.532c-2.305,13.069-4.608,26.143-6.914,39.211
			c2.895,0.511,5.791,1.021,8.686,1.532C49.631,114.365,51.93,101.287,54.226,88.203z"/>
		<path fill="none" d="M80.077,71.771c1.838,0.324,3.676,0.648,5.515,0.973c0.429-2.44,0.861-4.883,1.291-7.324
			c-1.839-0.323-3.679-0.647-5.517-0.971C80.937,66.889,80.505,69.329,80.077,71.771z"/>
		<path fill="none" d="M91.997,66.322c-0.431,2.441-0.861,4.882-1.291,7.321c1.443,0.255,4.732,0.883,6.841,1.271l1.294-7.32
			C96.732,67.206,93.44,66.576,91.997,66.322z"/>
		<path fill="none" d="M69.746,69.948c2.907,0.512,5.817,1.025,8.726,1.537c0.43-2.439,0.86-4.88,1.291-7.32
			c-2.875-0.506-5.75-1.014-8.625-1.521C70.508,64.843,70.237,67.554,69.746,69.948z"/>
		<path fill="none" d="M55.104,83.187c0.811-4.614,1.62-9.229,2.43-13.841c-2.89-0.508-5.78-1.019-8.672-1.528
			c-0.813,4.613-1.626,9.227-2.439,13.84C49.317,82.166,52.214,82.676,55.104,83.187z"/>
		<path fill="none" d="M65.436,85.009c0.814-4.613,1.628-9.227,2.441-13.839c-2.908-0.513-5.815-1.026-8.725-1.54
			c-1.012,4.371-1.667,9.254-2.54,13.824C59.554,83.972,62.494,84.489,65.436,85.009z"/>
		<path fill="none" d="M38.534,65.995c-0.121-0.004-0.138,0.14-0.154,0.282c-2.87,16.28-5.742,32.56-8.611,48.841
			c2.728,0.697,5.892,1.09,8.808,1.656c2.896-16.413,5.789-32.826,8.683-49.24C44.35,67.021,41.441,66.509,38.534,65.995z"/>
		<path fill="none" d="M28.194,124.044c2.943,0.518,5.884,1.037,8.825,1.555c0.431-2.439,0.861-4.879,1.291-7.32
			c-2.909-0.512-5.816-1.025-8.725-1.537C28.957,118.938,28.687,121.648,28.194,124.044z"/>
		<path fill="none" d="M21.073,122.788c1.873,0.33,3.744,0.66,5.617,0.99c0.43-2.44,0.86-4.882,1.292-7.32
			c-1.874-0.33-3.746-0.66-5.617-0.99C21.936,117.908,21.503,120.348,21.073,122.788z"/>
		<path d="M81.897,206.815l-0.001-0.004c-2.395,1.291-5.08,2.033-8.058,2.232l-6.342,35.878c-2.027-0.377-5.405-0.975-6.747-1.393
			c2.082-11.802,4.163-23.602,6.243-35.401c-1.86-0.78-3.396-2.039-4.605-3.775c-2.258,12.792-4.513,25.583-6.77,38.375
			c-1.838-0.324-3.677-0.648-5.515-0.973c2.877-16.312,5.754-32.625,8.628-48.939c0.019-0.144,0.034-0.287,0.153-0.283
			c0.226,0.04,0.452,0.08,0.679,0.12c0.043-0.498,0.109-1.007,0.185-1.519c-0.232-0.041-0.464-0.082-0.696-0.123
			c0.429-2.44,0.86-4.881,1.288-7.322c0.239,0.042,0.478,0.084,0.716,0.126c0.092-0.509,0.181-0.998,0.272-1.503
			c-0.241-0.042-0.48-0.085-0.721-0.127c2.894-16.411,5.787-32.827,8.681-49.24c-0.533-0.095-1.068-0.188-1.604-0.283
			c-2.895,16.413-5.788,32.827-8.682,49.241c-2.908-0.514-5.818-1.026-8.725-1.538c2.893-16.413,5.788-32.829,8.683-49.241
			c-0.536-0.093-1.071-0.188-1.608-0.282c-0.812,4.613-1.625,9.227-2.438,13.838c-2.939-0.517-5.883-1.037-8.827-1.555
			c0.814-4.613,1.63-9.227,2.443-13.841c-0.468-0.082-0.937-0.165-1.403-0.247c-0.839,4.598-1.659,9.221-2.489,13.831
			c-2.912-0.514-5.824-1.027-8.736-1.54c0.813-4.613,1.627-9.227,2.44-13.84c-0.535-0.094-1.071-0.188-1.605-0.283
			c-2.893,16.414-5.787,32.828-8.683,49.24c-2.916-0.564-6.078-0.957-8.807-1.655c2.888-16.38,5.776-32.761,8.666-49.14
			c-0.503-0.09-1.004-0.178-1.507-0.266c-2.894,16.412-5.788,32.828-8.681,49.24c-1.847-0.379-3.944-0.58-5.6-1.09
			c2.888-16.381,5.777-32.762,8.665-49.141c-1.671-0.295-3.341-0.59-5.013-0.885l-0.004,0.016
			c-2.894,16.405-5.787,32.816-8.681,49.225l-0.167-0.029c-0.08,0.504-0.16,1.011-0.238,1.509l0.141,0.024
			c-0.396,2.254-0.795,4.508-1.191,6.761c-3.739,24.451-5.61,40.545-5.61,48.267c0,2.635,0.308,5.222,0.901,7.763
			c0.137-0.778,0.273-1.557,0.412-2.335c1.87,0.33,3.741,0.66,5.615,0.991c-0.431,2.438-0.861,4.88-1.291,7.32
			c-0.992-0.174-1.982-0.35-2.975-0.524c0.249,0.601,0.516,1.199,0.801,1.795c4.467,0.788,8.934,1.575,13.4,2.363
			c-0.393-0.069-0.787-0.138-1.181-0.207c-0.68,3.854-1.358,7.71-2.038,11.565c0.467,0.445,0.938,0.887,1.422,1.314
			c0.74-4.199,1.48-8.398,2.221-12.598c2.941,0.518,5.883,1.037,8.825,1.556v-0.001c7.228,1.275,14.455,2.549,21.683,3.824
			c-0.389-0.068-0.775-0.137-1.164-0.205c-1.207,6.847-2.414,13.693-3.622,20.541c0.528,0.105,1.065,0.202,1.603,0.299
			c1.209-6.853,2.416-13.705,3.625-20.558c1.838,0.324,3.678,0.648,5.516,0.973c-1.199,6.802-2.398,13.603-3.598,20.404
			c1.691,0.196,3.424,0.347,5.192,0.46c1.171-6.646,2.344-13.291,3.515-19.936c2.294,0.434,4.844,0.924,6.764,1.273l-3.345,18.921
			c0.193,0.001,0.381,0.01,0.576,0.01c21.603,0,39.326-6.623,53.182-19.844c15.255-14.646,25.968-37.486,31.794-68.232
			c1.289-6.986,2.068-12.03,2.327-15.133c-27.935,1.553-45.917,2.59-53.933,3.103C94.919,191.323,89.958,202.294,81.897,206.815z
			 M58.737,183.406c-0.431,2.44-0.861,4.88-1.292,7.321c-2.907-0.514-5.816-1.025-8.724-1.539c0.491-2.396,0.762-5.104,1.391-7.303
			C52.987,182.394,55.863,182.899,58.737,183.406z M45.306,148.155c2.908,0.514,5.816,1.025,8.726,1.539
			c-2.305,13.07-4.61,26.142-6.915,39.211c-2.941-0.518-5.884-1.037-8.825-1.557c2.287-12.969,4.574-25.94,6.861-38.91
			C45.17,148.296,45.187,148.151,45.306,148.155z M38.125,188.871c2.909,0.515,5.818,1.026,8.725,1.538
			c-0.812,4.614-1.625,9.228-2.438,13.841c-2.941-0.519-5.884-1.036-8.825-1.557C36.46,198.126,37.114,193.243,38.125,188.871z
			 M35.017,146.343c2.906,0.511,5.812,1.023,8.719,1.536h0.002c-2.346,13.072-4.672,26.171-6.979,39.297
			c-2.672-0.692-5.812-1.054-8.655-1.624C30.407,172.483,32.713,159.411,35.017,146.343z M36.509,188.586
			c-0.811,4.613-1.619,9.229-2.43,13.843c-2.893-0.511-5.789-1.021-8.682-1.532c0.812-4.612,1.626-9.226,2.439-13.839
			C30.729,187.568,33.618,188.078,36.509,188.586z M19.064,176.411c2.907,0.512,5.816,1.027,8.724,1.539
			c-0.429,2.439-0.858,4.88-1.289,7.32c-2.942-0.52-5.884-1.037-8.825-1.556C18.165,181.319,18.435,178.609,19.064,176.411z
			 M11.844,175.138c1.873,0.33,3.742,0.66,5.616,0.99c-0.431,2.441-0.86,4.881-1.293,7.321c-1.87-0.331-3.743-0.66-5.613-0.989
			C10.981,180.019,11.414,177.577,11.844,175.138z M1.622,233.104c2.872-16.28,5.742-32.562,8.611-48.841
			c0.018-0.145,0.034-0.287,0.154-0.282c1.839,0.323,3.677,0.648,5.516,0.973c-2.894,16.412-5.788,32.827-8.682,49.24
			C5.376,233.815,3.277,233.615,1.622,233.104z M15.994,244.841c-2.942-0.518-5.883-1.038-8.823-1.557
			c0.489-2.396,0.76-5.104,1.389-7.303c2.909,0.512,5.817,1.025,8.727,1.539C16.854,239.96,16.424,242.399,15.994,244.841z
			 M8.742,234.359c2.873-16.28,5.742-32.56,8.612-48.84c0.016-0.144,0.033-0.286,0.153-0.283c2.909,0.513,5.817,1.025,8.726,1.538
			c-2.894,16.414-5.789,32.827-8.683,49.24C14.635,235.45,11.472,235.056,8.742,234.359z M17.598,245.123
			c2.306-13.069,4.611-26.142,6.915-39.212c2.896,0.512,5.791,1.022,8.688,1.532c-2.297,13.084-4.596,26.162-6.916,39.211
			C23.388,246.145,20.493,245.633,17.598,245.123z M27.786,246.92c2.289-12.97,4.575-25.94,6.863-38.911
			c0.015-0.145,0.034-0.287,0.152-0.283c2.909,0.514,5.816,1.025,8.726,1.539c-2.305,13.07-4.611,26.141-6.914,39.211
			C33.671,247.958,30.729,247.438,27.786,246.92z M46.941,250.298c-2.908-0.514-5.816-1.025-8.724-1.539
			c0.49-2.396,0.762-5.104,1.391-7.303c2.874,0.508,5.749,1.014,8.625,1.521C47.804,245.417,47.37,247.856,46.941,250.298z
			 M39.773,239.934c2.876-16.313,5.753-32.626,8.63-48.94c0.015-0.143,0.033-0.286,0.152-0.281c2.875,0.506,5.75,1.013,8.626,1.52
			c-2.896,16.414-5.79,32.827-8.684,49.241C45.59,240.96,42.681,240.446,39.773,239.934z M48.547,250.58
			c0.431-2.44,0.859-4.88,1.29-7.319c1.839,0.324,3.679,0.646,5.516,0.973c-0.428,2.439-0.86,4.879-1.29,7.32
			C52.224,251.229,50.385,250.906,48.547,250.58z M59.179,252.454c0.429-2.439,0.858-4.88,1.289-7.32
			c1.518,0.268,4.768,0.923,6.763,1.298l-1.294,7.321C63.94,253.378,60.694,252.723,59.179,252.454z"/>
		<path d="M135.83,38.384c-7.241-3.62-15.909-5.82-25.997-6.596c-1.568,0-3.129,0.05-4.685,0.124l-6.041,34.174
			c-2.146-0.387-5.549-0.971-6.828-1.368c1.894-10.733,3.786-21.469,5.679-32.203c-1.815,0.224-3.621,0.501-5.42,0.827
			c-1.796,10.192-3.592,20.385-5.39,30.575c-1.838-0.324-3.677-0.648-5.517-0.973c1.665-9.443,3.33-18.888,4.995-28.332
			c-0.579,0.144-1.155,0.298-1.733,0.453c-1.623,9.198-3.244,18.396-4.867,27.596c-2.908-0.514-5.814-1.025-8.723-1.539
			c1.35-7.655,2.699-15.312,4.049-22.969c-0.594,0.226-1.187,0.454-1.777,0.692c-1.811,10.273-3.623,20.547-5.435,30.819
			c-2.94-0.52-5.883-1.037-8.824-1.557c1.449-8.218,2.897-16.436,4.347-24.653c-0.574,0.303-1.147,0.611-1.72,0.926
			c-1.392,7.845-2.778,15.695-4.159,23.555c-2.669-0.692-5.811-1.055-8.656-1.623c0.921-5.225,1.844-10.449,2.765-15.674
			c-0.644,0.458-1.276,0.922-1.899,1.391c-0.304,1.726-0.607,3.45-0.912,5.175c-1.451-0.28-2.961-0.519-4.449-0.773
			c-0.479,0.429-0.965,0.853-1.428,1.289c1.871,0.329,3.74,0.659,5.61,0.988c-0.43,2.441-0.861,4.882-1.291,7.321
			c-2.941-0.519-5.883-1.038-8.824-1.556c0.173-0.841,0.317-1.721,0.46-2.603c-0.67,0.743-1.32,1.499-1.952,2.264l-0.013,0.073
			L37.151,64.2c-0.37,0.45-0.736,0.901-1.093,1.358c0.29,0.051,0.581,0.102,0.871,0.153c-2.894,16.414-5.789,32.827-8.684,49.242
			c-1.845-0.38-3.942-0.58-5.598-1.092c2.214-12.554,4.427-25.108,6.64-37.662c-1.327,2.626-2.488,5.343-3.458,8.161
			c-3.241,9.423-6.593,22.477-10.052,39.146c10.416,1.836,20.832,3.673,31.248,5.51c7.775,1.371,15.55,2.742,23.324,4.112
			c0.1-0.533,0.201-1.074,0.299-1.601c-0.359-0.062-0.719-0.126-1.078-0.189c0.432-2.44,0.861-4.882,1.292-7.321
			c0.386,0.067,0.772,0.136,1.159,0.204c0.094-0.497,0.19-1.013,0.283-1.501c-0.393-0.069-0.785-0.139-1.177-0.208
			c2.876-16.313,5.752-32.626,8.628-48.938c0.016-0.145,0.034-0.288,0.155-0.283c1.805,0.318,3.608,0.637,5.415,0.954
			c-1.486,8.424-2.973,16.85-4.457,25.274c1.84-1.771,3.832-3.085,5.973-3.96c1.182-6.704,2.363-13.409,3.545-20.112
			c0.018-0.145,0.033-0.287,0.153-0.282c1.412,0.248,4.658,0.868,6.74,1.253l-3.158,17.865c7.877,0.313,11.831,6.888,11.831,19.762
			c0,2.325-0.133,4.788-0.39,7.369l52.385-1.55l5.819-38.414C162.469,60.761,153.16,46.404,135.83,38.384z M67.877,71.17
			c-0.813,4.612-1.627,9.226-2.441,13.839c-2.941-0.52-5.882-1.037-8.823-1.555c0.873-4.57,1.528-9.453,2.54-13.824
			C62.062,70.144,64.969,70.657,67.877,71.17z M48.862,67.817c2.892,0.51,5.782,1.021,8.672,1.528
			c-0.81,4.612-1.619,9.227-2.43,13.841c-2.891-0.511-5.787-1.021-8.682-1.529C47.236,77.044,48.049,72.431,48.862,67.817z
			 M26.69,123.778c-1.873-0.33-3.744-0.66-5.617-0.99c0.43-2.44,0.862-4.88,1.292-7.32c1.871,0.33,3.743,0.66,5.617,0.99
			C27.551,118.896,27.12,121.338,26.69,123.778z M37.02,125.599c-2.941-0.518-5.882-1.037-8.825-1.555
			c0.492-2.396,0.763-5.105,1.392-7.303c2.908,0.512,5.815,1.025,8.725,1.537C37.881,120.72,37.45,123.159,37.02,125.599z
			 M29.769,115.118c2.869-16.281,5.741-32.561,8.611-48.841c0.017-0.143,0.033-0.286,0.154-0.282
			c2.907,0.514,5.815,1.025,8.725,1.539c-2.894,16.414-5.787,32.827-8.683,49.24C35.66,116.208,32.496,115.815,29.769,115.118z
			 M38.624,125.882c2.306-13.068,4.609-26.142,6.914-39.211c2.896,0.51,5.791,1.021,8.688,1.532
			c-2.296,13.084-4.595,26.162-6.916,39.211C44.415,126.902,41.519,126.393,38.624,125.882z M48.812,127.679
			c2.287-12.969,4.575-25.94,6.861-38.911c0.016-0.144,0.034-0.287,0.153-0.283c2.908,0.514,5.816,1.026,8.727,1.539
			c-2.307,13.07-4.611,26.142-6.916,39.212C54.696,128.716,51.754,128.196,48.812,127.679z M67.968,131.057
			c-2.909-0.514-5.818-1.026-8.726-1.538c0.491-2.395,0.763-5.104,1.391-7.303c2.876,0.506,5.752,1.013,8.626,1.52
			C68.828,126.175,68.396,128.616,67.968,131.057z M69.523,122.231c-2.907-0.513-5.817-1.025-8.725-1.539
			c2.877-16.312,5.755-32.625,8.63-48.939c0.016-0.144,0.032-0.286,0.151-0.283c2.874,0.507,5.75,1.014,8.627,1.521
			C75.312,89.404,72.417,105.818,69.523,122.231z M78.472,71.485c-2.908-0.512-5.818-1.025-8.726-1.537
			c0.491-2.395,0.762-5.105,1.392-7.305c2.875,0.508,5.75,1.016,8.625,1.521C79.332,66.605,78.901,69.046,78.472,71.485z
			 M85.592,72.743c-1.839-0.324-3.677-0.648-5.515-0.973c0.428-2.441,0.859-4.882,1.289-7.322c1.838,0.323,3.678,0.647,5.517,0.971
			C86.453,67.86,86.021,70.303,85.592,72.743z M90.706,73.644c0.43-2.439,0.86-4.88,1.291-7.321
			c1.443,0.254,4.735,0.884,6.844,1.272l-1.294,7.32C95.438,74.526,92.149,73.898,90.706,73.644z"/>
		<path d="M33.888,263.92c-2.939-0.519-5.883-1.036-8.824-1.555c0.814-4.614,1.627-9.227,2.439-13.841
			c-0.466-0.082-0.935-0.164-1.402-0.246c-0.838,4.598-1.659,9.22-2.489,13.83c-2.201-0.388-4.403-0.776-6.604-1.165
			c1.929,1.539,3.992,2.934,6.17,4.205c1.99,1.162,4.076,2.221,6.273,3.16c1.186,0.209,2.369,0.418,3.555,0.626
			c-0.043,0.242-0.086,0.483-0.128,0.726c0.511,0.184,1.041,0.348,1.563,0.52c1.164-6.605,2.328-13.211,3.493-19.815
			c-0.533-0.096-1.069-0.188-1.604-0.283C35.517,254.694,34.702,259.307,33.888,263.92z"/>
		<path d="M4.95,247.076c0.379,0.654,0.785,1.305,1.207,1.953c0.243-1.38,0.486-2.76,0.73-4.14
			c-0.503-0.089-1.004-0.177-1.505-0.266C5.239,245.441,5.095,246.259,4.95,247.076z"/>
	</g>
</g>
</svg>
