<?xml version="1.0" encoding="utf-8"?>
<!-- Generator: Adobe Illustrator 15.0.0, SVG Export Plug-In . SVG Version: 6.00 Build 0)  -->
<!DOCTYPE svg PUBLIC "-//W3C//DTD SVG 1.1//EN" "http://www.w3.org/Graphics/SVG/1.1/DTD/svg11.dtd">
<svg version="1.1" xmlns="http://www.w3.org/2000/svg" xmlns:xlink="http://www.w3.org/1999/xlink" x="0px" y="0px"
	 width="283.46px" height="283.46px" viewBox="0 0 283.46 283.46" enable-background="new 0 0 283.46 283.46" xml:space="preserve">
<g id="Calque_1">
</g>
<g id="M">
</g>
<g id="R">
</g>
<g id="E">
</g>
<g id="H">
</g>
<g id="C">
</g>
<g id="T">
</g>
<g id="I">
</g>
<g id="U">
</g>
<g id="G">
	<path d="M135.945,86.512c0.186-0.616,0.373-1.26,0.522-2.043l18.601,3.279c0.072-0.996,0.133-1.913,0.18-2.747
		c-5.955-1.061-12.191-2.167-18.621-3.306l0.099-0.499c0.136-0.688,0.304-1.248,0.482-1.841c0.186-0.616,0.374-1.259,0.524-2.041
		l17.479,3.082c-0.215-0.982-0.441-1.949-0.68-2.901c-5.357-0.953-10.927-1.941-16.65-2.954l0.107-0.507
		c0.144-0.679,0.309-1.26,0.485-1.875c0.177-0.616,0.354-1.256,0.509-1.987c4.857,0.853,9.602,1.685,14.199,2.488
		c-0.312-1.005-0.639-1.991-0.982-2.959L139.148,67.4l0.102-0.511c0.135-0.688,0.303-1.248,0.48-1.841
		c0.186-0.616,0.373-1.26,0.523-2.042l10,1.763c-0.457-1.042-0.939-2.054-1.436-3.045c-2.761-0.49-5.564-0.987-8.406-1.49
		l0.098-0.497c0.136-0.688,0.304-1.246,0.481-1.838c0.186-0.617,0.374-1.262,0.524-2.045l4.438,0.782
		c-0.688-1.094-1.398-2.16-2.146-3.179c-0.709-0.126-1.42-0.251-2.135-0.378l0.099-0.497c0.095-0.483,0.21-0.902,0.329-1.315
		c-0.469-0.57-0.945-1.132-1.434-1.677c-0.125,1.135-0.232,2.202-0.072,2.994l0.064,0.315c-14.225-2.517-29.348-5.18-44.372-7.819
		l0.128-0.441c0.371-1.282,0.736-2.585,1.092-3.921l26.751,4.717l14.995,2.645c-1.204-1.232-2.469-2.389-3.789-3.474
		c-12.303-2.174-25.143-4.434-37.918-6.68l0.129-0.441c0.373-1.281,0.738-2.584,1.095-3.922l26.575,4.687
		c-7.984-3.734-17.424-5.606-28.326-5.606c-1.026,0-2.051,0.025-3.072,0.069l2.773,0.489c-0.021,0.469-0.064,0.978-0.114,1.483
		c-0.095,0.952-0.188,1.936-0.103,2.699l0.041,0.366c-5.639-0.991-11.256-1.978-16.809-2.952c-1.971,0.498-3.934,1.079-5.887,1.748
		l21.609,3.811c-0.021,0.466-0.064,0.973-0.115,1.477c-0.092,0.955-0.188,1.941-0.1,2.707l0.041,0.363
		c-9.938-1.746-19.803-3.478-29.342-5.15c-1.37,0.64-2.734,1.326-4.097,2.053l32.351,5.704c-0.021,0.47-0.064,0.979-0.113,1.486
		c-0.094,0.951-0.189,1.934-0.102,2.696l0.042,0.365c-11.952-2.1-23.827-4.184-35.118-6.164c-1.047-0.184-2.082-0.365-3.119-0.547
		c-1.102,0.699-2.201,1.427-3.299,2.184l40.447,7.132c-0.02,0.471-0.064,0.982-0.115,1.491c-0.092,0.949-0.187,1.931-0.1,2.692
		l0.043,0.375l-35.103-6.189l-9.087-1.603l0.092-0.524c0.047-0.27,0.102-0.515,0.158-0.752c-0.43,0.322-0.854,0.65-1.275,0.979
		l0.037,0.124l-0.158-0.028c-0.951,0.74-1.887,1.494-2.801,2.265c0.595,0.105,1.189,0.211,1.789,0.317
		c-0.189,1.516-0.293,2.898-0.303,4.104l-0.004,0.485c-1.957-0.344-3.891-0.683-5.805-1.019c-0.799,0.766-1.58,1.548-2.348,2.34
		l7.191,1.269c-0.027,0.221-0.053,0.439-0.082,0.662c-0.184,1.414-0.355,2.749-0.088,3.632l0.094,0.309
		c-3.668-0.644-7.26-1.273-10.768-1.89c-0.674,0.787-1.326,1.594-1.973,2.405l11.555,2.037c-0.027,0.218-0.053,0.436-0.082,0.656
		c-0.182,1.415-0.355,2.751-0.088,3.635l0.094,0.31c-5-0.878-9.863-1.731-14.557-2.556c-0.572,0.807-1.129,1.626-1.676,2.454
		l15.047,2.653c-0.027,0.226-0.054,0.451-0.082,0.679c-0.183,1.406-0.354,2.735-0.088,3.614l0.094,0.309
		c-6.076-1.066-11.951-2.098-17.564-3.083c-0.482,0.822-0.951,1.655-1.408,2.497l17.787,3.137c-0.026,0.22-0.053,0.438-0.082,0.661
		c-0.182,1.414-0.354,2.749-0.088,3.632l0.094,0.311c-6.924-1.215-13.587-2.385-19.898-3.493c-0.402,0.835-0.787,1.687-1.17,2.54
		l19.885,3.506c-0.027,0.221-0.053,0.441-0.082,0.665c-0.184,1.411-0.355,2.744-0.09,3.627l0.094,0.309
		c-7.562-1.327-14.809-2.599-21.629-3.797c-0.334,0.847-0.646,1.711-0.963,2.574l21.408,3.774c-0.027,0.221-0.053,0.44-0.082,0.664
		c-0.184,1.413-0.356,2.747-0.088,3.63l0.094,0.308c-8.006-1.404-15.66-2.748-22.826-4.007c-0.131,0.414-0.273,0.817-0.402,1.235
		c-0.035,0.104-0.127,0.575-0.27,1.391l22.312,3.934c-0.027,0.221-0.053,0.439-0.082,0.663c-0.184,1.412-0.357,2.747-0.088,3.63
		l0.094,0.309c-8.068-1.416-15.777-2.769-22.99-4.037c-0.133,0.808-0.277,1.695-0.434,2.667l22.239,3.922
		c-0.026,0.217-0.052,0.433-0.081,0.653c-0.185,1.417-0.359,2.755-0.09,3.64l0.086,0.279l-22.871-4.033
		c-0.137,0.851-0.277,1.735-0.426,2.669c6.957,1.23,14.375,2.545,22.126,3.918c-0.188,1.512-0.294,2.895-0.304,4.104l-0.004,0.484
		c-7.902-1.387-15.459-2.713-22.541-3.958c-0.137,0.862-0.276,1.752-0.422,2.669l22.004,3.88c-0.026,0.215-0.052,0.429-0.08,0.646
		c-0.185,1.421-0.359,2.762-0.091,3.649l0.093,0.309c-7.936-1.393-15.525-2.725-22.637-3.975c-0.137,0.869-0.277,1.759-0.42,2.669
		l21.873,3.856c-0.027,0.222-0.053,0.442-0.082,0.666c-0.184,1.412-0.357,2.745-0.088,3.628l0.094,0.309
		c-7.886-1.384-15.432-2.708-22.504-3.951c-0.137,0.874-0.277,1.763-0.419,2.67l21.737,3.833c-0.027,0.221-0.053,0.44-0.082,0.664
		c-0.184,1.413-0.357,2.747-0.088,3.63l0.094,0.308c-7.834-1.375-15.334-2.69-22.367-3.927c-0.137,0.875-0.275,1.767-0.417,2.669
		l21.599,3.809c-0.027,0.221-0.053,0.44-0.082,0.664c-0.184,1.413-0.355,2.747-0.088,3.63l0.094,0.309
		c-7.783-1.365-15.234-2.673-22.227-3.902c-0.137,0.876-0.277,1.771-0.416,2.671l21.457,3.783c-0.026,0.22-0.053,0.438-0.081,0.66
		c-0.185,1.414-0.356,2.75-0.087,3.634l0.093,0.309c-7.73-1.356-15.134-2.655-22.086-3.878c-0.137,0.878-0.276,1.771-0.416,2.67
		l21.315,3.759c-0.027,0.223-0.053,0.444-0.082,0.669c-0.183,1.41-0.355,2.742-0.088,3.624l0.094,0.31
		c-7.688-1.349-15.051-2.642-21.971-3.857c-0.145,0.898-0.283,1.784-0.422,2.67l21.209,3.739c-0.027,0.221-0.053,0.44-0.082,0.664
		c-0.184,1.412-0.355,2.746-0.088,3.629l0.085,0.279l-21.808-3.846c-0.135,0.896-0.268,1.793-0.396,2.675
		c6.64,1.175,13.685,2.423,21.032,3.725c-0.189,1.5-0.293,2.884-0.303,4.104l-0.004,0.485c-7.467-1.311-14.623-2.566-21.365-3.751
		c-0.122,0.9-0.242,1.796-0.357,2.681l20.762,3.661c-0.027,0.222-0.053,0.442-0.082,0.666c-0.184,1.411-0.356,2.744-0.088,3.628
		l0.094,0.309c-7.425-1.303-14.545-2.553-21.256-3.732c-0.11,0.908-0.211,1.798-0.312,2.689l20.384,3.595
		c-0.026,0.217-0.052,0.433-0.081,0.652c-0.185,1.417-0.358,2.756-0.09,3.642l0.094,0.308c-7.258-1.273-14.225-2.496-20.804-3.652
		c-0.094,0.911-0.181,1.806-0.266,2.698l19.886,3.506c-0.027,0.215-0.053,0.429-0.081,0.646c-0.185,1.42-0.358,2.76-0.091,3.646
		l0.094,0.31c-7.041-1.235-13.811-2.424-20.216-3.549c-0.075,0.915-0.144,1.813-0.208,2.708l19.24,3.393
		c-0.026,0.214-0.053,0.427-0.08,0.644c-0.185,1.421-0.359,2.764-0.09,3.649l0.094,0.31c-6.769-1.188-13.285-2.332-19.468-3.418
		c-0.053,0.921-0.097,1.824-0.14,2.722l18.422,3.248c-0.027,0.22-0.053,0.439-0.082,0.663c-0.184,1.413-0.356,2.747-0.088,3.63
		l0.094,0.309c-6.42-1.127-12.611-2.214-18.51-3.249c-0.024,0.925-0.043,1.838-0.055,2.735l17.379,3.064
		c-0.027,0.221-0.053,0.441-0.082,0.665c-0.184,1.412-0.357,2.746-0.088,3.63l0.094,0.308c-5.976-1.049-11.756-2.062-17.283-3.033
		c0.021,0.934,0.055,1.854,0.101,2.765l15.997,2.82c-0.027,0.222-0.053,0.442-0.082,0.666c-0.184,1.411-0.355,2.745-0.088,3.628
		l0.094,0.309c-5.365-0.941-10.572-1.855-15.582-2.734c0.098,0.951,0.211,1.885,0.338,2.808l14.059,2.479
		c-0.025,0.217-0.053,0.433-0.08,0.652c-0.184,1.417-0.357,2.756-0.089,3.641l0.085,0.279c-4.492-0.792-8.887-1.567-13.157-2.32
		c0.2,0.974,0.417,1.929,0.654,2.866c3.685,0.653,7.466,1.322,11.332,2.008c-0.188,1.509-0.292,2.891-0.302,4.104l-0.004,0.485
		c-3.248-0.57-6.436-1.129-9.557-1.678c0.35,1.008,0.725,1.991,1.125,2.95l7.471,1.317c-0.027,0.219-0.053,0.436-0.081,0.656
		c-0.185,1.416-0.356,2.753-0.09,3.638l0.093,0.309c-1.662-0.292-3.309-0.581-4.939-0.866c0.602,1.067,1.242,2.098,1.918,3.094
		l1.838,0.324c-0.027,0.221-0.053,0.44-0.082,0.664c-0.055,0.42-0.104,0.826-0.145,1.223c0.441,0.566,0.893,1.123,1.36,1.663
		c0.114-0.491,0.245-0.931,0.382-1.385c0.167-0.554,0.336-1.131,0.477-1.813l43.004,7.583c-0.275,1.563-0.539,3.051-0.787,4.441
		c-11.58-2.034-23.074-4.052-34.02-5.972c-2.6-0.456-5.161-0.905-7.699-1.352c1.159,1.212,2.395,2.349,3.701,3.415l37.532,6.618
		c-0.308,1.706-0.583,3.208-0.815,4.443l-25.865-4.561c7.199,3.089,15.775,4.837,25.737,5.234c2.376,0.305,5.255,0.018,5.245,0.097
		c6.084-0.035,11.834-0.516,17.27-1.41l0.013,0.002c0.062-0.01,0.12-0.023,0.183-0.034c1.076-0.18,2.141-0.377,3.192-0.59
		c0.183-0.037,0.365-0.072,0.546-0.11c1.006-0.211,1.998-0.439,2.98-0.681c0.141-0.035,0.289-0.062,0.43-0.099
		c-0.006-0.001-0.01-0.002-0.016-0.003c3.217-0.809,6.305-1.789,9.266-2.936l0.006,0.001c0.049-0.019,0.096-0.04,0.144-0.059
		c0.712-0.277,1.417-0.563,2.115-0.86c0.111-0.047,0.222-0.097,0.332-0.145c2.522-1.089,4.955-2.297,7.282-3.644
		c0,0,0,0.003,0,0.004c0.021-0.013,0.041-0.025,0.062-0.038c0.498-0.289,0.982-0.597,1.473-0.897
		c0.299-0.185,0.602-0.362,0.896-0.552c0.674-0.429,1.334-0.875,1.99-1.326c0.053-0.037,0.107-0.071,0.162-0.108
		c0,0-0.002-0.001-0.004-0.001c1.678-1.162,3.299-2.399,4.863-3.712l0,0c0.004-0.003,0.008-0.007,0.012-0.01
		c0.863-0.726,1.711-1.473,2.539-2.244c0.029-0.026,0.06-0.051,0.088-0.077h-0.003c3.31-3.089,6.349-6.537,9.104-10.359l0.004,0.001
		c0.018-0.024,0.033-0.05,0.051-0.074c0.504-0.7,0.992-1.419,1.477-2.144c0.06-0.089,0.122-0.174,0.182-0.264h-0.002
		c5.053-7.617,9.094-16.573,12.115-26.879c0.045-0.151,0.094-0.298,0.138-0.451l0,0c0.376-1.303,9.8-64.988,9.8-64.988
		l-61.303,0.756l-5.404,26.912l14.404,1.135c0.008,0.67-0.016,1.303-0.027,1.951l0,0c-0.025,1.573-0.094,3.1-0.235,4.547l0,0
		c-0.093,0.94-0.216,1.848-0.355,2.736c-0.245,1.556-0.567,3.025-0.962,4.418c-0.258,0.909-0.545,1.784-0.865,2.625l0,0
		c-0.576,1.512-1.242,2.925-2.023,4.213l0,0c0,0.001-0.002,0.001-0.002,0.001c-0.283,0.47-0.59,0.913-0.9,1.353
		c-0.281,0.39-0.572,0.771-0.873,1.14l0,0c-1.196,1.472-2.564,2.757-4.107,3.852c-0.561,0.399-1.148,0.771-1.756,1.12
		c-0.027,0.015-0.051,0.029-0.077,0.044c-0.614,0.349-1.251,0.674-1.91,0.973c-2.758,1.248-5.897,2.079-9.465,2.442
		c0,0-3.022-0.053-5.474-0.964c-0.019-0.007-0.037-0.013-0.055-0.021c-0.342-0.129-0.672-0.274-0.98-0.439
		c-0.027,0.1-0.078,0.35-0.15,0.721c-11.623-2.042-23.162-4.066-34.146-5.994c-3.062-0.537-6.084-1.067-9.059-1.589l0.096-0.55
		c0.141-0.791,0.326-1.406,0.521-2.057c0.168-0.554,0.338-1.131,0.479-1.814l36.918,6.51c-0.541-0.928-0.924-1.924-1.135-2.992
		c-8.979-1.576-17.84-3.131-26.369-4.627c-3.127-0.549-6.211-1.09-9.248-1.623l0.097-0.55c0.139-0.791,0.324-1.405,0.521-2.057
		c0.167-0.554,0.336-1.131,0.479-1.814l34.344,6.056c0.023-0.863,0.058-1.788,0.104-2.772c-8.516-1.495-16.92-2.97-25.02-4.391
		c-3.133-0.55-6.221-1.092-9.262-1.625l0.097-0.551c0.139-0.79,0.324-1.404,0.519-2.054c0.168-0.555,0.338-1.132,0.479-1.817
		l33.447,5.897c0.061-0.884,0.125-1.801,0.197-2.755c-8.291-1.456-16.477-2.892-24.369-4.276c-3.139-0.551-6.236-1.094-9.285-1.629
		l0.152-0.477c0.395-1.229,0.764-2.559,1.104-3.943c2.791,0.494,5.62,0.996,8.486,1.504c7.864,1.394,16.02,2.839,24.279,4.302
		c0.076-0.892,0.158-1.807,0.244-2.747l-32.822-5.788l0.093-0.524c0.138-0.79,0.323-1.404,0.519-2.055
		c0.168-0.555,0.338-1.132,0.479-1.816l32.162,5.672c0.088-0.895,0.18-1.808,0.275-2.741c-7.924-1.392-15.749-2.764-23.303-4.089
		c-3.031-0.531-6.023-1.057-8.969-1.573l0.097-0.549c0.14-0.791,0.324-1.404,0.521-2.054c0.166-0.556,0.338-1.134,0.479-1.819
		l31.648,5.58c0.096-0.896,0.194-1.808,0.297-2.735c-7.687-1.35-15.276-2.682-22.608-3.968c-3.101-0.544-6.159-1.08-9.171-1.608
		l0.098-0.551c0.139-0.79,0.324-1.403,0.52-2.054c0.166-0.555,0.337-1.133,0.479-1.817l31.186,5.499
		c0.102-0.896,0.205-1.81,0.312-2.733c-7.514-1.318-14.934-2.621-22.105-3.879c-3.121-0.547-6.197-1.087-9.227-1.619l0.097-0.549
		c0.14-0.791,0.325-1.404,0.521-2.054c0.166-0.556,0.336-1.134,0.477-1.819l30.766,5.425c0.106-0.899,0.215-1.807,0.326-2.729
		c-7.395-1.299-14.697-2.58-21.758-3.818c-3.1-0.544-6.156-1.08-9.166-1.607l0.096-0.551c0.139-0.792,0.324-1.406,0.521-2.058
		c0.166-0.554,0.336-1.13,0.477-1.813l30.376,5.355c0.11-0.899,0.222-1.808,0.337-2.728c-7.221-1.268-14.352-2.519-21.25-3.729
		c-3.144-0.552-6.244-1.096-9.295-1.631l0.096-0.551c0.14-0.79,0.325-1.404,0.521-2.055c0.167-0.555,0.337-1.132,0.478-1.816
		l30.014,5.292c0.111-0.9,0.227-1.808,0.344-2.727c-7.143-1.254-14.195-2.491-21.021-3.688c-3.1-0.544-6.158-1.08-9.17-1.608
		l0.098-0.55c0.14-0.792,0.324-1.407,0.521-2.058c0.167-0.555,0.337-1.132,0.478-1.815l29.672,5.231
		c0.115-0.901,0.232-1.807,0.352-2.725c-6.996-1.228-13.904-2.44-20.598-3.614c-3.191-0.561-6.339-1.112-9.438-1.656l0.153-0.475
		c0.394-1.22,0.762-2.551,1.104-3.943c2.75,0.486,5.539,0.98,8.363,1.481c6.82,1.209,13.867,2.457,21.002,3.722
		c0.119-0.904,0.237-1.806,0.359-2.725l-29.537-5.208l0.092-0.524c0.139-0.788,0.323-1.4,0.52-2.049
		c0.166-0.557,0.336-1.135,0.477-1.822l29.045,5.122c0.121-0.9,0.242-1.809,0.365-2.722c-6.699-1.177-13.314-2.337-19.728-3.462
		c-3.219-0.564-6.392-1.121-9.515-1.669l0.096-0.552c0.14-0.791,0.325-1.405,0.521-2.056c0.167-0.554,0.336-1.131,0.477-1.814
		l28.941,5.103c0.219-0.899,0.466-1.787,0.762-2.653c-6.992-1.228-13.896-2.439-20.586-3.612c-3.023-0.53-6.01-1.054-8.949-1.57
		l0.097-0.55c0.14-0.792,0.324-1.406,0.521-2.057c0.166-0.555,0.336-1.131,0.477-1.814l30.266,5.337
		c0.453-0.863,0.965-1.699,1.506-2.524c-7.598-1.333-15.098-2.649-22.347-3.921c-3.13-0.549-6.218-1.091-9.257-1.624l0.096-0.55
		c0.139-0.791,0.324-1.405,0.52-2.055c0.168-0.554,0.338-1.132,0.479-1.815l33.646,5.932c0.809-0.881,1.63-1.671,2.464-2.357
		c-9.152-1.607-18.193-3.193-26.885-4.719c-3.062-0.537-6.084-1.067-9.059-1.589l0.097-0.55c0.14-0.789,0.324-1.402,0.521-2.052
		c0.167-0.556,0.338-1.135,0.479-1.821l41.658,7.346c0.832-0.166,1.672-0.275,2.525-0.275c2.307,0,4.445,0.622,6.424,1.853
		l37.996,6.7c-0.031,0.354-0.064,0.711-0.105,1.078c-0.133,1.196-0.258,2.326-0.088,3.159l0.064,0.316
		c-10.449-1.85-21.387-3.778-32.414-5.718c0.77,1.066,1.398,2.113,1.906,3.141l29.375,5.179c-0.031,0.353-0.064,0.71-0.105,1.076
		c-0.132,1.197-0.257,2.327-0.088,3.159l0.064,0.315c-8.988-1.591-18.339-3.239-27.794-4.904c0.073,0.833,0.052,1.652-0.071,2.454
		c0,0.109-0.008,0.228-0.008,0.338l26.74,4.715c-0.031,0.35-0.062,0.703-0.104,1.066c-0.133,1.201-0.259,2.336-0.088,3.17
		l0.064,0.315c-8.685-1.536-17.707-3.128-26.836-4.736c-0.076,0.888-0.176,1.81-0.291,2.755l12.107,2.135l18.234,0.416
		c-0.732-0.13-1.465-0.26-2.201-0.39l0.099-0.5c0.134-0.688,0.302-1.246,0.48-1.838c0.185-0.616,0.373-1.261,0.522-2.043
		l20.723,3.654c0.105-0.921,0.21-1.833,0.311-2.721c-6.629-1.182-13.629-2.425-20.875-3.707l0.099-0.498
		c0.136-0.69,0.305-1.251,0.483-1.845c0.185-0.615,0.371-1.258,0.521-2.037l20.274,3.574c0.103-0.928,0.2-1.836,0.297-2.723
		c-6.491-1.157-13.335-2.372-20.413-3.625l0.099-0.499c0.134-0.688,0.304-1.248,0.481-1.841c0.186-0.616,0.373-1.26,0.523-2.042
		l19.789,3.489c0.096-0.937,0.189-1.845,0.277-2.727c-6.34-1.129-13.014-2.313-19.908-3.534l0.098-0.498
		c0.136-0.688,0.304-1.246,0.481-1.838c0.186-0.617,0.374-1.262,0.524-2.045l19.244,3.394c0.09-0.949,0.172-1.867,0.249-2.734
		c-6.169-1.1-12.648-2.249-19.335-3.433l0.098-0.499C135.6,87.663,135.768,87.104,135.945,86.512z M19.653,215.438
		c0.139-0.792,0.324-1.407,0.521-2.058c0.167-0.554,0.336-1.131,0.477-1.813l42.879,7.562c-0.24,1.388-0.499,2.875-0.771,4.443
		c-11.59-2.037-23.094-4.055-34.046-5.977c-3.095-0.543-6.149-1.079-9.155-1.606L19.653,215.438z M18.391,222.593
		c0.141-0.79,0.325-1.403,0.521-2.052c0.167-0.557,0.337-1.136,0.478-1.821l42.902,7.564c-0.25,1.436-0.506,2.921-0.769,4.444
		c-11.597-2.037-23.11-4.058-34.068-5.98c-3.097-0.543-6.151-1.079-9.159-1.606L18.391,222.593z M17.129,229.747
		c0.141-0.791,0.325-1.404,0.521-2.053c0.167-0.556,0.337-1.135,0.478-1.82l42.928,7.569c-0.252,1.46-0.51,2.945-0.768,4.443
		c-11.688-2.054-23.295-4.09-34.34-6.027c-3.012-0.528-5.986-1.05-8.914-1.563L17.129,229.747z M15.869,236.898
		c0.139-0.791,0.322-1.404,0.52-2.055c0.166-0.555,0.337-1.132,0.477-1.815l42.953,7.573c-0.256,1.482-0.512,2.969-0.77,4.451
		c-14.738-2.599-29.445-5.192-43.271-7.63L15.869,236.898z M14.487,244.095c0.396-1.237,0.765-2.567,1.103-3.942
		c2.787,0.494,5.613,0.994,8.477,1.502c11.102,1.968,22.766,4.034,34.514,6.113c-0.259,1.494-0.516,2.977-0.77,4.436
		c-11.541-2.027-22.996-4.038-33.902-5.951c-3.24-0.568-6.432-1.129-9.574-1.68L14.487,244.095z M22.217,253.329
		c-3.031-0.532-6.021-1.057-8.967-1.573l0.096-0.55c0.139-0.791,0.324-1.405,0.521-2.056c0.167-0.555,0.337-1.133,0.478-1.816
		l42.995,7.581c-0.265,1.521-0.524,3.005-0.776,4.442C44.873,257.305,33.264,255.268,22.217,253.329z M64.786,211.973
		c-0.218,1.216-0.482,2.719-0.783,4.441c-11.521-2.023-22.954-4.03-33.843-5.94c-3.16-0.555-6.275-1.101-9.342-1.639l0.098-0.552
		c0.138-0.791,0.323-1.405,0.518-2.056c0.168-0.554,0.338-1.131,0.479-1.815L64.786,211.973z M95.152,51.792
		c0.371-1.279,0.737-2.583,1.094-3.92l43.28,7.632c-0.03,0.351-0.063,0.705-0.104,1.07c-0.131,1.199-0.256,2.332-0.09,3.165
		l0.064,0.315c-14.223-2.517-29.348-5.18-44.373-7.82L95.152,51.792z M93.891,58.946c0.371-1.281,0.738-2.585,1.094-3.921
		l43.281,7.631c-0.031,0.354-0.064,0.711-0.105,1.077c-0.133,1.197-0.258,2.327-0.088,3.16l0.066,0.329L93.76,59.397L93.891,58.946z
		 M92.637,66.067c0.351-1.326,0.711-2.611,1.078-3.879c14.656,2.593,29.393,5.194,43.289,7.636c-0.03,0.34-0.062,0.682-0.102,1.033
		c-0.133,1.202-0.26,2.337-0.089,3.173l0.067,0.333c-14.225-2.517-29.35-5.18-44.371-7.819L92.637,66.067z M47.282,58.103
		c0.399-1.247,0.769-2.576,1.103-3.943c2.768,0.49,5.572,0.987,8.415,1.491c11.214,1.987,23.003,4.076,34.874,6.177
		c-0.021,0.462-0.063,0.96-0.112,1.456c-0.093,0.952-0.188,1.936-0.101,2.699l0.044,0.385c-11.872-2.086-23.667-4.155-34.882-6.123
		c-3.213-0.563-6.379-1.119-9.494-1.666L47.282,58.103z M46.142,65.214c0.14-0.792,0.323-1.406,0.521-2.056
		c0.166-0.556,0.336-1.133,0.477-1.817l43.273,7.63c-0.021,0.469-0.064,0.979-0.115,1.486c-0.092,0.951-0.189,1.935-0.102,2.697
		l0.043,0.364c-11.967-2.103-23.854-4.188-35.158-6.171c-3.055-0.536-6.067-1.064-9.035-1.585L46.142,65.214z M44.88,72.367
		c0.14-0.791,0.325-1.405,0.521-2.056c0.168-0.554,0.338-1.132,0.479-1.815l43.271,7.63c-0.021,0.468-0.064,0.976-0.115,1.48
		c-0.092,0.952-0.188,1.938-0.1,2.702l0.042,0.364c-11.89-2.089-23.702-4.161-34.934-6.132c-3.132-0.55-6.22-1.092-9.261-1.625
		L44.88,72.367z M87.775,84.756c-0.094,0.954-0.189,1.94-0.102,2.705l0.042,0.365c-11.948-2.1-23.819-4.182-35.108-6.162
		c-3.07-0.539-6.102-1.07-9.086-1.594l0.097-0.55c0.14-0.79,0.324-1.404,0.521-2.054c0.168-0.556,0.338-1.134,0.479-1.818
		l43.272,7.63C87.869,83.744,87.824,84.252,87.775,84.756z M133.115,92.35c-0.133,1.196-0.258,2.326-0.089,3.159l0.063,0.314
		c-14.223-2.517-29.348-5.181-44.373-7.82l0.129-0.443c0.371-1.279,0.737-2.583,1.094-3.92l43.281,7.632
		C133.189,91.625,133.155,91.982,133.115,92.35z M134.377,85.183c-0.133,1.201-0.259,2.336-0.088,3.172l0.062,0.314
		c-14.225-2.517-29.35-5.181-44.373-7.82l0.129-0.441c0.371-1.28,0.736-2.583,1.092-3.92l43.282,7.631
		C134.451,84.467,134.418,84.82,134.377,85.183z M91.24,73.695l0.127-0.441c0.373-1.281,0.739-2.584,1.094-3.922l43.282,7.632
		c-0.03,0.353-0.065,0.709-0.104,1.074c-0.133,1.197-0.259,2.329-0.09,3.161l0.064,0.316
		C121.391,78.998,106.266,76.336,91.24,73.695z"/>
	<rect y="268.707" fill="none" width="15.755" height="14.174"/>
</g>
</svg>
