<?xml version="1.0" encoding="utf-8"?>
<!-- Generator: Adobe Illustrator 15.0.0, SVG Export Plug-In . SVG Version: 6.00 Build 0)  -->
<!DOCTYPE svg PUBLIC "-//W3C//DTD SVG 1.1//EN" "http://www.w3.org/Graphics/SVG/1.1/DTD/svg11.dtd">
<svg version="1.1" xmlns="http://www.w3.org/2000/svg" xmlns:xlink="http://www.w3.org/1999/xlink" x="0px" y="0px"
	 width="283.46px" height="283.46px" viewBox="0 0 283.46 283.46" enable-background="new 0 0 283.46 283.46" xml:space="preserve">
<g id="Calque_1">
</g>
<g id="M">
</g>
<g id="R">
</g>
<g id="E">
</g>
<g id="H">
	<g>
		<path d="M86.5,36.852H73.054c4.367,0.71,8.735,1.422,13.104,2.138L86.5,36.852z"/>
		<path d="M84.829,47.271c-16.145-2.516-32.277-5.039-48.381-7.584l-0.182,1.144c16.108,2.555,32.23,5.13,48.358,7.712
			L84.829,47.271z"/>
		<path d="M84.407,49.895c-16.137-2.555-32.258-5.108-48.363-7.659l-0.331,2.079c16.11,2.543,32.223,5.149,48.341,7.791
			L84.407,49.895z"/>
		<path d="M82.726,60.387c-16.139-2.515-32.264-5.037-48.361-7.581l-0.182,1.145c16.102,2.554,32.217,5.128,48.338,7.708
			L82.726,60.387z"/>
		<path d="M82.304,63.01c-16.129-2.555-32.244-5.106-48.344-7.656l-0.33,2.079c16.104,2.542,32.209,5.147,48.32,7.787L82.304,63.01z
			"/>
		<path d="M80.622,73.501c-16.131-2.513-32.252-5.034-48.342-7.577l-0.182,1.145c16.096,2.553,32.205,5.126,48.318,7.705
			L80.622,73.501z"/>
		<path d="M80.2,76.126c-16.123-2.554-32.23-5.104-48.324-7.653l-0.33,2.078c16.097,2.541,32.195,5.146,48.301,7.784L80.2,76.126z"
			/>
		<path d="M78.521,86.605c-16.117-2.525-32.227-5.056-48.318-7.601l-0.145,0.916c16.088,2.552,32.191,5.124,48.299,7.702
			L78.521,86.605z"/>
		<path d="M78.097,89.24c-16.115-2.553-32.218-5.104-48.305-7.651l-0.33,2.08c16.09,2.54,32.183,5.144,48.281,7.78L78.097,89.24z"/>
		<path d="M76.415,99.732c-16.117-2.512-32.225-5.031-48.302-7.572l-0.146,0.919c16.09,2.55,32.184,5.107,48.283,7.671
			L76.415,99.732z"/>
		<path d="M75.993,102.355c-16.109-2.552-32.205-5.101-48.285-7.647l-0.33,2.079c16.084,2.539,32.17,5.141,48.262,7.777
			L75.993,102.355z"/>
		<path d="M74.312,112.848c-16.111-2.511-32.211-5.029-48.282-7.568l-0.146,0.917c16.083,2.55,32.172,5.106,48.264,7.669
			L74.312,112.848z"/>
		<path d="M73.933,115.205c-16.104-2.551-32.192-5.1-48.266-7.645l-0.422,2.66c16.072,2.546,32.16,5.094,48.261,7.645
			L73.933,115.205z"/>
		<path d="M72.209,125.951c-16.097-2.522-32.187-5.049-48.257-7.591l-0.146,0.915c16.068,2.549,32.151,5.117,48.239,7.693
			L72.209,125.951z"/>
		<path d="M71.829,128.32c-16.097-2.549-32.18-5.096-48.246-7.641l-0.33,2.077c16.07,2.537,32.144,5.137,48.223,7.771L71.829,128.32
			z"/>
		<path d="M12.854,188.224c16.035,2.521,32.066,5.168,48.103,7.881l0.367-2.291c-16.063-2.544-32.112-5.085-48.146-7.625
			L12.854,188.224z"/>
		<path d="M11.312,197.943c16.036,2.542,32.078,5.092,48.124,7.646l0.163-1.018c-16.064-2.504-32.117-5.015-48.142-7.547
			L11.312,197.943z"/>
		<path d="M10.765,201.387c16.03,2.53,32.063,5.123,48.102,7.751l0.355-2.208c-16.058-2.544-32.1-5.084-48.127-7.623L10.765,201.387
			z"/>
		<path d="M9.233,211.022c16.023,2.541,32.059,5.103,48.101,7.67l0.204-1.271c-16.058-2.502-32.104-5.013-48.123-7.544
			L9.233,211.022z"/>
		<path d="M8.681,214.504c16.023,2.529,32.051,5.122,48.082,7.748l0.354-2.208c-16.05-2.542-32.085-5.082-48.106-7.619
			L8.681,214.504z"/>
		<path d="M7.149,224.142c16.016,2.54,32.046,5.1,48.081,7.667l0.204-1.272c-16.051-2.501-32.092-5.011-48.103-7.541L7.149,224.142z
			"/>
		<path d="M6.597,227.622c16.018,2.528,32.037,5.12,48.062,7.745l0.354-2.209c-16.044-2.541-32.072-5.079-48.087-7.616
			L6.597,227.622z"/>
		<path d="M5.066,237.258c16.009,2.539,32.032,5.098,48.061,7.664l0.204-1.271c-16.045-2.5-32.078-5.009-48.083-7.538L5.066,237.258
			z"/>
		<path d="M4.513,240.74c16.012,2.527,32.024,5.117,48.043,7.741l0.354-2.207c-16.037-2.54-32.06-5.078-48.066-7.613L4.513,240.74z"
			/>
		<path d="M3.025,250.109c16.003,2.539,32.019,5.097,48.041,7.662l0.163-1.018c-16.031-2.512-32.055-5.028-48.059-7.56
			L3.025,250.109z"/>
		<path d="M2.43,253.858c16.005,2.526,32.011,5.115,48.022,7.738l0.354-2.208c-16.03-2.539-32.046-5.076-48.046-7.61L2.43,253.858z"
			/>
		<path d="M0.935,263.27c12.354,1.958,24.709,3.919,37.068,5.886h6.459c-14.477-2.257-28.939-4.522-43.381-6.805L0.935,263.27z"/>
		<path d="M0.346,266.978c4.565,0.72,9.13,1.447,13.694,2.178h13.514c-8.967-1.42-17.922-2.839-26.877-4.257L0.346,266.978z"/>
		<path d="M187.366,36.852h-7.455c2.955,0.468,5.91,0.933,8.865,1.398l0.184-1.146C188.429,37.02,187.897,36.936,187.366,36.852z"/>
		<path d="M151.671,36.852c12.104,2.084,24.219,4.148,36.343,6.178l0.563-3.531c-5.569-0.883-11.137-1.764-16.707-2.646H151.671z"/>
		<path d="M138.474,43.68c16.079,2.558,32.15,5.105,48.215,7.645l0.196-1.228c-16.042-2.558-32.122-5.089-48.222-7.605
			L138.474,43.68z"/>
		<path d="M137.86,47.523c16.043,2.656,32.099,5.305,48.17,7.923l0.453-2.831c-16.07-2.545-32.143-5.091-48.217-7.637L137.86,47.523
			z"/>
		<path d="M136.376,56.826c16.084,2.57,32.156,5.126,48.211,7.657l0.246-1.535c-16.043-2.558-32.121-5.089-48.22-7.605
			L136.376,56.826z"/>
		<path d="M135.769,60.641c16.041,2.656,32.097,5.306,48.168,7.923l0.451-2.833c-16.068-2.545-32.141-5.091-48.213-7.637
			L135.769,60.641z"/>
		<path d="M134.284,69.944c16.082,2.569,32.154,5.125,48.209,7.656l0.244-1.536c-16.041-2.558-32.119-5.089-48.217-7.605
			L134.284,69.944z"/>
		<path d="M133.675,73.758c16.041,2.656,32.096,5.305,48.167,7.922l0.452-2.832c-16.068-2.545-32.141-5.091-48.213-7.637
			L133.675,73.758z"/>
		<path d="M132.19,83.062c16.082,2.569,32.154,5.124,48.208,7.656l0.245-1.537c-16.041-2.558-32.118-5.089-48.216-7.604
			L132.19,83.062z"/>
		<path d="M131.583,86.875c16.04,2.656,32.094,5.305,48.164,7.922l0.453-2.833c-16.068-2.545-32.14-5.09-48.211-7.636
			L131.583,86.875z"/>
		<path d="M130.141,95.912c16.081,2.569,32.152,5.125,48.206,7.656l0.196-1.229c-16.05-2.554-32.125-5.089-48.213-7.615
			L130.141,95.912z"/>
		<path d="M129.489,99.991c16.04,2.656,32.094,5.305,48.164,7.922l0.451-2.834c-16.066-2.545-32.137-5.09-48.209-7.636
			L129.489,99.991z"/>
		<path d="M128.053,108.997c16.075,2.557,32.145,5.104,48.206,7.644l0.195-1.227c-16.039-2.558-32.115-5.088-48.212-7.604
			L128.053,108.997z"/>
		<path d="M127.397,113.107c16.039,2.655,32.092,5.305,48.161,7.922l0.452-2.832c-16.066-2.545-32.137-5.09-48.207-7.636
			L127.397,113.107z"/>
		<path d="M125.96,122.113c16.074,2.557,32.144,5.105,48.205,7.644l0.195-1.228c-16.039-2.557-32.115-5.087-48.211-7.604
			L125.96,122.113z"/>
		<path d="M125.329,126.072c16.056,2.543,32.127,5.089,48.205,7.635l0.424-2.66c-16.064-2.544-32.135-5.09-48.205-7.635
			L125.329,126.072z"/>
		<path d="M115.538,187.433c16.072,2.557,32.139,5.104,48.195,7.642l0.197-1.227c-16.037-2.557-32.109-5.087-48.203-7.603
			L115.538,187.433z"/>
		<path d="M114.907,191.389c16.09,2.549,32.162,5.095,48.197,7.635l0.381-2.393c-16.043-2.541-32.124-5.089-48.196-7.634
			L114.907,191.389z"/>
		<path d="M113.411,200.764c16.076,2.568,32.143,5.124,48.193,7.654l0.182-1.146c-16.035-2.539-32.111-5.086-48.195-7.633
			L113.411,200.764z"/>
		<path d="M112.737,204.991c16.019,2.767,32.053,5.517,48.104,8.204l0.564-3.531c-16.062-2.544-32.129-5.088-48.195-7.633
			L112.737,204.991z"/>
		<path d="M111.323,213.851c16.071,2.556,32.136,5.104,48.193,7.642l0.195-1.228c-16.035-2.557-32.107-5.086-48.199-7.602
			L111.323,213.851z"/>
		<path d="M110.71,217.694c16.035,2.655,32.084,5.304,48.148,7.92l0.452-2.833c-16.062-2.544-32.128-5.088-48.194-7.633
			L110.71,217.694z"/>
		<path d="M109.226,226.998c16.076,2.568,32.141,5.123,48.189,7.653l0.245-1.536c-16.035-2.557-32.106-5.086-48.197-7.602
			L109.226,226.998z"/>
		<path d="M108.618,230.811c16.033,2.655,32.082,5.303,48.146,7.92l0.452-2.831c-16.062-2.544-32.126-5.089-48.191-7.634
			L108.618,230.811z"/>
		<path d="M107.134,240.116c16.074,2.568,32.139,5.123,48.187,7.653l0.245-1.537c-16.034-2.557-32.105-5.086-48.195-7.602
			L107.134,240.116z"/>
		<path d="M106.524,243.928c16.034,2.654,32.082,5.303,48.145,7.919l0.453-2.833c-16.062-2.544-32.125-5.088-48.191-7.633
			L106.524,243.928z"/>
		<path d="M105.04,253.231c16.074,2.568,32.139,5.123,48.186,7.653l0.246-1.536c-16.035-2.556-32.105-5.085-48.194-7.601
			L105.04,253.231z"/>
		<path d="M104.433,257.044c16.033,2.654,32.08,5.302,48.143,7.919l0.451-2.832c-16.06-2.544-32.123-5.088-48.188-7.633
			L104.433,257.044z"/>
		<path d="M102.99,266.083c6.425,1.026,12.847,2.05,19.269,3.072h7.974c-9.013-1.424-18.03-2.844-27.053-4.26L102.99,266.083z"/>
		<path d="M102.5,269.155h9.97c-3.242-0.514-6.482-1.026-9.725-1.54L102.5,269.155z"/>
		<path d="M130.929,135.16c-2.295-0.36-4.582-0.726-6.877-1.086l-0.173,1.086H46.848c-8.315-1.303-16.641-2.599-24.943-3.91
			l-0.182,1.144c5.779,0.917,11.567,1.846,17.349,2.767h-8.965c-2.867-0.454-5.74-0.909-8.606-1.363l-0.331,2.079l0,0l-1.753,11.039
			l0,0l-0.303,1.907l-3.46,21.781l0,0l-0.084,0.527l-2.011,12.664h-0.001l-0.156,0.989c16.035,2.544,32.086,5.106,48.141,7.677
			l0.166-1.039c-15.84-2.509-31.645-5.012-47.38-7.505h136.034c4.923,0.808,9.839,1.626,14.766,2.429l0.453-2.832c0,0,0,0-0.001,0
			l0.199-1.246h0.001l0.244-1.536l0,0l1.197-7.502h0.001l0.452-2.832l0,0l0.199-1.247l0,0l0.246-1.537c0,0,0,0-0.002,0l1.199-7.501
			l0,0l0.152-0.952l0.499-3.127l0,0l0.245-1.535l0,0l1.197-7.502h0.001l0.452-2.832l0,0l0.199-1.246l0,0l0.196-1.23h-0.001
			l1.043-6.527H130.929z"/>
	</g>
</g>
</svg>
