<?xml version="1.0" encoding="utf-8"?>
<!-- Generator: Adobe Illustrator 15.0.0, SVG Export Plug-In . SVG Version: 6.00 Build 0)  -->
<!DOCTYPE svg PUBLIC "-//W3C//DTD SVG 1.1//EN" "http://www.w3.org/Graphics/SVG/1.1/DTD/svg11.dtd">
<svg version="1.1" xmlns="http://www.w3.org/2000/svg" xmlns:xlink="http://www.w3.org/1999/xlink" x="0px" y="0px"
	 width="283.46px" height="283.46px" viewBox="0 0 283.46 283.46" enable-background="new 0 0 283.46 283.46" xml:space="preserve">
<g id="Calque_1">
</g>
<g id="M">
</g>
<g id="R">
</g>
<g id="E">
</g>
<g id="H">
</g>
<g id="C">
</g>
<g id="T">
</g>
<g id="I">
	<path d="M87.281,38.075l-53.265,2.186l-7.211,50.152h6.855c-0.238,0.571-0.404,1.212-0.455,1.934
		c-0.11,1.55,0.514,2.866,1.187,3.813c-1.865,1.552-3.879,2.904-5.777,4.415c-0.665-0.815-1.67-1.635-2.978-2.035l-0.646,4.499
		c0.438,0.379,0.621,1.005,0.392,1.675c-0.138,0.405-0.417,0.66-0.747,0.796L23.989,110c1.432-0.014,2.654-0.561,3.544-1.199
		c1.358,1.892,2.806,3.714,4.165,5.605c-1.04,0.826-1.893,1.907-2.174,3.743c-0.197,1.523,0.064,2.57,0.625,3.598
		c0.143,0.26,0.613,0.85,0.594,0.949c-0.014,0.075-0.563,0.383-0.759,0.529c-1.782,1.338-3.485,2.674-5.203,3.904
		c-0.655-0.809-1.656-1.607-2.967-1.995l-0.644,4.477c0.756,0.67,0.572,2.095-0.361,2.517l-0.635,4.412
		c1.318,0.021,2.622-0.337,3.518-1.139c1.488,1.779,2.777,3.711,4.223,5.521c-1.092,0.926-2.121,2.338-2.264,4.369
		c-0.108,1.551,0.513,2.865,1.188,3.813c-1.867,1.552-3.881,2.904-5.778,4.414c-0.673-0.826-1.698-1.658-3.032-2.052l-0.643,4.471
		c0.479,0.372,0.682,1.023,0.443,1.721c-0.147,0.431-0.451,0.696-0.809,0.824l-0.643,4.463c1.457,0.002,2.697-0.554,3.601-1.2
		c1.358,1.892,2.807,3.714,4.165,5.604c-1.04,0.826-1.891,1.908-2.174,3.744c-0.197,1.521,0.064,2.568,0.626,3.598
		c0.142,0.26,0.61,0.85,0.592,0.949c-0.013,0.076-0.562,0.383-0.758,0.529c-1.782,1.338-3.484,2.674-5.203,3.904
		c-0.665-0.82-1.684-1.634-3.021-2.013l-0.642,4.456c0.829,0.664,0.636,2.182-0.37,2.577l-0.631,4.39
		c1.338,0.032,2.666-0.325,3.574-1.139c1.488,1.779,2.776,3.709,4.222,5.521c-1.091,0.926-2.12,2.338-2.262,4.369
		c-0.11,1.55,0.513,2.865,1.187,3.812c-1.865,1.553-3.881,2.904-5.777,4.414c-0.684-0.838-1.725-1.683-3.088-2.069l-0.641,4.457
		c0.513,0.365,0.742,1.032,0.496,1.752c-0.156,0.453-0.484,0.723-0.869,0.842l-0.639,4.447c1.481,0.018,2.742-0.546,3.657-1.2
		c1.358,1.889,2.807,3.713,4.165,5.604c-1.04,0.826-1.89,1.907-2.174,3.744c-0.195,1.522,0.063,2.568,0.626,3.596
		c0.142,0.26,0.611,0.852,0.593,0.95c-0.014,0.076-0.562,0.383-0.759,0.53c-1.782,1.337-3.484,2.672-5.204,3.904
		c-0.672-0.833-1.709-1.659-3.074-2.032l-0.639,4.44c0.903,0.654,0.699,2.27-0.379,2.633l-0.627,4.368
		c1.357,0.044,2.709-0.314,3.631-1.14c1.488,1.781,2.776,3.711,4.221,5.522c-1.09,0.926-2.119,2.339-2.262,4.369
		c-0.108,1.55,0.512,2.865,1.188,3.813c-1.865,1.552-3.881,2.904-5.777,4.414c-0.693-0.85-1.752-1.708-3.142-2.088l-0.64,4.443
		c0.549,0.356,0.803,1.04,0.549,1.783c-0.164,0.477-0.52,0.748-0.928,0.856l-0.607,4.228h1.604c0.807-0.22,1.512-0.589,2.081-0.996
		c0.241,0.336,0.494,0.663,0.74,0.996h5.452c-1.219-1.631-2.436-3.263-3.68-4.874c2.687-2.05,5.391-4.078,8.109-6.085
		c2.062,2.666,4.031,5.399,6.092,8.066c-1.232,0.996-2.498,1.947-3.768,2.893h16.447c-0.281-0.369-0.568-0.749-0.844-1.112
		c2.652-2.116,5.402-4.1,8.118-6.13c1.831,2.399,3.638,4.815,5.435,7.242h6.014l0.606-4.077c-1.354-0.045-2.552,0.408-3.443,0.978
		c-1.491-1.818-2.851-3.734-4.256-5.617c1.124-0.913,2.214-2.341,2.358-4.4c0.109-1.551-0.486-2.799-1.098-3.801
		c1.845-1.297,3.571-2.751,5.447-4.006c0.637,1.026,1.854,1.716,3.199,2.005l0.643-4.325c-1-0.517-1.02-2.046-0.132-2.615
		c0.156-0.1,0.343-0.146,0.547-0.169l0.651-4.385c-1.445-0.085-2.712,0.383-3.647,0.97c-1.411-1.96-2.909-3.851-4.318-5.809
		c1.167-0.854,2.13-1.977,2.436-3.98c0.259-1.869-0.312-3.113-1.035-4.247c1.845-1.297,3.571-2.751,5.446-4.006
		c0.736,0.903,1.881,1.746,3.354,2.053l0.648-4.358c-0.75-0.268-1.31-1.021-0.827-2.07c0.147-0.319,0.646-0.748,1.25-0.777h0.001
		l0.648-4.356c-1.484-0.133-2.801,0.336-3.762,0.95c-1.49-1.817-2.85-3.734-4.255-5.616c1.124-0.914,2.215-2.341,2.358-4.401
		c0.109-1.549-0.488-2.798-1.097-3.801c1.845-1.297,3.568-2.751,5.444-4.006c0.688,1.105,2.047,1.814,3.514,2.059l0.635-4.263
		c-1.293-0.341-1.406-2.108-0.437-2.731c0.233-0.151,0.524-0.204,0.871-0.19l0.646-4.339c-1.58-0.181-2.961,0.315-3.967,0.945
		c-1.41-1.959-2.908-3.85-4.317-5.81c1.168-0.852,2.132-1.974,2.435-3.979c0.26-1.869-0.312-3.113-1.034-4.247
		c1.845-1.297,3.57-2.75,5.446-4.005c0.789,0.967,2.039,1.87,3.666,2.115l0.645-4.342c-0.891-0.151-1.684-0.96-1.137-2.149
		c0.148-0.319,0.647-0.749,1.251-0.778c0.112-0.006,0.216,0.007,0.319,0.02l0.646-4.344c-0.01-0.001-0.02-0.005-0.029-0.006
		c-1.602-0.229-3.025,0.271-4.051,0.926c-1.488-1.818-2.848-3.735-4.253-5.617c1.124-0.914,2.215-2.341,2.358-4.402
		c0.111-1.549-0.488-2.797-1.097-3.801c1.844-1.296,3.568-2.75,5.444-4.004c0.736,1.184,2.242,1.917,3.828,2.106l0.633-4.258
		c-0.076-0.006-0.15-0.008-0.232-0.024c-1.376-0.281-1.508-2.124-0.518-2.762c0.241-0.154,0.537-0.207,0.894-0.191
		c0.105,0.005,0.2,0.023,0.292,0.043l0.646-4.331c-1.71-0.289-3.209,0.225-4.28,0.896c-1.409-1.959-2.909-3.85-4.318-5.809
		c1.166-0.852,2.133-1.975,2.436-3.979c0.26-1.869-0.312-3.114-1.033-4.247c1.844-1.297,3.568-2.752,5.444-4.006
		c0.795,0.976,2.062,1.889,3.706,2.123c0.094,0.014,0.184,0.015,0.277,0.023l0.646-4.349c-1.003,0.01-2.066-0.843-1.453-2.173
		c0.146-0.32,0.646-0.748,1.248-0.778c0.23-0.012,0.439,0.027,0.631,0.09l0.647-4.353c-0.114-0.023-0.224-0.052-0.34-0.068
		c-1.603-0.229-3.027,0.271-4.051,0.926c-1.49-1.818-2.848-3.736-4.255-5.618c1.125-0.913,2.215-2.34,2.36-4.399
		c0.108-1.551-0.487-2.799-1.099-3.801c1.126-0.792,2.209-1.64,3.308-2.467h3.974c0.701,0.33,1.5,0.535,2.309,0.595l0.088-0.595
		h0.001L87.281,38.075z M38.347,93.991c-0.47-0.219-0.913-0.898-0.767-1.658c0.136-0.693,0.673-1.133,1.352-1.173
		C41.503,91.009,40.638,95.063,38.347,93.991z M30.045,104.924c2.688-2.05,5.391-4.078,8.11-6.087
		c2.061,2.668,4.032,5.4,6.093,8.066c-2.631,2.127-5.411,4.053-8.073,6.137C34.101,110.358,32.117,107.606,30.045,104.924z
		 M50.106,109.366c-0.007,0-0.014,0-0.021,0c-0.106,0-0.217-0.011-0.335-0.037c0,0.006-0.001,0.01-0.001,0.016
		c-1.868-0.293-1.329-3.217,0.427-2.995c-0.002,0.011-0.004,0.022-0.006,0.034C52.019,106.507,51.731,109.349,50.106,109.366z
		 M49.181,113.644c-0.001,0.008-0.002,0.016-0.002,0.022c0.176,0.021,0.344,0.026,0.51,0.032c0.049,0.004,0.096,0.014,0.146,0.017
		c0-0.002,0-0.005,0-0.007c1.566,0.027,2.699-0.521,3.743-1.19c1.335,1.896,2.827,3.672,4.121,5.599
		c-1.032,0.837-1.878,1.925-2.174,3.744c0.015,0.002,0.028,0.004,0.044,0.006c-0.383,1.936,0.378,3.357,1.175,4.54
		c-1.978,1.491-3.921,3.028-5.963,4.434c-0.852-1.034-1.936-1.896-3.788-2.181c0,0.002-0.001,0.006-0.001,0.009
		c-1.659-0.236-2.978,0.27-4.022,0.92c-1.453-1.927-2.951-3.817-4.32-5.81c1.158-0.867,2.119-1.991,2.437-3.979
		c0.243-1.857-0.329-3.102-1.032-4.248c1.785-1.373,3.588-2.725,5.406-4.056C46.255,112.512,47.45,113.386,49.181,113.644z
		 M52.361,152.019c0.131,0.244,0.526,0.799,0.516,0.848c-0.007,0.029-0.527,0.396-0.713,0.535c-1.78,1.336-3.465,2.574-5.147,3.821
		c-0.699-0.94-1.671-1.674-3.096-2.069c0-0.004,0.002-0.009,0.002-0.012c-0.086-0.02-0.165-0.029-0.25-0.047
		c-0.13-0.031-0.257-0.064-0.393-0.09c-0.001,0.006-0.002,0.012-0.004,0.018c-1.665-0.231-2.99,0.271-4.064,0.904
		c-1.438-1.871-2.854-3.759-4.249-5.662c1.154-0.791,2.237-2.297,2.385-4.26c0.117-1.568-0.442-2.871-1.093-3.847
		c1.788-1.373,3.59-2.726,5.408-4.057c0.817,0.975,1.959,1.87,3.682,2.111c0,0.003,0,0.005,0,0.009
		c1.947,0.277,3.225-0.34,4.393-1.104c1.4,1.858,2.85,3.683,4.164,5.605c-1.031,0.855-1.793,1.782-2.121,3.387
		C51.441,149.756,51.815,151.006,52.361,152.019z M48.016,174.812c-0.383,1.935,0.376,3.357,1.173,4.539
		c-1.977,1.492-3.92,3.029-5.962,4.434c-0.852-1.033-1.936-1.896-3.788-2.18c0,0.002,0,0.006-0.002,0.008
		c-1.658-0.236-2.977,0.27-4.022,0.922c-1.451-1.928-2.951-3.82-4.318-5.81c1.157-0.868,2.119-1.993,2.436-3.979
		c0.244-1.857-0.329-3.102-1.033-4.248c1.786-1.373,3.589-2.726,5.407-4.057c0.797,1.016,1.992,1.891,3.72,2.148
		c0,0.007-0.003,0.016-0.003,0.022c0.18,0.02,0.346,0.025,0.514,0.032c0.048,0.004,0.093,0.014,0.145,0.016
		c0-0.002,0.001-0.004,0.001-0.006c1.565,0.026,2.699-0.521,3.741-1.191c1.337,1.895,2.829,3.672,4.122,5.6
		c-1.032,0.837-1.878,1.924-2.173,3.743C47.985,174.807,48,174.81,48.016,174.812z M44.806,204.963
		c0.133,0.245,0.526,0.8,0.516,0.849c-0.005,0.028-0.525,0.395-0.713,0.535c-1.778,1.335-3.463,2.574-5.146,3.82
		c-0.699-0.939-1.671-1.674-3.097-2.068c0-0.004,0.003-0.008,0.003-0.012c-0.086-0.021-0.167-0.03-0.251-0.047
		c-0.131-0.031-0.256-0.065-0.394-0.091c0,0.005-0.003,0.012-0.003,0.018c-1.666-0.229-2.989,0.271-4.066,0.905
		c-1.436-1.871-2.852-3.759-4.246-5.662c1.154-0.792,2.236-2.298,2.384-4.261c0.117-1.568-0.441-2.87-1.092-3.846
		c1.786-1.373,3.59-2.726,5.407-4.057c0.817,0.975,1.96,1.868,3.682,2.112c0,0.002-0.002,0.004-0.002,0.007
		c1.949,0.277,3.228-0.339,4.394-1.104c1.401,1.858,2.851,3.682,4.167,5.604c-1.032,0.855-1.795,1.783-2.124,3.387
		C43.888,202.7,44.263,203.951,44.806,204.963z M40.461,227.755c-0.383,1.937,0.376,3.358,1.175,4.541
		c-1.98,1.49-3.921,3.027-5.963,4.434c-0.853-1.034-1.937-1.896-3.789-2.181c0,0.003,0,0.006-0.001,0.009
		c-1.661-0.236-2.978,0.27-4.023,0.92c-1.451-1.926-2.95-3.818-4.317-5.809c1.156-0.867,2.12-1.992,2.435-3.98
		c0.245-1.856-0.328-3.101-1.033-4.246c1.786-1.374,3.589-2.726,5.407-4.057c0.798,1.016,1.991,1.889,3.721,2.148
		c-0.002,0.008-0.002,0.015-0.002,0.021c0.177,0.02,0.343,0.025,0.509,0.033c0.05,0.004,0.097,0.012,0.147,0.015
		c0-0.003,0-0.004,0.001-0.007c1.565,0.028,2.7-0.52,3.743-1.189c1.334,1.895,2.827,3.672,4.119,5.6
		c-1.031,0.836-1.877,1.924-2.173,3.742C40.431,227.751,40.445,227.753,40.461,227.755z M31.56,241.792
		c-0.172,0.037-0.331,0.055-0.479,0.055c-0.077-0.004-0.151-0.005-0.234-0.021c0,0.002-0.001,0.005-0.001,0.007
		c-1.967-0.265-1.277-3.966,1.074-2.776C32.888,239.687,32.66,241.442,31.56,241.792z M34.996,215.257c0,0-0.012,0-0.019,0
		c-0.107-0.001-0.217-0.012-0.335-0.039c0,0.006-0.001,0.012-0.002,0.018c-1.868-0.295-1.328-3.217,0.428-2.996
		c-0.002,0.012-0.004,0.023-0.005,0.034C36.909,212.396,36.622,215.239,34.996,215.257z M38.636,188.902
		c-0.078-0.004-0.152-0.005-0.235-0.021c0,0.002,0,0.004,0,0.006c-1.968-0.264-1.279-3.966,1.074-2.776
		c0.969,0.631,0.74,2.387-0.36,2.736l0.001-0.001C38.942,188.884,38.782,188.901,38.636,188.902z M42.552,162.312
		c-0.007,0-0.014,0-0.014,0c-0.112,0-0.224-0.012-0.341-0.037c0,0.006-0.002,0.012-0.002,0.017
		c-1.868-0.296-1.329-3.218,0.427-2.997c-0.002,0.012-0.004,0.022-0.005,0.033C44.464,159.452,44.179,162.294,42.552,162.312z
		 M47.029,133.164c0.968,0.633,0.739,2.388-0.36,2.737c-0.172,0.038-0.332,0.055-0.48,0.055c-0.076-0.004-0.151-0.004-0.234-0.02
		c0,0.002,0,0.004,0,0.006C43.987,135.678,44.676,131.976,47.029,133.164z M36.802,119.188c-0.185,1.939-3.379,1.525-2.992-0.427
		C34.015,116.847,37.13,117.319,36.802,119.188z M27.021,132.505c-0.143-0.188-0.787-0.833-0.771-0.975
		c0.012-0.133,0.754-0.566,1.02-0.766c2.259-1.695,5.012-3.851,7.136-5.313c2.026,2.69,4.099,5.349,6.041,8.104
		c-2.703,1.994-5.392,4.011-8.06,6.047C30.561,137.348,28.829,134.915,27.021,132.505z M30.792,146.937
		c-0.471-0.221-0.912-0.898-0.766-1.658c0.134-0.695,0.673-1.134,1.352-1.174C33.95,143.953,33.083,148.009,30.792,146.937z
		 M22.489,157.868c2.689-2.05,5.393-4.078,8.111-6.085c2.062,2.666,4.031,5.399,6.093,8.065c-2.631,2.127-5.411,4.053-8.072,6.137
		C26.547,163.302,24.564,160.552,22.489,157.868z M29.246,172.133c-0.184,1.938-3.377,1.524-2.991-0.427
		C26.461,169.791,29.575,170.264,29.246,172.133z M19.467,185.45c-0.143-0.189-0.786-0.833-0.772-0.976
		c0.012-0.132,0.754-0.565,1.019-0.765c2.259-1.695,5.014-3.852,7.138-5.314c2.025,2.692,4.099,5.349,6.039,8.104
		c-2.702,1.994-5.389,4.011-8.06,6.047C23.008,190.292,21.275,187.86,19.467,185.45z M23.237,199.882
		c-0.469-0.221-0.913-0.898-0.766-1.658c0.133-0.694,0.673-1.135,1.352-1.174C26.396,196.897,25.529,200.953,23.237,199.882z
		 M14.936,210.813c2.687-2.05,5.391-4.078,8.111-6.086c2.061,2.666,4.031,5.4,6.091,8.066c-2.63,2.126-5.41,4.053-8.073,6.137
		C18.992,216.247,17.011,213.497,14.936,210.813z M21.691,225.078c-0.183,1.938-3.377,1.524-2.99-0.427
		C18.905,222.736,22.021,223.208,21.691,225.078z M11.911,238.396c-0.143-0.189-0.785-0.833-0.771-0.977
		c0.014-0.132,0.754-0.564,1.021-0.765c2.259-1.694,5.011-3.851,7.136-5.313c2.025,2.691,4.099,5.35,6.039,8.104
		c-2.702,1.996-5.389,4.01-8.059,6.048C15.453,243.236,13.72,240.805,11.911,238.396z M15.682,252.826
		c-0.468-0.22-0.911-0.899-0.765-1.658c0.135-0.694,0.672-1.134,1.352-1.174C18.841,249.843,17.975,253.899,15.682,252.826z
		 M27.442,268.201c-0.007,0-0.013,0.001-0.02-0.001c-0.106,0.001-0.217-0.01-0.336-0.035c0,0.005-0.001,0.01-0.001,0.016
		c-1.866-0.295-1.329-3.217,0.428-2.996c-0.001,0.01-0.003,0.021-0.005,0.033C29.354,265.343,29.068,268.183,27.442,268.201z
		 M36.67,253.999c-0.337,1.646,0.034,2.896,0.581,3.909c0.133,0.245,0.526,0.799,0.517,0.848c-0.005,0.029-0.528,0.396-0.714,0.536
		c-1.779,1.334-3.463,2.573-5.146,3.821c-0.698-0.94-1.671-1.676-3.096-2.07c0-0.004,0.001-0.009,0.002-0.013
		c-0.086-0.02-0.166-0.028-0.251-0.045c-0.13-0.032-0.256-0.065-0.393-0.092c-0.001,0.007-0.002,0.013-0.004,0.019
		c-1.666-0.231-2.988,0.271-4.064,0.903c-1.438-1.871-2.854-3.758-4.25-5.661c1.156-0.792,2.239-2.297,2.385-4.261
		c0.119-1.567-0.44-2.871-1.09-3.845c1.786-1.374,3.588-2.726,5.406-4.058c0.818,0.975,1.961,1.87,3.682,2.111
		c0,0.004-0.002,0.006-0.002,0.009c1.949,0.276,3.228-0.339,4.395-1.104c1.401,1.859,2.849,3.683,4.165,5.605
		C37.763,251.468,36.999,252.395,36.67,253.999z M43.724,255.962c-0.19,0.34-0.675,0.668-1.014,0.721
		c-2.021,0.314-2.504-2.9-0.396-2.973C43.534,253.669,44.359,254.827,43.724,255.962z M51.342,243.11
		c-2.612,2.114-5.376,4.027-8.021,6.098c-2.127-2.629-4.054-5.41-6.137-8.072c2.639-2.079,5.462-4.197,8.111-6.084
		C47.332,237.722,49.348,240.408,51.342,243.11z M44.701,228.361c0.207-1.888,3.331-1.468,2.991,0.427
		C47.514,230.766,44.335,230.275,44.701,228.361z M55.138,216.503c-2.254,1.823-4.69,3.561-7.096,5.365
		c-0.201,0.151-0.847,0.785-0.976,0.771c-0.161-0.016-0.607-0.807-0.765-1.02c-1.746-2.326-3.587-4.748-5.327-7.046
		c2.651-2.116,5.402-4.1,8.117-6.13C51.129,211.115,53.145,213.802,55.138,216.503z M49.868,200.767
		c1.221-0.042,2.045,1.114,1.41,2.25c-0.191,0.342-0.675,0.668-1.014,0.721C48.243,204.052,47.763,200.839,49.868,200.767z
		 M58.896,190.165c-2.612,2.115-5.376,4.027-8.021,6.099c-2.127-2.631-4.052-5.411-6.137-8.073c2.64-2.078,5.462-4.197,8.11-6.084
		C54.888,184.776,56.901,187.464,58.896,190.165z M52.255,175.416c0.208-1.887,3.331-1.468,2.992,0.427
		C55.069,177.819,51.892,177.331,52.255,175.416z M62.693,163.559c-2.255,1.823-4.691,3.562-7.097,5.364
		c-0.201,0.152-0.847,0.785-0.976,0.772c-0.162-0.017-0.605-0.808-0.765-1.021c-1.745-2.324-3.588-4.746-5.327-7.045
		c2.651-2.115,5.402-4.1,8.117-6.13C58.684,158.17,60.699,160.856,62.693,163.559z M57.423,147.821
		c1.222-0.042,2.045,1.115,1.41,2.251c-0.19,0.341-0.676,0.668-1.014,0.72C55.798,151.106,55.315,147.894,57.423,147.821z
		 M66.45,137.221c-2.611,2.114-5.374,4.027-8.02,6.098c-2.127-2.63-4.053-5.41-6.137-8.071c2.639-2.081,5.461-4.199,8.11-6.086
		C62.441,131.831,64.458,134.519,66.45,137.221z M59.811,122.472c0.206-1.887,3.332-1.469,2.991,0.426
		C62.622,124.876,59.445,124.386,59.811,122.472z M70.249,110.614c-2.255,1.822-4.693,3.561-7.097,5.365
		c-0.203,0.15-0.849,0.783-0.977,0.771c-0.163-0.016-0.606-0.809-0.767-1.021c-1.744-2.324-3.586-4.746-5.326-7.045
		c2.652-2.115,5.402-4.1,8.118-6.131C66.237,105.226,68.254,107.912,70.249,110.614z M64.977,94.876
		c1.223-0.041,2.046,1.115,1.411,2.251c-0.19,0.341-0.675,0.668-1.016,0.721C63.353,98.161,62.87,94.948,64.977,94.876z
		 M61.456,91.776c-1.03,0.855-1.792,1.783-2.122,3.388c-0.338,1.647,0.035,2.897,0.581,3.909c0.132,0.244,0.525,0.8,0.517,0.848
		c-0.006,0.029-0.527,0.396-0.714,0.537c-1.779,1.334-3.464,2.572-5.146,3.82c-0.699-0.94-1.671-1.675-3.094-2.07
		c0-0.004,0-0.008,0.001-0.011c-0.086-0.021-0.166-0.03-0.252-0.047c-0.129-0.03-0.255-0.065-0.392-0.091
		c-0.002,0.006-0.002,0.012-0.004,0.018c-1.666-0.23-2.99,0.271-4.065,0.905c-1.438-1.872-2.854-3.759-4.249-5.663
		c1.154-0.791,2.237-2.297,2.385-4.261c0.075-0.994-0.124-1.881-0.445-2.646h16.011C60.798,90.867,61.138,91.312,61.456,91.776z"/>
	<rect x="1.185" y="268.624" fill="none" width="15.757" height="14.174"/>
</g>
</svg>
