<?xml version="1.0" encoding="utf-8"?>
<!-- Generator: Adobe Illustrator 15.0.0, SVG Export Plug-In . SVG Version: 6.00 Build 0)  -->
<!DOCTYPE svg PUBLIC "-//W3C//DTD SVG 1.1//EN" "http://www.w3.org/Graphics/SVG/1.1/DTD/svg11.dtd">
<svg version="1.1" xmlns="http://www.w3.org/2000/svg" xmlns:xlink="http://www.w3.org/1999/xlink" x="0px" y="0px"
	 width="283.46px" height="283.46px" viewBox="0 0 283.46 283.46" enable-background="new 0 0 283.46 283.46" xml:space="preserve">
<g id="Calque_1">
</g>
<g id="M">
	<g>
		<polygon fill="#1D1D1B" points="103.526,65.905 36.028,54.004 35.785,55.463 104.206,67.527 		"/>
		<polygon fill="#1D1D1B" points="105.305,70.147 35.392,57.82 35.148,59.279 105.985,71.77 		"/>
		<polygon fill="#1D1D1B" points="91.342,36.848 90.031,36.848 91.446,37.098 		"/>
		<polygon fill="#1D1D1B" points="92.546,39.719 76.271,36.85 67.76,36.85 93.226,41.34 		"/>
		<polygon fill="#1D1D1B" points="94.325,43.962 53.999,36.852 38.89,36.853 38.761,37.624 95.892,47.698 		"/>
		<polygon fill="#1D1D1B" points="101.403,60.844 36.788,49.451 36.415,51.691 102.448,63.334 		"/>
		<polygon fill="#1D1D1B" points="107.772,76.032 34.509,63.114 33.575,68.716 110.384,82.26 		"/>
		<polygon fill="#1D1D1B" points="113.948,90.763 32.299,76.366 32.056,77.825 114.629,92.385 		"/>
		<polygon fill="#1D1D1B" points="31.661,80.184 31.418,81.644 114.605,96.311 115.72,95.005 		"/>
		<polygon fill="#1D1D1B" points="26.459,111.375 26.216,112.834 90.782,124.219 91.896,122.914 		"/>
		<polygon fill="#1D1D1B" points="25.822,115.192 25.578,116.653 87.865,127.636 88.981,126.328 		"/>
		<polygon fill="#1D1D1B" points="31.024,84 30.781,85.46 111.689,99.727 112.804,98.421 		"/>
		<polygon fill="#1D1D1B" points="30.388,87.817 30.146,89.276 108.774,103.142 109.89,101.835 		"/>
		<polygon fill="#1D1D1B" points="29.751,91.636 29.19,94.996 104.406,108.259 106.974,105.252 		"/>
		<polygon fill="#1D1D1B" points="27.218,106.822 26.845,109.064 93.661,120.846 95.373,118.84 		"/>
		<polygon fill="#1D1D1B" points="136.757,145.157 136.757,145.157 136.429,145.561 		"/>
		<polygon fill="#1D1D1B" points="75.479,129.397 74.601,129.243 24.938,120.486 24.004,126.09 73.654,134.844 78.234,135.651 
			80.657,136.078 84.938,131.065 		"/>
		<path fill="#1D1D1B" d="M129.515,154.07l1.068-1.314L129.515,154.07z"/>
		<polygon fill="#1D1D1B" points="22.484,135.199 72.114,143.95 72.362,142.489 22.729,133.738 		"/>
		<path fill="#1D1D1B" d="M126.723,157.507l1.067-1.313L126.723,157.507z"/>
		<polygon fill="#1D1D1B" points="21.849,139.015 71.47,147.765 71.717,146.307 22.092,137.557 		"/>
		<polygon fill="#1D1D1B" points="16.646,170.207 66.199,178.944 66.446,177.486 16.888,168.749 		"/>
		<path fill="#1D1D1B" d="M103.902,185.593l1.067-1.313L103.902,185.593z"/>
		<path fill="#1D1D1B" d="M99.218,183.266l0.466,1.057L99.218,183.266z"/>
		<polygon fill="#1D1D1B" points="16.009,174.025 65.554,182.761 65.801,181.301 16.252,172.564 		"/>
		<path fill="#1D1D1B" d="M101.095,187.524l0.436,0.987L101.095,187.524z"/>
		<path fill="#1D1D1B" d="M123.929,160.945l0.977-1.202L123.929,160.945z"/>
		<polygon fill="#1D1D1B" points="21.211,142.834 70.825,151.582 71.071,150.121 21.455,141.372 		"/>
		<path fill="#1D1D1B" d="M87.63,156.972l0.718,1.628L87.63,156.972z"/>
		<path fill="#1D1D1B" d="M121.138,164.381l0.877-1.08L121.138,164.381z"/>
		<polygon fill="#1D1D1B" points="20.575,146.649 70.181,155.396 70.427,153.938 20.817,145.191 		"/>
		<polygon fill="#1D1D1B" points="19.62,152.369 69.214,161.114 69.781,157.753 20.182,149.008 		"/>
		<polygon fill="#1D1D1B" points="119.412,166.504 119.412,166.504 118.14,168.07 		"/>
		<polygon fill="#1D1D1B" points="91.161,164.984 91.161,164.984 90.123,162.628 		"/>
		<path fill="#1D1D1B" d="M106.661,182.197l0.646-0.795L106.661,182.197z"/>
		<path fill="#1D1D1B" d="M96.979,178.184l0.067,0.153L96.979,178.184z"/>
		<polygon fill="#1D1D1B" points="17.274,166.436 66.837,175.175 67.216,172.936 17.647,164.195 		"/>
		<polygon fill="#1D1D1B" points="14.435,183.462 63.96,192.194 64.906,186.594 15.368,177.858 		"/>
		<polygon fill="#1D1D1B" points="12.915,192.569 62.421,201.299 62.667,199.84 13.158,191.11 		"/>
		<polygon fill="#1D1D1B" points="12.278,196.388 61.775,205.115 62.022,203.656 12.521,194.928 		"/>
		<polygon fill="#1D1D1B" points="7.075,227.578 56.505,236.294 56.751,234.837 7.318,226.12 		"/>
		<polygon fill="#1D1D1B" points="6.438,231.397 55.86,240.111 56.106,238.652 6.682,229.938 		"/>
		<polygon fill="#1D1D1B" points="11.642,200.204 61.131,208.931 61.377,207.473 11.885,198.746 		"/>
		<polygon fill="#1D1D1B" points="11.005,204.021 60.485,212.746 60.732,211.288 11.248,202.562 		"/>
		<polygon fill="#1D1D1B" points="10.05,209.741 59.52,218.464 60.087,215.105 10.61,206.381 		"/>
		<polygon fill="#1D1D1B" points="7.704,223.809 57.142,232.526 57.521,230.285 8.078,221.567 		"/>
		<polygon fill="#1D1D1B" points="4.864,240.834 54.266,249.545 55.212,243.943 5.799,235.23 		"/>
		<polygon fill="#1D1D1B" points="3.345,249.943 52.726,258.65 52.973,257.191 3.588,248.484 		"/>
		<polygon fill="#1D1D1B" points="2.708,253.759 52.081,262.465 52.328,261.007 2.951,252.301 		"/>
		<polygon fill="#1D1D1B" points="2.071,257.577 51.437,266.281 51.683,264.822 2.314,256.117 		"/>
		<polygon fill="#1D1D1B" points="1.435,261.394 48.345,269.665 50.864,269.665 51.038,268.639 1.678,259.936 		"/>
		<polygon fill="#1D1D1B" points="0.48,267.114 14.948,269.665 34.57,269.665 1.041,263.753 		"/>
		<polygon fill="#1D1D1B" points="220.127,42.55 223.676,43.176 224.633,37.578 224.226,37.506 		"/>
		<polygon fill="#1D1D1B" points="222.119,52.279 222.368,50.82 214.53,49.438 213.462,50.753 		"/>
		<polygon fill="#1D1D1B" points="221.467,56.093 221.716,54.636 211.737,52.876 210.67,54.189 		"/>
		<polygon fill="#1D1D1B" points="216.138,87.263 216.387,85.806 188.916,80.962 187.85,82.275 		"/>
		<polygon fill="#1D1D1B" points="215.485,91.077 215.735,89.619 186.125,84.397 185.057,85.712 		"/>
		<polygon fill="#1D1D1B" points="220.814,59.908 221.064,58.448 208.945,56.312 207.876,57.627 		"/>
		<polygon fill="#1D1D1B" points="220.163,63.722 220.412,62.265 206.151,59.75 205.085,61.063 		"/>
		<polygon fill="#1D1D1B" points="219.186,69.438 219.76,66.078 203.359,63.187 200.899,66.214 		"/>
		<polygon fill="#1D1D1B" points="216.782,83.494 217.165,81.256 192.247,76.862 190.608,78.879 		"/>
		<polygon fill="#1D1D1B" points="213.873,100.508 214.83,94.909 182.251,89.165 178.153,94.209 		"/>
		<polygon fill="#1D1D1B" points="212.317,109.609 212.566,108.151 172.557,101.097 171.489,102.41 		"/>
		<polygon fill="#1D1D1B" points="211.665,113.426 211.914,111.967 169.763,104.534 168.695,105.849 		"/>
		<polygon fill="#1D1D1B" points="156.821,135.863 206.335,144.594 206.585,143.137 157.065,134.404 		"/>
		<polygon fill="#1D1D1B" points="156.179,139.682 205.683,148.41 205.933,146.95 156.425,138.221 		"/>
		<polygon fill="#1D1D1B" points="211.013,117.239 211.262,115.781 166.971,107.972 165.903,109.285 		"/>
		<polygon fill="#1D1D1B" points="210.36,121.054 210.609,119.596 164.179,111.408 163.11,112.722 		"/>
		<polygon fill="#1D1D1B" points="159.817,118.029 209.383,126.769 209.957,123.41 161.386,114.846 160.083,116.447 		"/>
		<polygon fill="#1D1D1B" points="157.454,132.094 206.979,140.826 207.362,138.587 157.831,129.854 		"/>
		<polygon fill="#1D1D1B" points="154.594,149.115 204.071,157.84 205.028,152.24 155.535,143.514 		"/>
		<polygon fill="#1D1D1B" points="153.063,158.223 202.515,166.942 202.764,165.482 153.309,156.763 		"/>
		<polygon fill="#1D1D1B" points="152.422,162.038 201.862,170.756 202.111,169.298 152.667,160.58 		"/>
		<polygon fill="#1D1D1B" points="147.181,193.224 196.533,201.926 196.782,200.469 147.427,191.766 		"/>
		<polygon fill="#1D1D1B" points="146.54,197.041 195.881,205.74 196.13,204.281 146.785,195.58 		"/>
		<polygon fill="#1D1D1B" points="151.78,165.855 201.21,174.571 201.46,173.111 152.026,164.395 		"/>
		<polygon fill="#1D1D1B" points="151.14,169.671 200.558,178.385 200.808,176.927 151.384,168.213 		"/>
		<polygon fill="#1D1D1B" points="150.179,175.39 199.581,184.101 200.155,180.741 150.743,172.028 		"/>
		<polygon fill="#1D1D1B" points="147.815,189.453 197.177,198.157 197.56,195.918 148.191,187.213 		"/>
		<polygon fill="#1D1D1B" points="144.954,206.476 194.269,215.171 195.226,209.572 145.896,200.874 		"/>
		<polygon fill="#1D1D1B" points="143.424,215.582 192.712,224.272 192.962,222.813 143.669,214.122 		"/>
		<polygon fill="#1D1D1B" points="142.782,219.398 192.06,228.088 192.31,226.629 143.027,217.939 		"/>
		<polygon fill="#1D1D1B" points="137.542,250.583 186.731,259.256 186.979,257.799 137.787,249.125 		"/>
		<polygon fill="#1D1D1B" points="136.9,254.401 186.078,263.072 186.327,261.614 137.146,252.941 		"/>
		<polygon fill="#1D1D1B" points="142.142,223.215 191.407,231.902 191.657,230.444 142.386,221.757 		"/>
		<polygon fill="#1D1D1B" points="141.5,227.031 190.756,235.716 191.005,234.258 141.745,225.572 		"/>
		<polygon fill="#1D1D1B" points="140.539,232.749 189.778,241.432 190.353,238.074 141.104,229.39 		"/>
		<polygon fill="#1D1D1B" points="138.175,246.814 187.375,255.489 187.758,253.249 138.552,244.572 		"/>
		<polygon fill="#1D1D1B" points="135.314,263.836 168.374,269.665 184.951,269.665 185.423,266.902 136.256,258.233 		"/>
		<polygon fill="#1D1D1B" points="224.757,36.852 165.365,36.848 115.72,95.005 114.605,96.311 112.804,98.421 111.689,99.727 
			109.89,101.835 108.774,103.142 106.974,105.252 104.406,108.259 95.373,118.84 93.661,120.846 91.896,122.914 90.782,124.219 
			88.981,126.328 87.865,127.636 84.938,131.065 80.657,136.078 79.184,137.806 87.63,156.972 88.348,158.6 90.123,162.628 
			91.161,164.984 96.979,178.184 97.046,178.337 99.218,183.266 99.684,184.322 101.095,187.524 101.53,188.512 103.902,185.593 
			104.97,184.279 106.661,182.197 107.307,181.402 118.14,168.07 119.412,166.504 121.138,164.381 122.015,163.301 123.929,160.945 
			124.905,159.743 126.723,157.507 127.79,156.193 129.515,154.07 130.583,152.756 136.429,145.561 136.757,145.157 
			160.083,116.447 161.386,114.846 163.11,112.722 164.179,111.408 165.903,109.285 166.971,107.972 168.695,105.849 
			169.763,104.534 171.489,102.41 172.557,101.097 178.153,94.209 182.251,89.165 185.057,85.712 186.125,84.397 187.85,82.275 
			188.916,80.962 190.608,78.879 192.247,76.862 200.899,66.214 203.359,63.187 205.085,61.063 206.151,59.75 207.876,57.627 
			208.945,56.312 210.67,54.189 211.737,52.876 213.462,50.753 214.53,49.438 220.127,42.55 224.226,37.506 		"/>
	</g>
</g>
</svg>
