<?xml version="1.0" encoding="utf-8"?>
<!-- Generator: Adobe Illustrator 15.0.0, SVG Export Plug-In . SVG Version: 6.00 Build 0)  -->
<!DOCTYPE svg PUBLIC "-//W3C//DTD SVG 1.1//EN" "http://www.w3.org/Graphics/SVG/1.1/DTD/svg11.dtd">
<svg version="1.1" xmlns="http://www.w3.org/2000/svg" xmlns:xlink="http://www.w3.org/1999/xlink" x="0px" y="0px"
	 width="283.46px" height="283.46px" viewBox="0 0 283.46 283.46" enable-background="new 0 0 283.46 283.46" xml:space="preserve">
<g id="Calque_1">
</g>
<g id="M">
</g>
<g id="R">
	<g>
		<path d="M22.547,151.689c0.585,1.59,2.894-0.561,1.652-1.384c-0.08-0.055-0.52-0.186-1.003-0.008
			c-0.146,0.055-0.281,0.111-0.397,0.181c-0.291,0.174-0.456,0.439-0.315,1.027L22.547,151.689z"/>
		<path d="M49.203,31.235c1.492,0.09,2.113-2.977,0-2.84c-0.544,0.036-0.898,0.244-1.104,0.529c-0.202,0.278-0.26,0.631-0.204,0.978
			C47.999,30.562,48.505,31.194,49.203,31.235z"/>
		<path d="M53.412,29.141c-2.078,0.137-1.442,2.754,0,2.838C54.905,32.066,55.528,29.003,53.412,29.141z"/>
		<path d="M57.621,29.882c-2.076,0.138-1.441,2.755,0,2.838C59.118,32.81,59.738,29.744,57.621,29.882z"/>
		<path d="M61.832,30.626c-0.918,0.053-1.293,0.203-1.392,1.256c-0.196,2.119,3.06,2.003,2.869-0.16
			C63.259,31.164,62.897,30.563,61.832,30.626z"/>
		<path d="M66.041,31.366c-0.913,0.054-1.427,0.209-1.417,1.419c0.006,1.867,3.084,1.84,2.896-0.323
			C67.47,31.919,67.089,31.307,66.041,31.366z"/>
		<path d="M70.251,32.109c-2.025,0.118-1.404,2.636-0.162,2.811C71.776,35.157,72.53,31.977,70.251,32.109z"/>
		<path d="M74.462,32.852c-1.945,0.114-1.574,2.6-0.162,2.809C75.897,35.899,76.653,32.726,74.462,32.852z"/>
		<path d="M78.674,33.594c-1.946,0.115-1.576,2.6-0.163,2.812C80.105,36.642,80.863,33.47,78.674,33.594z"/>
		<path d="M82.884,34.337c-1.894,0.125-1.594,2.594-0.162,2.809C84.333,37.387,85.062,34.193,82.884,34.337z"/>
		<path d="M87.093,35.079c-2.076,0.137-1.441,2.753,0,2.838C88.59,38.006,89.21,34.939,87.093,35.079z"/>
		<path d="M91.304,35.821c-2.078,0.139-1.441,2.754,0.002,2.841C92.799,38.749,93.421,35.685,91.304,35.821z"/>
		<path d="M95.514,36.562c-2.075,0.142-1.442,2.756,0,2.841C97.009,39.492,97.63,36.425,95.514,36.562z"/>
		<path d="M47.925,31.848c-0.071-0.209-0.192-0.359-0.335-0.481l-0.453,2.178C47.775,33.371,48.258,32.816,47.925,31.848z"/>
		<path d="M50.927,31.874c-1.398,0.008-1.88,1.733-0.913,2.344C51.91,35.425,53.093,31.863,50.927,31.874z"/>
		<path d="M55.137,32.616c-1.397,0.009-1.88,1.734-0.916,2.345C56.122,36.166,57.305,32.605,55.137,32.616z"/>
		<path d="M59.345,33.358c-3.54,0.02,0.75,4.811,1.259,1.391C60.755,33.737,60.03,33.354,59.345,33.358z"/>
		<path d="M63.396,34.075c-1.163,0.124-1.354,0.587-1.256,1.446c0.172,1.577,3.358,1.418,2.627-0.702
			C64.567,34.239,64.089,33.997,63.396,34.075z"/>
		<path d="M67.605,34.813c-1.162,0.128-1.35,0.59-1.259,1.45c0.176,1.577,3.361,1.42,2.627-0.703
			C68.778,34.982,68.298,34.739,67.605,34.813z"/>
		<path d="M71.816,35.559c-1.163,0.126-1.354,0.59-1.261,1.446c0.179,1.576,3.361,1.42,2.63-0.703
			C72.989,35.725,72.51,35.483,71.816,35.559z"/>
		<path d="M76.026,36.3c-1.163,0.125-1.354,0.59-1.258,1.45c0.174,1.573,3.359,1.418,2.627-0.705
			C77.2,36.468,76.718,36.226,76.026,36.3z"/>
		<path d="M80.235,37.044c-1.161,0.123-1.354,0.587-1.258,1.447c0.178,1.576,3.36,1.42,2.631-0.705
			C81.406,37.207,80.931,36.968,80.235,37.044z"/>
		<path d="M84.446,37.785c-1.163,0.124-1.354,0.588-1.258,1.448c0.176,1.576,3.36,1.419,2.629-0.703
			C85.619,37.952,85.142,37.711,84.446,37.785z"/>
		<path d="M88.654,38.528c-1.158,0.124-1.351,0.588-1.255,1.448c0.176,1.576,3.359,1.418,2.629-0.705
			C89.831,38.692,89.351,38.452,88.654,38.528z"/>
		<path d="M93.03,39.299c-1.399,0.008-1.879,1.731-0.918,2.343C94.016,42.847,95.194,39.288,93.03,39.299z"/>
		<path d="M47.392,36.759c1.583,1.004,3.145-2.178,0.886-2.18C46.927,34.581,46.615,36.271,47.392,36.759z"/>
		<path d="M52.487,35.322c-1.35,0-1.663,1.688-0.885,2.181C53.187,38.505,54.74,35.322,52.487,35.322z"/>
		<path d="M56.698,36.063c-2.051,0.018-1.284,2.467,0.085,2.354C58.104,38.31,58.147,36.053,56.698,36.063z"/>
		<path d="M60.907,36.805c-0.816,0.007-1.315,0.097-1.359,1.098c-0.081,1.836,2.762,1.537,2.542-0.221
			C62.044,37.328,61.691,36.803,60.907,36.805z"/>
		<path d="M65.118,37.55c-0.816,0.006-1.315,0.095-1.361,1.093c-0.08,1.838,2.762,1.54,2.543-0.219
			C66.256,38.071,65.9,37.548,65.118,37.55z"/>
		<path d="M69.331,38.291c-0.819,0.006-1.321,0.096-1.363,1.097c-0.084,1.833,2.763,1.537,2.542-0.221
			C70.467,38.813,70.112,38.289,69.331,38.291z"/>
		<path d="M73.54,39.035c-0.818,0.005-1.319,0.095-1.361,1.093c-0.081,1.836,2.762,1.539,2.542-0.221
			C74.675,39.556,74.321,39.032,73.54,39.035z"/>
		<path d="M77.75,39.774c-1.351-0.002-1.657,1.697-0.886,2.184C78.447,42.961,79.999,39.779,77.75,39.774z"/>
		<path d="M81.96,40.517c-1.352,0-1.655,1.695-0.885,2.185C82.659,43.704,84.21,40.521,81.96,40.517z"/>
		<path d="M86.171,41.26c-1.35,0-1.662,1.694-0.888,2.184C86.868,44.445,88.427,41.26,86.171,41.26z"/>
		<path d="M90.38,42.002c-1.35,0.001-1.661,1.692-0.887,2.185C91.076,45.188,92.637,42.005,90.38,42.002z"/>
		<path d="M94.59,42.745c-1.35,0.002-1.661,1.691-0.886,2.184C95.29,45.93,96.846,42.747,94.59,42.745z"/>
		<path d="M63.491,41.104c-0.059-0.875-0.62-0.859-1.02-0.852C59.12,40.333,63.731,44.616,63.491,41.104z"/>
		<path d="M46.306,37.535l-0.392,1.883C46.584,39.13,46.741,38.06,46.306,37.535z"/>
		<path d="M49.145,40.076c2.003,0.974,2.247-2.81,0.181-1.972C48.166,38.575,48.817,39.914,49.145,40.076z"/>
		<path d="M55.204,39.81c-0.02-0.672-0.812-1.313-1.669-0.961C51.167,39.812,55.271,42.505,55.204,39.81z"/>
		<path d="M59.108,41.33c0.73-1.029-0.355-2.147-1.359-1.743C55.942,40.314,58.208,42.604,59.108,41.33z"/>
		<path d="M67.531,42.817c0.729-1.036-0.358-2.15-1.365-1.743C64.349,41.813,66.616,44.107,67.531,42.817z"/>
		<path d="M71.741,43.56c0.73-1.036-0.359-2.15-1.363-1.741C68.558,42.557,70.825,44.849,71.741,43.56z"/>
		<path d="M74.406,44.529c2.003,0.973,2.247-2.811,0.182-1.969C73.43,43.029,74.077,44.37,74.406,44.529z"/>
		<path d="M78.617,45.271c2.001,0.976,2.248-2.81,0.181-1.968C77.639,43.771,78.288,45.111,78.617,45.271z"/>
		<path d="M82.827,46.015c2.003,0.973,2.25-2.81,0.181-1.97C81.853,44.515,82.501,45.855,82.827,46.015z"/>
		<path d="M87.038,46.758c2.003,0.974,2.244-2.812,0.181-1.973C86.06,45.257,86.71,46.598,87.038,46.758z"/>
		<path d="M91.249,47.498c1.999,0.976,2.247-2.809,0.18-1.969C90.268,45.996,90.919,47.339,91.249,47.498z"/>
		<path d="M46.127,42.048c0.462,1.949,2.997-0.35,1.712-1.203c-0.079-0.051-0.515-0.184-0.998-0.006
			C46.327,41.026,45.929,41.221,46.127,42.048z"/>
		<path d="M52.051,41.589c-0.081-0.055-0.52-0.188-0.999-0.01c-0.514,0.19-0.914,0.385-0.713,1.208
			C50.8,44.739,53.337,42.441,52.051,41.589z"/>
		<path d="M56.261,42.33c-0.078-0.05-0.516-0.185-1.002-0.006c-0.512,0.188-0.909,0.383-0.712,1.207
			C55.01,45.481,57.549,43.184,56.261,42.33z"/>
		<path d="M59.307,43.036c-0.871,0.338-0.706,1.649,0.173,1.867C61.213,45.337,61.114,42.338,59.307,43.036z"/>
		<path d="M63.682,43.81c-1.005,0.247-0.956,1.591,0.009,1.838C65.195,46.031,65.523,43.349,63.682,43.81z"/>
		<path d="M67.89,44.551c-1.002,0.247-0.953,1.592,0.012,1.839C69.406,46.771,69.737,44.09,67.89,44.551z"/>
		<path d="M73.417,46.359c0.179-0.934-0.475-1.274-1.313-1.068C69.942,45.832,73.017,48.427,73.417,46.359z"/>
		<path d="M77.627,47.104c0.173-0.906-0.467-1.282-1.315-1.067C74.161,46.578,77.23,49.167,77.627,47.104z"/>
		<path d="M81.521,46.786c-0.078-0.052-0.519-0.187-1.002-0.011c-0.511,0.19-0.908,0.386-0.712,1.21
			C80.274,49.934,82.809,47.638,81.521,46.786z"/>
		<path d="M85.732,47.528c-0.081-0.054-0.517-0.185-0.998-0.008c-0.515,0.188-0.912,0.385-0.716,1.209
			C84.482,50.678,87.02,48.378,85.732,47.528z"/>
		<path d="M89.943,48.271c-0.081-0.053-0.517-0.185-1-0.01c-0.513,0.188-0.91,0.388-0.714,1.209
			C88.692,51.419,91.229,49.122,89.943,48.271z"/>
		<path d="M94.154,49.014c-0.081-0.053-0.518-0.186-1-0.011c-0.516,0.189-0.911,0.386-0.717,1.213
			C92.904,52.164,95.44,49.864,94.154,49.014z"/>
		<path d="M45.461,43.936c-0.088-0.277-0.222-0.422-0.386-0.488l-0.357,1.721C45.294,45.242,45.788,44.956,45.461,43.936z"/>
		<path d="M49.667,44.676c-0.213-0.68-0.692-0.584-1.264-0.389C45.97,45.121,50.503,47.291,49.667,44.676z"/>
		<path d="M53.881,45.418c-0.217-0.679-0.698-0.585-1.269-0.39C50.178,45.86,54.716,48.035,53.881,45.418z"/>
		<path d="M57.92,47.133c0.558-0.952-0.255-1.646-1.097-1.362C55.173,46.328,57.231,48.302,57.92,47.133z"/>
		<path d="M62.129,47.873c0.558-0.948-0.248-1.643-1.095-1.36C59.378,47.064,61.444,49.037,62.129,47.873z"/>
		<path d="M66.341,48.616c0.555-0.948-0.249-1.644-1.097-1.361C63.587,47.806,65.655,49.779,66.341,48.616z"/>
		<path d="M70.552,49.36c0.556-0.949-0.248-1.645-1.098-1.363C67.799,48.55,69.866,50.52,70.552,49.36z"/>
		<path d="M74.93,49.132c-0.224-0.693-0.687-0.586-1.267-0.393C71.203,49.569,75.78,51.74,74.93,49.132z"/>
		<path d="M79.144,49.874c-0.227-0.692-0.691-0.585-1.269-0.393C75.411,50.312,79.991,52.48,79.144,49.874z"/>
		<path d="M83.353,50.614c-0.217-0.681-0.698-0.582-1.268-0.389C79.648,51.058,84.19,53.232,83.353,50.614z"/>
		<path d="M87.56,51.358c-0.212-0.681-0.693-0.583-1.264-0.39C83.862,51.802,88.396,53.973,87.56,51.358z"/>
		<path d="M91.772,52.101c-0.219-0.682-0.698-0.584-1.268-0.392C88.069,52.542,92.607,54.717,91.772,52.101z"/>
		<path d="M46.689,48.326c0.556-0.551-0.042-1.791-0.936-1.335C44.47,47.648,46.061,48.944,46.689,48.326z"/>
		<path d="M50.899,49.067c0.559-0.549-0.043-1.79-0.932-1.334C48.681,48.393,50.271,49.688,50.899,49.067z"/>
		<path d="M55.327,49.516c0.256-0.821-0.555-1.331-1.15-1.039C52.759,49.167,54.931,50.793,55.327,49.516z"/>
		<path d="M59.538,50.256c0.257-0.82-0.556-1.329-1.153-1.038C56.976,49.907,59.141,51.535,59.538,50.256z"/>
		<path d="M63.749,50.997c0.257-0.817-0.559-1.328-1.153-1.033C61.185,50.65,63.35,52.277,63.749,50.997z"/>
		<path d="M67.958,51.742c0.257-0.821-0.555-1.33-1.152-1.038C65.393,51.391,67.56,53.02,67.958,51.742z"/>
		<path d="M72.227,52.161c-0.006-0.657-0.647-0.989-1.209-0.715C69.424,52.226,72.239,53.954,72.227,52.161z"/>
		<path d="M76.437,52.902c-0.006-0.654-0.646-0.989-1.211-0.713C73.637,52.972,76.451,54.699,76.437,52.902z"/>
		<path d="M80.57,53.131c-0.218-0.316-0.622-0.453-1.134-0.199c-0.676,0.332-0.514,0.807-0.493,0.912
			C79.128,54.866,81.431,54.356,80.57,53.131z"/>
		<path d="M84.78,53.873c-0.219-0.314-0.622-0.452-1.132-0.199c-0.679,0.333-0.516,0.807-0.495,0.912
			C83.338,55.608,85.638,55.097,84.78,53.873z"/>
		<path d="M88.991,54.616c-0.219-0.316-0.622-0.454-1.134-0.202c-0.678,0.334-0.51,0.811-0.495,0.917
			C87.55,56.349,89.851,55.842,88.991,54.616z"/>
		<path d="M93.2,55.359c-0.217-0.314-0.624-0.454-1.132-0.202c-0.676,0.335-0.515,0.807-0.495,0.914
			C91.757,57.091,94.062,56.583,93.2,55.359z"/>
		<path d="M42.547,65.183c-1.927,0.309-0.979,2.382-0.293,2.619C44.208,68.477,45.167,64.762,42.547,65.183z"/>
		<path d="M46.759,65.925c-1.932,0.309-0.978,2.386-0.296,2.619C48.418,69.222,49.379,65.505,46.759,65.925z"/>
		<path d="M50.967,66.667c-1.909,0.314-0.997,2.375-0.294,2.618C52.604,69.953,53.647,66.228,50.967,66.667z"/>
		<path d="M55.177,67.409c-1.907,0.318-0.998,2.376-0.292,2.619C56.802,70.691,57.889,66.958,55.177,67.409z"/>
		<path d="M59.39,68.149c-1.91,0.318-1.001,2.378-0.295,2.619C61.01,71.434,62.101,67.7,59.39,68.149z"/>
		<path d="M63.6,68.894c-1.911,0.317-1.004,2.375-0.295,2.62C65.223,72.175,66.311,68.445,63.6,68.894z"/>
		<path d="M67.812,69.635c-1.911,0.318-1.002,2.378-0.298,2.62C69.431,72.92,70.521,69.187,67.812,69.635z"/>
		<path d="M72.02,70.38c-1.907,0.315-0.999,2.373-0.294,2.616C73.641,73.66,74.731,69.927,72.02,70.38z"/>
		<path d="M76.229,71.122c-1.907,0.313-0.999,2.371-0.294,2.617C77.851,74.403,78.94,70.673,76.229,71.122z"/>
		<path d="M80.442,71.863c-1.91,0.315-1.002,2.374-0.297,2.618C82.061,75.146,83.151,71.413,80.442,71.863z"/>
		<path d="M84.651,72.606c-1.909,0.317-1.003,2.377-0.296,2.618C86.271,75.887,87.36,72.156,84.651,72.606z"/>
		<path d="M39.991,67.877l-0.494,2.371c0.225,0.142,0.49,0.226,0.785,0.212C41.75,70.391,41.822,67.584,39.991,67.877z"/>
		<path d="M44.111,68.632c-3.232,0.662,1.407,4.534,1.608,1.283C45.779,68.996,45.013,68.445,44.111,68.632z"/>
		<path d="M48.321,69.372c-3.23,0.665,1.406,4.536,1.609,1.285C49.989,69.736,49.223,69.188,48.321,69.372z"/>
		<path d="M52.531,70.116c-1.755,0.361-1.137,2.472,0.218,2.543C54.356,72.742,54.543,69.7,52.531,70.116z"/>
		<path d="M56.742,70.856c-3.14,0.683,1.082,4.424,1.579,1.447C58.481,71.355,57.695,70.648,56.742,70.856z"/>
		<path d="M60.952,71.6c-3.139,0.683,1.082,4.423,1.583,1.446C62.693,72.099,61.905,71.394,60.952,71.6z"/>
		<path d="M65.161,72.342c-3.217,0.697,1.395,4.504,1.61,1.283C66.821,72.886,66.284,72.099,65.161,72.342z"/>
		<path d="M69.372,73.084c-3.221,0.698,1.395,4.502,1.607,1.286C71.031,73.625,70.496,72.842,69.372,73.084z"/>
		<path d="M73.583,73.827c-3.223,0.7,1.406,4.53,1.612,1.285C75.237,74.37,74.706,73.584,73.583,73.827z"/>
		<path d="M77.792,74.569c-3.223,0.698,1.406,4.53,1.613,1.288C79.45,75.112,78.917,74.325,77.792,74.569z"/>
		<path d="M82.003,75.312c-3.221,0.7,1.407,4.528,1.612,1.287C83.659,75.855,83.128,75.067,82.003,75.312z"/>
		<path d="M86.215,76.052c-3.274,0.696,1.404,4.555,1.611,1.289C87.884,76.418,87.106,75.865,86.215,76.052z"/>
		<path d="M42.911,72.592c0.114-0.963-0.451-1.315-1.285-1.229C38.562,71.686,42.538,75.695,42.911,72.592z"/>
		<path d="M45.835,72.107c-2.756,0.287,0.346,4.056,1.23,1.553C47.455,72.556,46.685,72.021,45.835,72.107z"/>
		<path d="M50.044,72.849c-2.749,0.298,0.349,4.049,1.23,1.553C51.664,73.302,50.893,72.759,50.044,72.849z"/>
		<path d="M55.541,74.818c0.118-0.964-0.449-1.311-1.284-1.225C51.179,73.906,55.167,77.952,55.541,74.818z"/>
		<path d="M58.466,74.336c-3.078,0.319,0.916,4.359,1.285,1.226C59.867,74.601,59.3,74.247,58.466,74.336z"/>
		<path d="M62.675,75.075c-3.074,0.323,0.912,4.36,1.289,1.229C64.08,75.341,63.512,74.99,62.675,75.075z"/>
		<path d="M66.888,75.82c-3.078,0.318,0.911,4.358,1.285,1.227C68.287,76.084,67.722,75.732,66.888,75.82z"/>
		<path d="M71.097,76.562c-3.078,0.318,0.913,4.358,1.288,1.227C72.496,76.824,71.933,76.475,71.097,76.562z"/>
		<path d="M75.308,77.305c-3.077,0.319,0.912,4.358,1.287,1.227C76.71,77.568,76.143,77.217,75.308,77.305z"/>
		<path d="M79.518,78.046c-3.077,0.319,0.914,4.359,1.284,1.227C80.917,78.31,80.353,77.957,79.518,78.046z"/>
		<path d="M83.728,78.791c-3.064,0.317,0.916,4.327,1.287,1.225C85.129,79.053,84.563,78.701,83.728,78.791z"/>
		<path d="M88.109,81.919l0.481-2.317c-0.198-0.068-0.422-0.095-0.654-0.07C85.937,79.739,87.024,81.774,88.109,81.919z"/>
		<path d="M39.091,76.264c1.328,0.072,1.713-2.483-0.112-2.192c-0.107,0.017-0.204,0.04-0.291,0.069l-0.352,1.688
			C38.536,76.071,38.807,76.246,39.091,76.264z"/>
		<path d="M43.302,77.005c1.33,0.072,1.764-2.498-0.115-2.192C41.505,75.085,42.329,76.945,43.302,77.005z"/>
		<path d="M47.513,77.749c1.327,0.072,1.761-2.513-0.115-2.194C45.732,75.836,46.548,77.689,47.513,77.749z"/>
		<path d="M52.238,78.411c1.095-0.587,0.538-2.295-0.632-2.113C49.718,76.591,50.965,79.097,52.238,78.411z"/>
		<path d="M56.92,77.401c-0.085-0.156-0.443-0.463-1.103-0.361c-0.714,0.108-1.09,0.219-1.035,1.15
			C54.893,80.184,57.789,78.923,56.92,77.401z"/>
		<path d="M58.993,78.933c0.11,1.993,3.007,0.729,2.142-0.79c-0.09-0.154-0.446-0.46-1.104-0.361
			C59.311,77.89,58.938,78.005,58.993,78.933z"/>
		<path d="M63.204,79.677c0.107,1.992,3.006,0.729,2.141-0.792c-0.092-0.153-0.447-0.461-1.106-0.36
			C63.522,78.632,63.147,78.743,63.204,79.677z"/>
		<path d="M67.41,80.418c0.113,1.991,3.012,0.73,2.145-0.79c-0.091-0.154-0.446-0.461-1.104-0.363
			C67.734,79.375,67.358,79.488,67.41,80.418z"/>
		<path d="M71.621,81.159c0.11,1.975,3.039,0.777,2.145-0.787c-0.081-0.143-0.448-0.465-1.107-0.362
			C71.942,80.119,71.568,80.229,71.621,81.159z"/>
		<path d="M76.983,82.944c1.327,0.073,1.718-2.483-0.113-2.194C75.181,81.018,76.016,82.886,76.983,82.944z"/>
		<path d="M81.192,83.687c1.331,0.072,1.713-2.481-0.115-2.193C79.39,81.76,80.228,83.63,81.192,83.687z"/>
		<path d="M85.406,84.428c1.327,0.075,1.76-2.497-0.117-2.191C83.609,82.509,84.436,84.37,85.406,84.428z"/>
		<path d="M40.542,77.515c-1.001,0.231-1.162,1.559-0.344,1.946C41.74,80.188,42.218,77.135,40.542,77.515z"/>
		<path d="M44.751,78.26c-0.998,0.229-1.163,1.558-0.347,1.943C45.952,80.93,46.433,77.876,44.751,78.26z"/>
		<path d="M50.113,80.04c0.061-0.715-0.724-1.137-1.153-1.039C46.38,79.592,49.909,82.414,50.113,80.04z"/>
		<path d="M53.173,79.745c-1.329,0.169-1.056,1.883-0.021,2.002C54.289,81.874,54.824,79.531,53.173,79.745z"/>
		<path d="M57.38,80.485c-1.326,0.172-1.051,1.887-0.019,2.004C58.504,82.614,59.034,80.273,57.38,80.485z"/>
		<path d="M61.591,81.229c-1.327,0.172-1.052,1.883-0.018,2.001C62.71,83.358,63.247,81.018,61.591,81.229z"/>
		<path d="M65.802,81.97c-1.326,0.171-1.052,1.887-0.02,2.004C66.921,84.1,67.455,81.758,65.802,81.97z"/>
		<path d="M70.013,82.714c-1.328,0.172-1.053,1.885-0.019,2.001C71.132,84.844,71.665,82.502,70.013,82.714z"/>
		<path d="M74.224,83.457c-1.327,0.169-1.054,1.884-0.02,2.001C75.343,85.585,75.877,83.243,74.224,83.457z"/>
		<path d="M78.433,84.198c-0.996,0.229-1.162,1.564-0.342,1.945C79.595,86.841,80.122,83.812,78.433,84.198z"/>
		<path d="M82.644,84.943c-1,0.225-1.162,1.556-0.344,1.942C83.845,87.611,84.322,84.557,82.644,84.943z"/>
		<path d="M86.509,87.629c0.141,0.066,0.27,0.092,0.393,0.101l0.426-2.052c-0.134-0.032-0.288-0.037-0.474,0.005
			C85.856,85.912,85.693,87.241,86.509,87.629z"/>
		<path d="M38.055,80.254c-0.289,0.007-0.505,0.028-0.663,0.11l-0.254,1.22C37.61,82.946,40.621,80.181,38.055,80.254z"/>
		<path d="M42.267,80.997c-0.652,0.015-0.951,0.085-0.982,0.826C41.177,84.263,45.078,80.917,42.267,80.997z"/>
		<path d="M46.475,81.739c-0.651,0.015-0.948,0.085-0.981,0.827C45.388,85.007,49.288,81.659,46.475,81.739z"/>
		<path d="M51.597,82.973c-0.057-0.268-0.311-0.513-0.913-0.493C47.629,82.572,52.277,85.963,51.597,82.973z"/>
		<path d="M55.637,84.688c0.614-0.955-0.272-1.48-0.741-1.465C52.793,83.299,54.768,86.04,55.637,84.688z"/>
		<path d="M59.104,83.967c-0.648,0.014-0.946,0.083-0.979,0.826C58.019,87.234,61.918,83.886,59.104,83.967z"/>
		<path d="M63.315,84.706c-0.649,0.016-0.948,0.087-0.98,0.828C62.229,87.977,66.13,84.629,63.315,84.706z"/>
		<path d="M67.525,85.449c-0.65,0.017-0.947,0.087-0.978,0.831C66.441,88.719,70.34,85.369,67.525,85.449z"/>
		<path d="M71.737,86.19c-0.651,0.02-0.951,0.09-0.979,0.83C70.647,89.46,74.55,86.113,71.737,86.19z"/>
		<path d="M75.947,86.935c-0.649,0.018-0.949,0.086-0.981,0.829C74.859,90.204,78.761,86.854,75.947,86.935z"/>
		<path d="M80.158,87.677c-0.652,0.016-0.949,0.087-0.983,0.827C79.069,90.945,82.972,87.599,80.158,87.677z"/>
		<path d="M84.368,88.42c-0.65,0.018-0.948,0.086-0.979,0.827C83.279,91.689,87.18,88.341,84.368,88.42z"/>
		<path d="M39.618,83.7c-2.047,0.304,0.457,2.757,0.856,0.818C40.601,83.914,40.048,83.638,39.618,83.7z"/>
		<path d="M44.687,85.261c0.123-0.604-0.429-0.883-0.861-0.818C41.78,84.744,44.288,87.202,44.687,85.261z"/>
		<path d="M48.037,85.186c-0.54,0.077-1.101,0.213-0.845,1.018C47.81,88.19,50.018,84.893,48.037,85.186z"/>
		<path d="M52.246,85.927c-0.534,0.088-1.106,0.211-0.847,1.02C52.017,88.875,54.193,85.612,52.246,85.927z"/>
		<path d="M56.458,86.67c-0.531,0.085-1.105,0.212-0.848,1.017C56.228,89.619,58.4,86.355,56.458,86.67z"/>
		<path d="M60.67,87.413c-0.534,0.087-1.108,0.209-0.847,1.018C60.437,90.36,62.612,87.097,60.67,87.413z"/>
		<path d="M64.879,88.155c-0.532,0.085-1.106,0.209-0.849,1.018C64.648,91.104,66.823,87.841,64.879,88.155z"/>
		<path d="M69.088,88.896c-0.532,0.089-1.106,0.214-0.849,1.021C68.859,91.845,71.031,88.583,69.088,88.896z"/>
		<path d="M73.299,89.64c-0.52,0.072-1.074,0.326-0.849,1.02C73.086,92.591,75.255,89.354,73.299,89.64z"/>
		<path d="M78.367,91.201c0.124-0.604-0.428-0.884-0.858-0.819C75.463,90.684,77.97,93.142,78.367,91.201z"/>
		<path d="M82.578,91.942c0.122-0.604-0.429-0.882-0.86-0.818C79.675,91.427,82.181,93.885,82.578,91.942z"/>
		<path d="M85.737,93.324l0.305-1.464l-0.113,0.006C84.694,92.049,85.12,93.012,85.737,93.324z"/>
		<path d="M33.028,101.33l-0.525,2.526C33.378,103.452,33.821,101.882,33.028,101.33z"/>
		<path d="M35.893,101.968c-1.929,0.498-0.704,2.686,0.356,2.731C37.763,104.772,38.603,101.269,35.893,101.968z"/>
		<path d="M40.104,102.711c-1.931,0.496-0.707,2.683,0.354,2.732C41.971,105.515,42.81,102.01,40.104,102.711z"/>
		<path d="M44.317,103.45c-1.565,0.398-1.151,2.654,0.349,2.735C46.271,106.272,46.802,102.819,44.317,103.45z"/>
		<path d="M48.526,104.191c-1.655,0.422-1.09,2.669,0.351,2.737C50.497,107.003,50.977,103.572,48.526,104.191z"/>
		<path d="M52.738,104.936c-1.657,0.418-1.092,2.665,0.349,2.735C54.708,107.746,55.185,104.313,52.738,104.936z"/>
		<path d="M56.948,105.678c-1.657,0.422-1.092,2.665,0.35,2.735C58.919,108.489,59.399,105.058,56.948,105.678z"/>
		<path d="M61.154,106.421c-1.652,0.418-1.086,2.666,0.353,2.735C63.13,109.231,63.607,105.8,61.154,106.421z"/>
		<path d="M65.368,107.161c-1.932,0.502-0.707,2.688,0.35,2.735C67.214,109.967,68.057,106.468,65.368,107.161z"/>
		<path d="M69.575,107.907c-1.931,0.496-0.705,2.683,0.354,2.733C71.426,110.711,72.267,107.211,69.575,107.907z"/>
		<path d="M73.788,108.647c-1.933,0.498-0.705,2.688,0.354,2.735C75.653,111.455,76.492,107.951,73.788,108.647z"/>
		<path d="M77.996,109.392c-1.928,0.498-0.705,2.684,0.354,2.732C79.864,112.195,80.701,108.693,77.996,109.392z"/>
		<path d="M82.243,110.127l-0.034,0.006c-1.429,0.369-1.131,1.658-0.451,2.326L82.243,110.127z"/>
		<path d="M34.971,105.309c-0.245-0.557-0.913-0.902-1.722-0.636c-0.968,0.316-1.018,0.812-0.936,1.506
			C32.515,107.81,35.835,107.297,34.971,105.309z"/>
		<path d="M37.458,105.415c-0.966,0.317-1.018,0.811-0.932,1.505c0.198,1.63,3.516,1.118,2.654-0.868
			C38.938,105.493,38.267,105.15,37.458,105.415z"/>
		<path d="M41.668,106.156c-0.966,0.316-1.019,0.813-0.933,1.507c0.195,1.603,3.541,1.162,2.656-0.869
			C43.148,106.239,42.479,105.892,41.668,106.156z"/>
		<path d="M45.879,106.9c-2.788,0.899,1.418,4.374,1.772,1.313C47.729,107.515,47.215,106.466,45.879,106.9z"/>
		<path d="M50.089,107.642c-2.785,0.9,1.417,4.375,1.771,1.313C51.941,108.258,51.427,107.209,50.089,107.642z"/>
		<path d="M54.3,108.385c-2.787,0.901,1.418,4.374,1.773,1.314C56.147,109,55.633,107.951,54.3,108.385z"/>
		<path d="M58.511,109.126c-0.966,0.317-1.021,0.81-0.935,1.506c0.198,1.631,3.519,1.116,2.657-0.868
			C59.99,109.206,59.319,108.862,58.511,109.126z"/>
		<path d="M62.722,109.87c-0.968,0.314-1.023,0.811-0.935,1.504c0.2,1.631,3.521,1.118,2.654-0.867
			C64.198,109.949,63.528,109.604,62.722,109.87z"/>
		<path d="M66.929,110.612c-0.963,0.316-1.02,0.809-0.934,1.505c0.202,1.629,3.52,1.116,2.658-0.869
			C68.411,110.691,67.738,110.346,66.929,110.612z"/>
		<path d="M71.141,111.352c-0.967,0.317-1.021,0.814-0.934,1.509c0.199,1.63,3.519,1.117,2.656-0.869
			C72.621,111.433,71.949,111.088,71.141,111.352z"/>
		<path d="M75.351,112.096c-0.966,0.318-1.02,0.812-0.934,1.507c0.201,1.628,3.521,1.118,2.655-0.868
			C76.832,112.177,76.163,111.831,75.351,112.096z"/>
		<path d="M81.324,114.543l0.096-0.459c-0.002-0.185-0.039-0.386-0.136-0.608c-0.241-0.559-0.915-0.902-1.725-0.639
			c-0.965,0.317-1.017,0.814-0.934,1.51C78.784,115.625,80.853,115.579,81.324,114.543z"/>
		<path d="M32.266,108.339c-0.023-0.421-0.207-0.738-0.507-0.911l-0.469,2.256C31.848,109.72,32.324,109.382,32.266,108.339z"/>
		<path d="M36.478,109.083c-0.048-0.829-0.711-1.267-1.669-0.962C31.97,109.027,36.651,112.233,36.478,109.083z"/>
		<path d="M40.688,109.823c-0.046-0.827-0.712-1.263-1.668-0.961C36.18,109.771,40.862,112.974,40.688,109.823z"/>
		<path d="M43.23,109.604c-1.343,0.429-0.821,1.751-0.371,2.109C44.747,113.204,45.954,108.733,43.23,109.604z"/>
		<path d="M47.44,110.346c-1.44,0.453-0.66,2.256,0.25,2.382C49.239,112.947,49.789,109.612,47.44,110.346z"/>
		<path d="M51.653,111.088c-1.439,0.453-0.663,2.256,0.245,2.383C53.448,113.689,54.002,110.355,51.653,111.088z"/>
		<path d="M55.863,111.831c-1.442,0.451-0.661,2.256,0.246,2.383C57.661,114.434,58.212,111.099,55.863,111.831z"/>
		<path d="M60.07,112.573c-1.438,0.45-0.663,2.253,0.249,2.383C61.871,115.177,62.42,111.843,60.07,112.573z"/>
		<path d="M64.284,113.316c-1.441,0.451-0.665,2.254,0.246,2.382C66.081,115.919,66.634,112.581,64.284,113.316z"/>
		<path d="M70.161,115.021c-0.049-0.828-0.715-1.267-1.67-0.963C65.653,114.968,70.334,118.172,70.161,115.021z"/>
		<path d="M74.368,115.764c-0.047-0.829-0.711-1.268-1.665-0.962C69.864,115.708,74.544,118.912,74.368,115.764z"/>
		<path d="M76.913,115.542c-2.84,0.907,1.841,4.113,1.667,0.962C78.534,115.679,77.869,115.24,76.913,115.542z"/>
		<path d="M80.606,117.993l0.339-1.628C79.975,116.764,80.103,117.476,80.606,117.993z"/>
		<path d="M32.323,110.856c-1.647,0.449-0.486,2.302,0.628,2.112C34.109,112.773,34.112,110.364,32.323,110.856z"/>
		<path d="M36.533,111.599c-1.649,0.45-0.488,2.302,0.63,2.113C38.32,113.516,38.322,111.109,36.533,111.599z"/>
		<path d="M41.373,114.454c1.157-0.199,1.159-2.604-0.63-2.113C39.095,112.792,40.256,114.643,41.373,114.454z"/>
		<path d="M45.584,115.196c1.098-0.27,1.096-2.586-0.63-2.112C43.42,113.499,44.362,115.497,45.584,115.196z"/>
		<path d="M49.165,113.824c-0.739,0.201-1.254,1.384-0.506,1.913C50.499,117.042,51.345,113.229,49.165,113.824z"/>
		<path d="M53.374,114.567c-0.736,0.198-1.254,1.383-0.504,1.912C54.712,117.782,55.553,113.971,53.374,114.567z"/>
		<path d="M57.081,117.224c1.869,1.32,2.772-2.537,0.503-1.913C56.81,115.52,56.311,116.678,57.081,117.224z"/>
		<path d="M61.29,117.964c1.869,1.323,2.777-2.533,0.506-1.91C61.02,116.263,60.521,117.42,61.29,117.964z"/>
		<path d="M66.007,116.796c-0.776,0.209-1.273,1.365-0.505,1.914C67.369,120.028,68.276,116.173,66.007,116.796z"/>
		<path d="M69.712,119.451c1.867,1.321,2.778-2.534,0.504-1.914C69.438,117.748,68.942,118.905,69.712,119.451z"/>
		<path d="M75.056,120.394c1.156-0.196,1.161-2.604-0.631-2.115C72.774,118.731,73.937,120.582,75.056,120.394z"/>
		<path d="M79.265,121.137c1.157-0.198,1.16-2.604-0.628-2.117C76.988,119.472,78.148,121.325,79.265,121.137z"/>
		<path d="M30.489,113.526l-0.399,1.923C31.077,115.407,31.274,113.861,30.489,113.526z"/>
		<path d="M34.543,116.256c0.911-0.214,0.941-2.548-0.655-1.953C32.515,114.812,33.517,116.495,34.543,116.256z"/>
		<path d="M38.755,116.997c0.91-0.211,0.942-2.547-0.656-1.95C36.725,115.553,37.726,117.238,38.755,116.997z"/>
		<path d="M42.964,117.74c0.912-0.215,0.943-2.55-0.658-1.951C40.934,116.296,41.938,117.98,42.964,117.74z"/>
		<path d="M46.517,116.53c-1.293,0.33-0.641,1.746,0.173,1.866C48.277,118.631,48.066,116.135,46.517,116.53z"/>
		<path d="M50.729,117.271c-1.294,0.33-0.643,1.745,0.171,1.866C52.487,119.374,52.277,116.877,50.729,117.271z"/>
		<path d="M54.937,118.015c-1.291,0.329-0.642,1.746,0.174,1.866C56.696,120.116,56.487,117.62,54.937,118.015z"/>
		<path d="M59.149,118.756c-0.898,0.331-0.902,1.546,0.01,1.839C60.822,121.131,60.782,118.151,59.149,118.756z"/>
		<path d="M63.359,119.5c-0.899,0.33-0.905,1.544,0.009,1.837C65.032,121.873,64.992,118.896,63.359,119.5z"/>
		<path d="M67.567,120.241c-1.045,0.391-0.872,1.555,0.01,1.838C69.222,122.606,69.374,119.57,67.567,120.241z"/>
		<path d="M71.78,120.986c-1.046,0.386-0.876,1.55,0.009,1.836C73.43,123.349,73.585,120.312,71.78,120.986z"/>
		<path d="M76.647,123.677c0.911-0.209,0.941-2.543-0.657-1.949C74.616,122.234,75.619,123.921,76.647,123.677z"/>
		<path d="M32.421,117.884c0.086-0.797-0.51-1.1-1.182-0.876C29.354,117.643,32.19,120.006,32.421,117.884z"/>
		<path d="M36.632,118.625c0.087-0.791-0.513-1.104-1.183-0.875C33.577,118.391,36.399,120.752,36.632,118.625z"/>
		<path d="M39.697,120.169c1.457,0.354,1.439-2.176-0.037-1.678C38.769,118.795,38.891,119.973,39.697,120.169z"/>
		<path d="M43.907,120.911c1.459,0.354,1.439-2.176-0.038-1.677C42.979,119.537,43.1,120.716,43.907,120.911z"/>
		<path d="M48.118,121.654c1.456,0.354,1.441-2.178-0.039-1.678C47.192,120.279,47.313,121.46,48.118,121.654z"/>
		<path d="M52.33,122.396c1.453,0.354,1.438-2.179-0.04-1.676C51.399,121.021,51.523,122.2,52.33,122.396z"/>
		<path d="M56.537,123.138c1.458,0.354,1.443-2.177-0.037-1.674C55.61,121.764,55.732,122.946,56.537,123.138z"/>
		<path d="M60.749,123.882c1.455,0.353,1.44-2.181-0.037-1.676C59.819,122.506,59.942,123.685,60.749,123.882z"/>
		<path d="M64.957,124.622c1.458,0.354,1.444-2.175-0.035-1.674C64.03,123.248,64.155,124.428,64.957,124.622z"/>
		<path d="M70.226,125.051c0.546-0.953-0.391-1.599-1.093-1.359C67.52,124.236,69.494,126.331,70.226,125.051z"/>
		<path d="M74.437,125.794c0.547-0.955-0.391-1.599-1.096-1.362C71.731,124.978,73.709,127.074,74.437,125.794z"/>
		<path d="M78.647,126.537c0.545-0.955-0.391-1.602-1.096-1.365C75.942,125.721,77.917,127.815,78.647,126.537z"/>
		<path d="M29.205,119.701l-0.325,1.562l0.102,0.022C29.72,121.316,29.997,119.835,29.205,119.701z"/>
		<path d="M33.194,122.027c0.855,0.036,1.098-1.964-0.23-1.543C31.796,120.854,32.427,121.997,33.194,122.027z"/>
		<path d="M37.402,122.771c0.855,0.034,1.101-1.967-0.229-1.545C36.005,121.597,36.634,122.739,37.402,122.771z"/>
		<path d="M41.612,123.515c0.854,0.033,1.102-1.968-0.23-1.546C40.217,122.337,40.849,123.479,41.612,123.515z"/>
		<path d="M45.823,124.255c0.856,0.037,1.101-1.967-0.229-1.543C44.428,123.082,45.06,124.224,45.823,124.255z"/>
		<path d="M50.034,124.999c0.854,0.034,1.1-1.967-0.23-1.545C48.636,123.824,49.269,124.966,50.034,124.999z"/>
		<path d="M54.243,125.74c0.856,0.036,1.1-1.966-0.23-1.544C52.847,124.567,53.476,125.71,54.243,125.74z"/>
		<path d="M58.454,126.481c0.853,0.037,1.1-1.964-0.229-1.543C57.055,125.307,57.689,126.452,58.454,126.481z"/>
		<path d="M62.666,127.223c0.856,0.038,1.098-1.962-0.232-1.541C61.267,126.052,61.898,127.194,62.666,127.223z"/>
		<path d="M66.873,127.967c0.874,0.041,1.095-1.956-0.229-1.543C65.476,126.791,66.165,127.933,66.873,127.967z"/>
		<path d="M71.086,128.707c0.873,0.044,1.093-1.955-0.231-1.542C69.686,127.533,70.375,128.674,71.086,128.707z"/>
		<path d="M75.298,129.45c0.875,0.032,1.076-1.957-0.233-1.541C73.915,128.275,74.576,129.428,75.298,129.45z"/>
		<path d="M48.351,27.712c0.803-0.252,1.324-0.982,0.524-2.21c0.398-0.314,1.355,0.179,1.975,0.182
			c0.389,0.325-0.393,0.69-0.527,1.075c-0.878,2.535,4.646,2.427,2.765-0.513c0.396-0.313,1.354,0.178,1.973,0.178
			c0.387,0.327-0.39,0.693-0.523,1.077c-0.882,2.535,4.644,2.428,2.76-0.514c0.398-0.312,1.358,0.178,1.973,0.182
			c0.388,0.324-0.389,0.691-0.523,1.074c-0.879,2.535,4.645,2.43,2.762-0.512c0.396-0.314,1.355,0.174,1.972,0.177
			c0.324,0.47-0.501,0.57-0.551,1.24c-0.187,2.515,4.264,2.026,2.79-0.675c0.396-0.315,1.354,0.176,1.971,0.178
			c0.322,0.467-0.501,0.568-0.552,1.238c-0.185,2.516,4.265,2.027,2.793-0.676c0.396-0.313,1.354,0.179,1.969,0.181
			c0.322,0.47-0.501,0.571-0.551,1.239c-0.187,2.515,4.264,2.025,2.79-0.678c0.397-0.312,1.355,0.18,1.973,0.181
			c0.322,0.467-0.503,0.569-0.553,1.237c-0.186,2.517,4.266,2.027,2.791-0.675c0.396-0.315,1.354,0.181,1.971,0.182
			c0.39,0.325-0.389,0.689-0.521,1.076c-0.881,2.535,4.643,2.426,2.762-0.516c0.396-0.312,1.354,0.18,1.97,0.181
			c0.388,0.336-0.384,0.676-0.524,1.074c-0.883,2.548,4.669,2.406,2.765-0.513c0.396-0.314,1.354,0.177,1.97,0.181
			c0.391,0.337-0.383,0.674-0.521,1.077c-0.885,2.543,4.664,2.401,2.763-0.515c0.396-0.313,1.354,0.178,1.969,0.178
			c0.389,0.327-0.389,0.692-0.521,1.076c-0.884,2.539,4.642,2.429,2.762-0.514c0.396-0.312,1.354,0.179,1.971,0.183
			c0.39,0.324-0.391,0.69-0.521,1.075c-0.316,0.909,0.195,1.473,0.891,1.693l2.014-9.682l-49.91-5.39L48.351,27.712z"/>
		<path d="M35.952,98.805c0.757,0.133,1.508,0.265,2.265,0.399c-3.107,3.042,3.845,3.997,1.944,0.344
			c0.756,0.131,1.513,0.266,2.27,0.396c-2.51,1.655,1.263,4.34,2.144,2.05c0.338-0.881-0.312-1.238-0.201-1.703
			c0.754,0.133,1.511,0.265,2.267,0.398c-2.434,2.026,1.473,4.272,2.173,1.885c0.239-0.818-0.34-1.081-0.231-1.542
			c0.648,0.113,1.298,0.229,1.947,0.343c0.469,0.319-0.503,0.606-0.555,1.236c-0.242,2.947,4.502,1.519,2.819-0.837
			c0.647,0.113,1.294,0.228,1.942,0.342c0.487,0.251-0.51,0.711-0.551,1.236c-0.241,2.95,4.502,1.515,2.82-0.836
			c0.646,0.113,1.294,0.228,1.941,0.344c0.277,0.439-0.511,0.715-0.552,1.237c-0.146,1.759,2.509,2.542,3.048,0.705
			c0.237-0.819-0.34-1.082-0.229-1.544c0.649,0.114,1.294,0.228,1.942,0.342c0.274,0.441-0.506,0.716-0.551,1.238
			c-0.146,1.763,2.511,2.542,3.049,0.706c0.239-0.82-0.34-1.084-0.23-1.544c0.758,0.134,1.514,0.267,2.268,0.399
			c-2.584,1.738,1.438,4.401,2.174,1.885c0.239-0.818-0.344-1.083-0.23-1.542c0.756,0.133,1.512,0.267,2.265,0.399
			c-3.188,2.856,3.735,4.176,1.943,0.343c0.758,0.135,1.515,0.266,2.267,0.4c-2.559,1.71,1.436,4.42,2.177,1.885
			c0.239-0.819-0.342-1.082-0.229-1.543c0.755,0.134,1.51,0.27,2.266,0.399c-3.107,3.042,3.843,3.995,1.941,0.344
			c0.205,0.036,0.409,0.072,0.614,0.108l0.962-4.628c-16.373-2.941-32.787-5.853-49.223-8.75l-0.978,4.696
			c0.123,0.022,0.246,0.044,0.369,0.065c-0.222,0.22-0.387,0.428-0.513,0.624c-0.293,0.458-0.346,0.851-0.242,1.167
			C33.724,101.704,37.431,101.558,35.952,98.805z"/>
		<path d="M25.56,137.856l-0.138,0.021l-0.534,2.564c0.193,0.144,0.419,0.239,0.672,0.253
			C27.054,140.783,27.673,137.719,25.56,137.856z"/>
		<path d="M29.769,141.438c1.496,0.09,2.116-2.978,0-2.84C27.693,138.737,28.328,141.355,29.769,141.438z"/>
		<path d="M33.979,142.181c1.495,0.088,2.117-2.977,0-2.838C31.903,139.479,32.538,142.097,33.979,142.181z"/>
		<path d="M38.189,140.085c-2.077,0.138-1.438,2.753,0,2.838C39.686,143.012,40.306,139.944,38.189,140.085z"/>
		<path d="M43.878,141.923c-0.05-0.556-0.41-1.158-1.477-1.099c-0.918,0.055-1.293,0.207-1.393,1.259
			C40.814,144.202,44.067,144.086,43.878,141.923z"/>
		<path d="M48.089,142.667c-0.049-0.545-0.433-1.158-1.479-1.099c-0.912,0.055-1.427,0.208-1.419,1.419
			C45.2,144.851,48.277,144.828,48.089,142.667z"/>
		<path d="M50.819,142.31c-2.025,0.122-1.404,2.638-0.159,2.812C52.345,145.358,53.101,142.179,50.819,142.31z"/>
		<path d="M54.868,145.864c1.598,0.237,2.352-2.936,0.163-2.811C53.085,143.169,53.455,145.652,54.868,145.864z"/>
		<path d="M59.079,146.605c1.597,0.238,2.352-2.934,0.165-2.812C57.296,143.908,57.665,146.396,59.079,146.605z"/>
		<path d="M63.29,147.349c1.611,0.24,2.339-2.955,0.162-2.811C61.558,144.664,61.854,147.134,63.29,147.349z"/>
		<path d="M67.664,148.118c1.495,0.09,2.11-2.977,0-2.838C65.581,145.419,66.222,148.036,67.664,148.118z"/>
		<path d="M71.874,148.861c1.494,0.09,2.112-2.976-0.004-2.838C69.796,146.16,70.433,148.778,71.874,148.861z"/>
		<path d="M28.494,142.048c-0.197-0.575-0.678-0.819-1.374-0.742c-1.159,0.126-1.351,0.588-1.256,1.448
			C26.039,144.33,29.229,144.173,28.494,142.048z"/>
		<path d="M31.495,142.077c-1.398,0.006-1.879,1.732-0.915,2.343C32.477,145.625,33.661,142.065,31.495,142.077z"/>
		<path d="M35.706,142.818c-1.399,0.008-1.881,1.734-0.916,2.344C36.688,146.369,37.872,142.809,35.706,142.818z"/>
		<path d="M41.172,144.951c0.151-1.013-0.574-1.393-1.257-1.389C36.374,143.577,40.664,148.372,41.172,144.951z"/>
		<path d="M45.335,145.021c-0.197-0.58-0.68-0.822-1.37-0.746c-1.163,0.125-1.354,0.59-1.257,1.448
			C42.879,147.301,46.067,147.144,45.335,145.021z"/>
		<path d="M49.543,145.762c-0.195-0.576-0.677-0.821-1.372-0.743c-1.159,0.123-1.349,0.589-1.255,1.446
			C47.088,148.042,50.276,147.886,49.543,145.762z"/>
		<path d="M53.755,146.505c-0.197-0.579-0.68-0.819-1.373-0.745c-1.16,0.126-1.351,0.588-1.256,1.449
			C51.3,148.782,54.488,148.629,53.755,146.505z"/>
		<path d="M57.966,147.246c-0.2-0.579-0.681-0.82-1.373-0.742c-1.161,0.122-1.352,0.589-1.256,1.448
			C55.511,149.527,58.698,149.37,57.966,147.246z"/>
		<path d="M62.175,147.989c-0.199-0.578-0.679-0.819-1.37-0.744c-1.16,0.126-1.352,0.59-1.257,1.449
			C59.721,150.268,62.907,150.113,62.175,147.989z"/>
		<path d="M24.636,144.04c-0.197,0-0.366,0.044-0.52,0.108l-0.42,2.02l0.053,0.052C25.333,147.222,26.893,144.041,24.636,144.04z"/>
		<path d="M27.96,146.962c1.584,1.002,3.143-2.18,0.887-2.181C27.493,144.782,27.185,146.47,27.96,146.962z"/>
		<path d="M32.171,147.705c1.581,1.003,3.142-2.18,0.885-2.183C31.704,145.525,31.394,147.215,32.171,147.705z"/>
		<path d="M37.354,148.619c1.315-0.106,1.363-2.364-0.088-2.354C35.218,146.282,35.983,148.73,37.354,148.619z"/>
		<path d="M42.658,147.885c-0.047-0.354-0.399-0.882-1.181-0.878c-0.816,0.006-1.318,0.097-1.361,1.098
			C40.036,149.938,42.879,149.642,42.658,147.885z"/>
		<path d="M46.868,148.627c-0.044-0.356-0.4-0.878-1.18-0.876c-0.816,0.007-1.319,0.096-1.365,1.096
			C44.245,150.683,47.088,150.385,46.868,148.627z"/>
		<path d="M51.079,149.368c-0.046-0.354-0.398-0.878-1.181-0.874c-0.816,0.005-1.321,0.095-1.362,1.097
			C48.454,151.423,51.3,151.128,51.079,149.368z"/>
		<path d="M25.686,147.565c-1.159,0.467-0.511,1.81-0.183,1.968C27.502,150.509,27.749,146.724,25.686,147.565z"/>
		<path d="M29.713,150.277c2.003,0.971,2.247-2.811,0.181-1.97C28.737,148.776,29.384,150.116,29.713,150.277z"/>
		<path d="M35.772,150.011c-0.017-0.67-0.811-1.311-1.668-0.963C31.732,150.013,35.837,152.705,35.772,150.011z"/>
		<path d="M12.253,211.426c-1.93,0.499-0.706,2.686,0.354,2.735C14.12,214.231,14.958,210.728,12.253,211.426z"/>
		<path d="M16.461,212.168c-1.929,0.498-0.704,2.686,0.357,2.735C18.331,214.976,19.168,211.469,16.461,212.168z"/>
		<path d="M20.673,212.909c-1.929,0.501-0.706,2.688,0.354,2.736C22.542,215.719,23.378,212.212,20.673,212.909z"/>
		<path d="M24.884,213.653c-1.566,0.398-1.15,2.651,0.352,2.734C26.842,216.476,27.369,213.022,24.884,213.653z"/>
		<path d="M29.094,214.395c-1.654,0.422-1.089,2.665,0.354,2.736C31.066,217.207,31.543,213.773,29.094,214.395z"/>
		<path d="M33.305,215.14c-1.653,0.416-1.089,2.664,0.353,2.731C35.276,217.946,35.756,214.517,33.305,215.14z"/>
		<path d="M37.514,215.879c-1.655,0.419-1.091,2.666,0.354,2.735C39.486,218.688,39.966,215.259,37.514,215.879z"/>
		<path d="M41.724,216.624c-1.654,0.418-1.087,2.665,0.353,2.732C43.697,219.433,44.177,216,41.724,216.624z"/>
		<path d="M45.937,217.365c-1.933,0.499-0.709,2.686,0.352,2.733C47.784,220.171,48.624,216.672,45.937,217.365z"/>
		<path d="M50.146,218.108c-1.935,0.5-0.706,2.686,0.351,2.732C51.993,220.911,52.837,217.415,50.146,218.108z"/>
		<path d="M54.355,218.851c-1.933,0.498-0.704,2.685,0.354,2.734C56.223,221.656,57.062,218.154,54.355,218.851z"/>
		<path d="M58.566,219.591c-1.925,0.501-0.714,2.671,0.343,2.733l0.581-2.795C59.243,219.484,58.942,219.494,58.566,219.591z"/>
		<path d="M11.329,214.769c-0.24-0.558-0.914-0.901-1.725-0.637l-0.059,0.023l-0.457,2.192
			C10.006,217.01,12.024,216.369,11.329,214.769z"/>
		<path d="M13.816,214.875c-0.966,0.314-1.019,0.812-0.936,1.504c0.199,1.631,3.522,1.119,2.66-0.866
			C15.296,214.956,14.629,214.609,13.816,214.875z"/>
		<path d="M18.024,215.616c-0.965,0.314-1.017,0.812-0.932,1.506c0.199,1.63,3.521,1.119,2.658-0.869
			C19.504,215.697,18.836,215.351,18.024,215.616z"/>
		<path d="M22.235,216.359c-0.963,0.315-1.019,0.811-0.934,1.505c0.198,1.605,3.543,1.163,2.66-0.867
			C23.717,216.437,23.047,216.095,22.235,216.359z"/>
		<path d="M26.445,217.101c-2.785,0.902,1.425,4.377,1.773,1.317C28.299,217.719,27.784,216.668,26.445,217.101z"/>
		<path d="M30.656,217.846c-2.784,0.903,1.42,4.373,1.772,1.313C32.511,218.459,31.994,217.411,30.656,217.846z"/>
		<path d="M34.868,218.585c-2.79,0.904,1.421,4.376,1.773,1.319C36.719,219.203,36.204,218.154,34.868,218.585z"/>
		<path d="M39.076,219.329c-0.963,0.317-1.018,0.811-0.933,1.505c0.2,1.63,3.521,1.119,2.658-0.868
			C40.557,219.406,39.887,219.063,39.076,219.329z"/>
		<path d="M43.289,220.069c-0.967,0.317-1.022,0.812-0.934,1.509c0.199,1.628,3.521,1.117,2.657-0.871
			C44.77,220.151,44.098,219.805,43.289,220.069z"/>
		<path d="M47.497,220.813c-0.962,0.317-1.02,0.811-0.934,1.507c0.201,1.628,3.522,1.117,2.656-0.87
			C48.98,220.892,48.309,220.548,47.497,220.813z"/>
		<path d="M51.706,221.556c-0.961,0.317-1.017,0.812-0.932,1.506c0.202,1.629,3.521,1.12,2.658-0.869
			C53.188,221.634,52.521,221.291,51.706,221.556z"/>
		<path d="M57.642,222.935c-0.242-0.559-0.912-0.903-1.723-0.638c-0.965,0.315-1.02,0.813-0.936,1.51
			C55.185,225.433,58.507,224.921,57.642,222.935z"/>
		<path d="M11.169,217.579c-2.842,0.908,1.841,4.113,1.667,0.963C12.79,217.715,12.124,217.276,11.169,217.579z"/>
		<path d="M15.377,218.32c-2.837,0.908,1.842,4.114,1.667,0.964C17.001,218.454,16.332,218.016,15.377,218.32z"/>
		<path d="M19.589,219.064c-2.84,0.909,1.841,4.112,1.667,0.963C21.212,219.198,20.545,218.76,19.589,219.064z"/>
		<path d="M23.799,219.805c-1.343,0.431-0.82,1.751-0.37,2.109C25.315,223.405,26.521,218.938,23.799,219.805z"/>
		<path d="M28.009,220.548c-1.438,0.452-0.66,2.256,0.249,2.383C29.809,223.15,30.358,219.813,28.009,220.548z"/>
		<path d="M32.22,221.291c-1.44,0.45-0.662,2.255,0.248,2.381C34.02,223.894,34.569,220.558,32.22,221.291z"/>
		<path d="M36.43,222.031c-1.438,0.452-0.659,2.254,0.249,2.384C38.231,224.637,38.78,221.298,36.43,222.031z"/>
		<path d="M40.641,222.776c-1.44,0.45-0.663,2.254,0.246,2.381C42.44,225.378,42.988,222.042,40.641,222.776z"/>
		<path d="M44.853,223.519c-1.441,0.449-0.664,2.252,0.246,2.382C46.65,226.123,47.2,222.785,44.853,223.519z"/>
		<path d="M49.062,224.263c-2.842,0.905,1.84,4.111,1.667,0.961C50.681,224.396,50.018,223.956,49.062,224.263z"/>
		<path d="M54.937,225.967c-0.044-0.829-0.71-1.269-1.667-0.963C50.431,225.909,55.112,229.115,54.937,225.967z"/>
		<path d="M57.482,225.748c-1.659,0.529-0.751,1.835,0.255,2.209l0.477-2.291C57.997,225.641,57.753,225.661,57.482,225.748z"/>
		<path d="M8.681,220.315c-0.178,0.049-0.338,0.151-0.476,0.28l-0.281,1.354c0.062,0.102,0.14,0.198,0.254,0.278
			C10.044,223.551,10.95,219.692,8.681,220.315z"/>
		<path d="M13.521,223.171c1.158-0.199,1.16-2.603-0.625-2.112C11.241,221.51,12.405,223.359,13.521,223.171z"/>
		<path d="M17.73,223.912c1.156-0.196,1.16-2.601-0.63-2.111C15.45,222.25,16.614,224.1,17.73,223.912z"/>
		<path d="M21.94,224.654c1.156-0.194,1.16-2.603-0.627-2.111C19.661,222.995,20.826,224.845,21.94,224.654z"/>
		<path d="M26.152,225.397c1.097-0.268,1.094-2.583-0.629-2.114C23.989,223.7,24.934,225.698,26.152,225.397z"/>
		<path d="M29.23,225.942c1.838,1.3,2.685-2.513,0.503-1.918C28.996,224.227,28.478,225.409,29.23,225.942z"/>
		<path d="M33.439,226.681c1.839,1.305,2.684-2.51,0.505-1.911C33.207,224.97,32.689,226.152,33.439,226.681z"/>
		<path d="M37.65,227.425c1.865,1.322,2.774-2.535,0.505-1.914C37.375,225.722,36.878,226.882,37.65,227.425z"/>
		<path d="M41.86,228.165c1.867,1.324,2.775-2.532,0.505-1.909C41.589,226.466,41.09,227.62,41.86,228.165z"/>
		<path d="M46.07,228.911c1.868,1.32,2.771-2.536,0.503-1.916C45.798,227.208,45.298,228.366,46.07,228.911z"/>
		<path d="M50.281,229.653c1.866,1.321,2.774-2.537,0.505-1.915C50.009,227.95,49.507,229.106,50.281,229.653z"/>
		<path d="M55.624,230.596c1.153-0.196,1.159-2.604-0.628-2.115C53.345,228.93,54.509,230.782,55.624,230.596z"/>
		<path d="M10.241,223.762c-1.045,0.389-0.871,1.554,0.014,1.839C11.896,226.128,12.05,223.09,10.241,223.762z"/>
		<path d="M15.112,226.456c0.908-0.213,0.942-2.548-0.656-1.95C13.083,225.012,14.083,226.698,15.112,226.456z"/>
		<path d="M19.323,227.198c0.911-0.213,0.941-2.547-0.654-1.951C17.292,225.756,18.296,227.438,19.323,227.198z"/>
		<path d="M23.534,227.94c0.912-0.211,0.942-2.547-0.661-1.95C21.503,226.497,22.505,228.183,23.534,227.94z"/>
		<path d="M27.085,226.731c-1.292,0.33-0.642,1.747,0.172,1.866C28.847,228.833,28.635,226.336,27.085,226.731z"/>
		<path d="M31.298,227.474c-1.295,0.33-0.646,1.747,0.171,1.867C33.056,229.573,32.845,227.076,31.298,227.474z"/>
		<path d="M35.507,228.217c-1.291,0.33-0.641,1.748,0.17,1.866C37.264,230.318,37.055,227.821,35.507,228.217z"/>
		<path d="M39.72,228.959c-0.902,0.331-0.908,1.543,0.011,1.838C41.388,231.333,41.351,228.354,39.72,228.959z"/>
		<path d="M43.927,229.699c-0.897,0.333-0.905,1.547,0.01,1.84C45.601,232.075,45.562,229.099,43.927,229.699z"/>
		<path d="M48.136,230.444c-1.048,0.388-0.873,1.553,0.014,1.839C49.789,232.809,49.943,229.774,48.136,230.444z"/>
		<path d="M52.347,231.187c-1.047,0.388-0.875,1.554,0.012,1.837C54,233.552,54.154,230.515,52.347,231.187z"/>
		<path d="M56.53,233.765l0.398-1.919c-0.113,0.011-0.232,0.034-0.369,0.085C55.507,232.317,55.851,233.388,56.53,233.765z"/>
		<path d="M8.778,227.343c0.086-0.795-0.508-1.103-1.183-0.875C5.711,227.102,8.548,229.466,8.778,227.343z"/>
		<path d="M12.988,228.083c0.087-0.792-0.51-1.098-1.181-0.873C9.92,227.844,12.761,230.208,12.988,228.083z"/>
		<path d="M17.199,228.827c0.089-0.79-0.509-1.103-1.184-0.875C14.146,228.593,16.97,230.952,17.199,228.827z"/>
		<path d="M20.265,230.37c1.455,0.354,1.442-2.177-0.039-1.676C19.339,228.996,19.462,230.177,20.265,230.37z"/>
		<path d="M24.477,231.111c1.455,0.356,1.438-2.177-0.04-1.675C23.549,229.74,23.67,230.917,24.477,231.111z"/>
		<path d="M28.686,231.854c1.456,0.354,1.441-2.176-0.039-1.676C27.759,230.482,27.88,231.662,28.686,231.854z"/>
		<path d="M32.896,232.599c1.456,0.353,1.44-2.179-0.04-1.678C31.97,231.224,32.095,232.403,32.896,232.599z"/>
		<path d="M37.105,233.339c1.456,0.355,1.442-2.175-0.038-1.675C36.177,231.966,36.302,233.146,37.105,233.339z"/>
		<path d="M41.317,234.081c1.456,0.354,1.44-2.176-0.038-1.673C40.391,232.706,40.513,233.889,41.317,234.081z"/>
		<path d="M45.526,234.823c1.455,0.356,1.441-2.178-0.039-1.675C44.597,233.45,44.723,234.63,45.526,234.823z"/>
		<path d="M50.795,235.252c0.546-0.953-0.392-1.599-1.095-1.361C48.09,234.438,50.063,236.533,50.795,235.252z"/>
		<path d="M53.907,234.634c-1.607,0.547,0.368,2.642,1.098,1.361C55.553,235.041,54.612,234.397,53.907,234.634z"/>
		<path d="M9.322,229.944c-1.169,0.369-0.54,1.512,0.227,1.544C10.406,231.524,10.651,229.523,9.322,229.944z"/>
		<path d="M13.763,232.23c0.854,0.034,1.098-1.965-0.229-1.544C12.361,231.057,12.995,232.198,13.763,232.23z"/>
		<path d="M17.972,232.973c0.856,0.034,1.1-1.966-0.228-1.544C16.573,231.8,17.203,232.942,17.972,232.973z"/>
		<path d="M22.181,233.713c0.855,0.039,1.102-1.963-0.23-1.541C20.783,232.542,21.415,233.683,22.181,233.713z"/>
		<path d="M26.394,234.456c0.853,0.036,1.1-1.965-0.23-1.543C24.993,233.284,25.626,234.428,26.394,234.456z"/>
		<path d="M30.601,235.199c0.856,0.036,1.102-1.965-0.229-1.544C29.203,234.026,29.836,235.167,30.601,235.199z"/>
		<path d="M34.814,235.941c0.853,0.034,1.099-1.966-0.232-1.542C33.413,234.769,34.044,235.908,34.814,235.941z"/>
		<path d="M39.021,236.685c0.856,0.035,1.102-1.966-0.229-1.544C37.624,235.511,38.255,236.652,39.021,236.685z"/>
		<path d="M43.234,237.426c0.853,0.036,1.1-1.965-0.229-1.542C41.833,236.255,42.466,237.396,43.234,237.426z"/>
		<path d="M47.444,238.168c0.869,0.043,1.095-1.955-0.231-1.541C46.042,236.991,46.733,238.136,47.444,238.168z"/>
		<path d="M51.655,238.91c0.871,0.042,1.093-1.958-0.229-1.541C50.252,237.732,50.944,238.877,51.655,238.91z"/>
		<path d="M55.35,239.438l0.276-1.325C54.784,238.387,54.927,239.084,55.35,239.438z"/>
		<path d="M26.683,136.218c-0.885,2.548,4.666,2.402,2.763-0.514c0.396-0.312,1.355,0.179,1.97,0.181
			c0.388,0.326-0.391,0.692-0.521,1.075c-0.882,2.537,4.643,2.428,2.764-0.513c0.393-0.313,1.354,0.178,1.974,0.181
			c0.382,0.327-0.395,0.692-0.529,1.075c-0.878,2.536,4.645,2.426,2.764-0.516c0.395-0.31,1.356,0.179,1.972,0.182
			c0.388,0.326-0.391,0.69-0.523,1.077c-0.881,2.538,4.643,2.428,2.763-0.516c0.394-0.314,1.354,0.179,1.975,0.181
			c0.318,0.468-0.507,0.571-0.554,1.238c-0.187,2.513,4.263,2.028,2.79-0.676c0.395-0.312,1.354,0.179,1.97,0.179
			c0.322,0.469-0.503,0.57-0.551,1.24c-0.185,2.514,4.264,2.027,2.791-0.675c0.396-0.315,1.354,0.177,1.971,0.18
			c0.322,0.465-0.5,0.569-0.55,1.237c-0.187,2.513,4.265,2.028,2.79-0.676c0.394-0.313,1.354,0.177,1.97,0.181
			c0.321,0.468-0.501,0.57-0.55,1.237c-0.186,2.514,4.262,2.03,2.789-0.674c0.396-0.315,1.356,0.175,1.971,0.177
			c0.389,0.328-0.389,0.692-0.523,1.078c-0.881,2.535,4.643,2.426,2.766-0.515c0.395-0.315,1.354,0.178,1.97,0.179
			c0.39,0.337-0.387,0.677-0.526,1.077c-0.883,2.549,4.67,2.405,2.766-0.516c0.396-0.311,1.354,0.179,1.971,0.182
			c0.388,0.337-0.385,0.677-0.523,1.075c-0.885,2.548,4.667,2.404,2.765-0.513c0.393-0.313,1.352,0.179,1.969,0.18
			c0.388,0.327-0.389,0.693-0.524,1.077c-0.438,1.264,0.716,1.87,1.75,1.796l1.504-7.232c-16.414-2.895-32.829-5.788-49.243-8.683
			l-0.968,4.648c0.395,0.083,0.832,0.229,1.167,0.229C27.597,135.478,26.819,135.818,26.683,136.218z"/>
		<path d="M10.318,210.443c1.152,0.527,3.025,0.033,1.992-2.181c0.757,0.135,1.51,0.269,2.269,0.401
			c-3.107,3.085,3.879,3.954,1.939,0.342c0.757,0.135,1.511,0.267,2.27,0.399c-3.107,3.045,3.843,3.997,1.943,0.344
			c0.752,0.133,1.509,0.267,2.269,0.399c-2.512,1.655,1.262,4.335,2.141,2.05c0.338-0.886-0.308-1.238-0.201-1.707
			c0.758,0.135,1.513,0.267,2.27,0.399c-2.437,2.024,1.472,4.272,2.17,1.886c0.239-0.819-0.336-1.081-0.229-1.543
			c0.648,0.113,1.298,0.227,1.945,0.343c0.473,0.32-0.504,0.604-0.555,1.237c-0.236,2.945,4.503,1.517,2.821-0.837
			c0.649,0.112,1.296,0.228,1.942,0.343c0.486,0.252-0.51,0.711-0.551,1.234c-0.241,2.95,4.501,1.517,2.821-0.836
			c0.645,0.115,1.293,0.229,1.941,0.341c0.275,0.442-0.512,0.717-0.552,1.241c-0.146,1.761,2.51,2.542,3.046,0.704
			c0.238-0.819-0.336-1.082-0.227-1.541c0.647,0.112,1.296,0.226,1.944,0.339c0.271,0.442-0.512,0.718-0.555,1.238
			c-0.144,1.763,2.51,2.542,3.047,0.704c0.24-0.817-0.339-1.081-0.229-1.541c0.756,0.133,1.516,0.267,2.271,0.399
			c-2.589,1.737,1.435,4.4,2.169,1.887c0.24-0.82-0.34-1.084-0.229-1.543c0.757,0.133,1.51,0.267,2.269,0.398
			c-3.192,2.855,3.73,4.177,1.942,0.343c0.754,0.132,1.512,0.268,2.265,0.399c-2.558,1.713,1.434,4.42,2.174,1.889
			c0.239-0.821-0.337-1.084-0.227-1.545c0.486,0.085,0.972,0.171,1.456,0.257l0.965-4.637c-16.383-2.937-32.803-5.848-49.242-8.743
			L10.318,210.443z"/>
		<path d="M2.623,247.418l-0.565,2.713C3.256,249.985,3.792,247.908,2.623,247.418z"/>
		<path d="M6.127,248.06c-2.077,0.135-1.441,2.753,0.001,2.838C7.624,250.984,8.242,247.921,6.127,248.06z"/>
		<path d="M10.34,248.802c-2.082,0.137-1.442,2.755,0,2.838C11.832,251.729,12.454,248.661,10.34,248.802z"/>
		<path d="M14.548,249.544c-2.076,0.138-1.441,2.753,0.002,2.84C16.044,252.47,16.664,249.405,14.548,249.544z"/>
		<path d="M18.759,250.286c-2.077,0.137-1.441,2.755,0,2.837C20.254,253.215,20.876,250.147,18.759,250.286z"/>
		<path d="M22.97,251.032c-0.921,0.048-1.295,0.201-1.391,1.254c-0.195,2.118,3.057,2.002,2.867-0.161
			C24.396,251.571,24.036,250.968,22.97,251.032z"/>
		<path d="M27.178,251.772c-0.914,0.052-1.425,0.205-1.418,1.416c0.008,1.864,3.087,1.843,2.895-0.323
			C28.604,252.324,28.225,251.71,27.178,251.772z"/>
		<path d="M31.389,252.515c-2.027,0.117-1.403,2.635-0.159,2.807C32.915,255.561,33.667,252.383,31.389,252.515z"/>
		<path d="M35.599,253.258c-1.943,0.112-1.577,2.599-0.164,2.806C37.035,256.306,37.79,253.128,35.599,253.258z"/>
		<path d="M39.811,253.999c-1.945,0.112-1.577,2.599-0.161,2.81C41.242,257.046,42.001,253.874,39.811,253.999z"/>
		<path d="M44.021,254.741c-1.893,0.123-1.597,2.593-0.162,2.809C45.472,257.792,46.197,254.597,44.021,254.741z"/>
		<path d="M48.231,258.32c1.494,0.09,2.116-2.977,0-2.835C46.151,255.62,46.79,258.24,48.231,258.32z"/>
		<path d="M51.402,258.421l0.427-2.053C50.974,256.74,50.954,257.746,51.402,258.421z"/>
		<path d="M3.48,250.767c-1.162,0.123-1.352,0.588-1.257,1.447c0.173,1.574,3.36,1.418,2.625-0.704
			C4.651,250.933,4.175,250.689,3.48,250.767z"/>
		<path d="M7.688,251.508c-1.158,0.124-1.35,0.588-1.257,1.448c0.177,1.574,3.361,1.419,2.63-0.703
			C8.864,251.673,8.384,251.431,7.688,251.508z"/>
		<path d="M12.06,252.278c-1.394,0.008-1.872,1.732-0.911,2.344C13.045,255.828,14.229,252.268,12.06,252.278z"/>
		<path d="M16.271,253.022c-1.396,0.005-1.876,1.73-0.911,2.342C17.256,256.57,18.44,253.009,16.271,253.022z"/>
		<path d="M20.483,253.763c-3.542,0.017,0.748,4.812,1.256,1.391C21.893,254.142,21.166,253.759,20.483,253.763z"/>
		<path d="M24.532,254.477c-1.161,0.126-1.353,0.589-1.257,1.449c0.174,1.574,3.359,1.419,2.628-0.702
			C25.705,254.644,25.225,254.401,24.532,254.477z"/>
		<path d="M28.741,255.219c-1.161,0.126-1.352,0.589-1.257,1.449c0.175,1.577,3.361,1.42,2.627-0.705
			C29.914,255.384,29.436,255.144,28.741,255.219z"/>
		<path d="M32.951,255.963c-1.161,0.125-1.35,0.587-1.259,1.446c0.177,1.577,3.364,1.42,2.633-0.7
			C34.124,256.128,33.645,255.888,32.951,255.963z"/>
		<path d="M37.161,256.704c-1.163,0.125-1.352,0.591-1.255,1.445c0.175,1.581,3.359,1.421,2.626-0.701
			C38.335,256.87,37.853,256.629,37.161,256.704z"/>
		<path d="M41.372,257.445c-1.162,0.126-1.35,0.592-1.256,1.449c0.173,1.575,3.361,1.421,2.627-0.706
			C42.545,257.612,42.065,257.37,41.372,257.445z"/>
		<path d="M46.952,258.934c-0.197-0.577-0.675-0.82-1.369-0.745c-1.16,0.126-1.353,0.591-1.258,1.448
			C44.5,261.215,47.688,261.056,46.952,258.934z"/>
		<path d="M49.792,258.932c-1.16,0.125-1.351,0.589-1.256,1.448c0.115,1.046,1.556,1.323,2.298,0.773l0.313-1.507
			C50.945,259.094,50.474,258.857,49.792,258.932z"/>
		<path d="M1.351,253.531l-0.484,2.328C2.009,255.728,2.759,253.808,1.351,253.531z"/>
		<path d="M5.204,254.24c-1.352,0.002-1.661,1.69-0.885,2.184C5.9,257.423,7.462,254.242,5.204,254.24z"/>
		<path d="M9.413,254.981c-1.351,0.002-1.66,1.693-0.886,2.185C10.112,258.169,11.673,254.983,9.413,254.981z"/>
		<path d="M13.623,255.726c-1.35,0.001-1.66,1.688-0.883,2.184C14.323,258.909,15.879,255.727,13.623,255.726z"/>
		<path d="M17.833,256.467c-2.05,0.017-1.28,2.468,0.09,2.353C19.239,258.713,19.287,256.456,17.833,256.467z"/>
		<path d="M22.044,257.208c-0.816,0.01-1.314,0.098-1.359,1.102c-0.082,1.83,2.765,1.537,2.543-0.227
			C23.182,257.731,22.827,257.206,22.044,257.208z"/>
		<path d="M26.253,257.952c-0.812,0.004-1.313,0.097-1.361,1.097c-0.078,1.835,2.768,1.538,2.546-0.221
			C27.394,258.475,27.039,257.948,26.253,257.952z"/>
		<path d="M30.465,258.694c-0.817,0.006-1.317,0.098-1.361,1.099c-0.08,1.835,2.766,1.538,2.544-0.223
			C31.604,259.216,31.249,258.692,30.465,258.694z"/>
		<path d="M34.679,259.438c-0.82,0.006-1.319,0.096-1.365,1.096c-0.078,1.835,2.764,1.535,2.544-0.221
			C35.812,259.958,35.458,259.435,34.679,259.438z"/>
		<path d="M38.885,260.181c-1.352-0.002-1.653,1.694-0.886,2.179C39.585,263.366,41.135,260.185,38.885,260.181z"/>
		<path d="M43.098,260.923c-1.353,0-1.654,1.693-0.889,2.182C43.795,264.107,45.345,260.927,43.098,260.923z"/>
		<path d="M47.306,261.665c-1.352,0.002-1.66,1.69-0.884,2.181C48.004,264.849,49.565,261.667,47.306,261.665z"/>
		<path d="M50.462,262.94c-0.216,0.311-0.287,0.702-0.217,1.043L50.462,262.94z"/>
		<path d="M24.628,261.508c-0.059-0.873-0.617-0.861-1.021-0.849C20.255,260.739,24.868,265.022,24.628,261.508z"/>
		<path d="M2.044,257.022c-1.16,0.471-0.512,1.812-0.181,1.973C3.864,259.968,4.108,256.184,2.044,257.022z"/>
		<path d="M6.254,257.768c-1.161,0.469-0.513,1.81-0.183,1.97C8.071,260.709,8.319,256.926,6.254,257.768z"/>
		<path d="M10.463,258.508c-1.157,0.471-0.511,1.812-0.181,1.971C12.282,261.452,12.528,257.669,10.463,258.508z"/>
		<path d="M16.341,260.213c-0.018-0.669-0.811-1.313-1.666-0.96C12.301,260.214,16.408,262.907,16.341,260.213z"/>
		<path d="M20.244,261.735c0.731-1.032-0.353-2.149-1.358-1.742C17.081,260.72,19.345,263.009,20.244,261.735z"/>
		<path d="M28.669,263.218c0.727-1.031-0.361-2.146-1.365-1.74C25.484,262.215,27.753,264.514,28.669,263.218z"/>
		<path d="M32.877,263.962c0.733-1.035-0.358-2.148-1.362-1.74C29.693,262.958,31.962,265.255,32.877,263.962z"/>
		<path d="M35.724,262.962c-1.156,0.473-0.511,1.812-0.18,1.972C37.543,265.906,37.79,262.123,35.724,262.962z"/>
		<path d="M39.937,263.706c-1.16,0.468-0.513,1.811-0.181,1.968C41.755,266.65,42.001,262.866,39.937,263.706z"/>
		<path d="M44.144,264.449c-1.156,0.47-0.509,1.811-0.177,1.969C45.966,267.392,46.212,263.608,44.144,264.449z"/>
		<path d="M48.354,265.188c-1.156,0.472-0.509,1.812-0.179,1.971c0.804,0.392,1.317,0.014,1.519-0.522l0.095-0.455
			C49.819,265.477,49.364,264.778,48.354,265.188z"/>
		<path d="M0.554,259.767c-0.047-0.033-0.237-0.088-0.482-0.091L0,260.02l0.883,0.184C0.837,260.04,0.737,259.888,0.554,259.767z"/>
		<path d="M3.765,260.5c-0.166,0.062-0.318,0.125-0.443,0.21l1.801,0.375c-0.017-0.217-0.121-0.421-0.355-0.576
			C4.688,260.456,4.249,260.321,3.765,260.5z"/>
		<path d="M8.978,261.25c-0.08-0.053-0.517-0.184-1-0.008c-0.229,0.085-0.433,0.174-0.573,0.317l1.923,0.399
			C9.351,261.693,9.259,261.437,8.978,261.25z"/>
		<path d="M13.188,261.992c-0.08-0.054-0.517-0.186-0.999-0.007c-0.284,0.104-0.53,0.216-0.662,0.432l1.996,0.415
			C13.594,262.521,13.516,262.21,13.188,261.992z"/>
		<path d="M17.399,262.735c-0.082-0.053-0.52-0.186-1.003-0.009c-0.333,0.122-0.613,0.252-0.718,0.554l2.014,0.419
			C17.817,263.349,17.771,262.982,17.399,262.735z"/>
		<path d="M20.444,263.441c-0.339,0.131-0.517,0.409-0.561,0.714l1.953,0.406C21.959,263.871,21.488,263.037,20.444,263.441z"/>
		<path d="M24.821,264.211c-0.459,0.115-0.689,0.459-0.722,0.821l1.906,0.396C26.243,264.784,25.922,263.938,24.821,264.211z"/>
		<path d="M29.027,264.954c-0.515,0.128-0.748,0.544-0.728,0.952l1.864,0.387C30.493,265.642,30.202,264.662,29.027,264.954z"/>
		<path d="M33.24,265.696c-0.8,0.199-0.88,0.681-0.646,1.103l1.805,0.375c0.065-0.11,0.121-0.239,0.154-0.41
			C34.733,265.831,34.077,265.486,33.24,265.696z"/>
		<path d="M37.448,266.44c-0.896,0.226-0.881,0.806-0.535,1.257l1.617,0.336c0.103-0.124,0.186-0.292,0.23-0.527
			C38.938,266.601,38.296,266.225,37.448,266.44z"/>
		<path d="M42.658,267.189c-0.078-0.054-0.516-0.186-0.999-0.009c-0.511,0.189-0.912,0.384-0.715,1.209l0.055,0.157l1.449,0.302
			C42.985,268.414,43.307,267.62,42.658,267.189z"/>
		<path d="M3.218,244.561c0.122,0.023,0.24,0.041,0.347,0.041c0.385,0.325-0.39,0.692-0.524,1.076
			c-0.88,2.538,4.645,2.429,2.764-0.513c0.395-0.315,1.354,0.177,1.97,0.181c0.39,0.334-0.384,0.676-0.521,1.075
			c-0.886,2.547,4.662,2.403,2.761-0.515c0.397-0.313,1.355,0.176,1.973,0.18c0.384,0.328-0.395,0.691-0.525,1.075
			c-0.879,2.538,4.645,2.43,2.765-0.512c0.396-0.315,1.354,0.178,1.972,0.179c0.386,0.326-0.391,0.693-0.523,1.076
			c-0.882,2.536,4.642,2.427,2.76-0.515c0.397-0.312,1.357,0.179,1.973,0.182c0.386,0.325-0.388,0.691-0.523,1.074
			c-0.877,2.536,4.645,2.429,2.762-0.513c0.396-0.312,1.353,0.178,1.974,0.181c0.32,0.467-0.505,0.568-0.551,1.24
			c-0.188,2.515,4.262,2.027,2.79-0.678c0.393-0.314,1.352,0.178,1.971,0.181c0.32,0.467-0.505,0.569-0.553,1.235
			c-0.187,2.519,4.264,2.032,2.792-0.672c0.395-0.314,1.354,0.175,1.97,0.177c0.323,0.471-0.501,0.571-0.549,1.241
			c-0.19,2.515,4.264,2.028,2.787-0.678c0.396-0.313,1.357,0.178,1.974,0.179c0.321,0.468-0.505,0.571-0.555,1.239
			c-0.186,2.517,4.27,2.029,2.791-0.676c0.396-0.312,1.356,0.177,1.972,0.183c0.386,0.324-0.389,0.69-0.522,1.073
			c-0.882,2.538,4.645,2.428,2.762-0.513c0.396-0.314,1.357,0.179,1.973,0.18c0.39,0.335-0.386,0.676-0.524,1.077
			c-0.886,2.547,4.668,2.402,2.763-0.515c0.396-0.315,1.356,0.178,1.973,0.181c0.388,0.336-0.388,0.675-0.525,1.075
			c-0.59,1.702,1.682,2.195,2.694,1.472l0.316-1.52c-0.062-0.146-0.14-0.3-0.247-0.465c0.093-0.074,0.22-0.101,0.364-0.102
			l0.973-4.673c-16.421-2.895-32.841-5.79-49.261-8.686L3.218,244.561z"/>
		<path d="M145.49,178.687c-1.186,0.062-1.326,0.562-1.391,1.257c-0.157,1.721,2.838,2.358,2.838,0.004
			C146.939,178.97,146.311,178.646,145.49,178.687z"/>
		<path d="M149.702,179.429c-1.187,0.062-1.33,0.561-1.39,1.258c-0.159,1.72,2.833,2.358,2.835,0
			C151.149,179.711,150.519,179.389,149.702,179.429z"/>
		<path d="M153.208,180.294c-0.547,0.199-0.641,0.611-0.688,1.134c-0.083,0.902,0.701,1.501,1.466,1.532L153.208,180.294z"/>
		<path d="M138.633,180.651c-1.038,0.058-1.865,1.346-1.05,2.149C139.491,184.683,141.159,180.503,138.633,180.651z"/>
		<path d="M142.843,181.39c-1.037,0.063-1.864,1.348-1.05,2.154C143.701,185.425,145.37,181.242,142.843,181.39z"/>
		<path d="M147.054,182.137c-1.025,0.062-1.868,1.344-1.047,2.152C147.912,186.167,149.603,181.972,147.054,182.137z"/>
		<path d="M151.265,182.875c-1.041,0.066-1.849,1.37-1.048,2.156C152.102,186.875,153.664,182.731,151.265,182.875z"/>
		<path d="M154.826,185.842l-0.513-1.756C153.938,184.593,154.279,185.383,154.826,185.842z"/>
		<path d="M136.147,183.383c-3.442-0.033,0.817,4.556,1.123,1.199C137.351,183.722,136.639,183.388,136.147,183.383z"/>
		<path d="M140.358,184.126c-3.446-0.036,0.818,4.556,1.121,1.2C141.561,184.464,140.851,184.131,140.358,184.126z"/>
		<path d="M144.57,184.868c-3.447-0.035,0.814,4.555,1.122,1.199C145.771,185.206,145.059,184.874,144.57,184.868z"/>
		<path d="M148.778,185.61c-3.445-0.035,0.819,4.557,1.127,1.2C149.983,185.948,149.27,185.618,148.778,185.61z"/>
		<path d="M154.083,187.715c0.179-0.908-0.294-1.34-1.096-1.36C149.59,186.258,153.49,190.752,154.083,187.715z"/>
		<path d="M129.29,185.348c-3.402,0.084,1.246,4.351,1.019,0.847C130.249,185.344,129.687,185.336,129.29,185.348z"/>
		<path d="M133.499,186.087c-3.4,0.087,1.249,4.353,1.021,0.852C134.461,186.085,133.896,186.077,133.499,186.087z"/>
		<path d="M138.73,187.681c-0.058-0.853-0.627-0.858-1.02-0.85C134.308,186.916,138.957,191.183,138.73,187.681z"/>
		<path d="M142.939,188.422c-0.059-0.872-0.618-0.854-1.02-0.85C138.544,187.633,143.171,191.94,142.939,188.422z"/>
		<path d="M147.149,189.165c-0.057-0.875-0.62-0.855-1.02-0.851C142.757,188.373,147.381,192.681,147.149,189.165z"/>
		<path d="M149.11,190.344c0.161,1.344,2.728,1.099,2.277-0.6c-0.18-0.687-0.873-0.885-1.561-0.609
			C149.013,189.461,149.061,189.911,149.11,190.344z"/>
		<path d="M155.598,190.488c-0.183-0.694-0.874-0.891-1.562-0.609C151.124,191.056,156.368,193.39,155.598,190.488z"/>
		<path d="M126.125,188.13c-1.044,0.396-0.522,1.776,0.332,1.896C127.801,190.211,128.19,187.347,126.125,188.13z"/>
		<path d="M130.339,188.872c-1.044,0.394-0.527,1.777,0.332,1.896C132.013,190.951,132.399,188.089,130.339,188.872z"/>
		<path d="M134.882,191.512c1.341,0.185,1.727-2.68-0.334-1.895C133.501,190.01,134.021,191.392,134.882,191.512z"/>
		<path d="M140.292,191.128c-0.033-0.34-0.385-1.213-1.535-0.771C136.418,191.254,140.527,193.53,140.292,191.128z"/>
		<path d="M144.502,191.873c-0.032-0.343-0.386-1.214-1.533-0.773C140.626,191.994,144.737,194.273,144.502,191.873z"/>
		<path d="M148.712,192.611c-0.035-0.338-0.384-1.211-1.535-0.77C144.838,192.736,148.948,195.016,148.712,192.611z"/>
		<path d="M151.388,192.584c-1.042,0.395-0.521,1.777,0.338,1.895C153.064,194.665,153.451,191.801,151.388,192.584z"/>
		<path d="M155.598,193.327c-1.042,0.393-0.525,1.776,0.332,1.896C157.276,195.407,157.663,192.544,155.598,193.327z"/>
		<path d="M119.433,190.121c-2.226,0.729,1.37,2.887,1.207,0.716C120.6,190.269,120.286,189.84,119.433,190.121z"/>
		<path d="M123.64,190.862c-2.222,0.73,1.372,2.886,1.212,0.716C124.81,191.012,124.497,190.581,123.64,190.862z"/>
		<path d="M129.006,192.645c0.217-0.896-0.453-1.27-1.155-1.041C126.077,192.19,128.57,194.439,129.006,192.645z"/>
		<path d="M133.216,193.386c0.215-0.896-0.451-1.27-1.155-1.038C130.288,192.931,132.778,195.182,133.216,193.386z"/>
		<path d="M137.425,194.128c0.218-0.894-0.45-1.268-1.153-1.04C134.497,193.674,136.989,195.923,137.425,194.128z"/>
		<path d="M141.638,194.87c0.213-0.877-0.45-1.27-1.155-1.037C138.708,194.419,141.201,196.664,141.638,194.87z"/>
		<path d="M145.847,195.612c0.21-0.879-0.449-1.271-1.153-1.037C142.919,195.162,145.411,197.406,145.847,195.612z"/>
		<path d="M150.112,196.031c-0.042-0.578-0.357-0.994-1.209-0.716C146.681,196.054,150.276,198.21,150.112,196.031z"/>
		<path d="M154.321,196.773c-0.039-0.566-0.352-0.994-1.208-0.713C150.889,196.791,154.485,198.945,154.321,196.773z"/>
		<path d="M157.324,196.801c-1.933,0.636,0.52,2.34,1.096,1.357l-0.414-1.418C157.831,196.697,157.61,196.706,157.324,196.801z"/>
		<path d="M113.68,192.444c-0.239-0.726-0.576-0.519-1.106-0.36C110.318,192.741,114.425,194.734,113.68,192.444z"/>
		<path d="M117.89,193.188c-0.232-0.723-0.58-0.522-1.105-0.363C114.562,193.489,118.624,195.485,117.89,193.188z"/>
		<path d="M122.099,193.93c-0.23-0.723-0.576-0.52-1.105-0.359C118.772,194.232,122.834,196.227,122.099,193.93z"/>
		<path d="M126.311,194.674c-0.233-0.724-0.58-0.522-1.107-0.361C122.98,194.976,127.042,196.972,126.311,194.674z"/>
		<path d="M129.413,195.053c-2.22,0.665,1.841,2.66,1.105,0.362C130.288,194.69,129.944,194.896,129.413,195.053z"/>
		<path d="M133.623,195.797c-2.218,0.664,1.842,2.657,1.107,0.361C134.497,195.435,134.152,195.637,133.623,195.797z"/>
		<path d="M138.938,196.9c-0.232-0.73-0.598-0.513-1.103-0.361C135.664,197.179,139.675,199.209,138.938,196.9z"/>
		<path d="M143.147,197.642c-0.229-0.73-0.595-0.511-1.104-0.358C139.873,197.922,143.887,199.951,143.147,197.642z"/>
		<path d="M147.358,198.385c-0.23-0.731-0.597-0.512-1.104-0.361C144.084,198.664,148.099,200.692,147.358,198.385z"/>
		<path d="M151.572,199.126c-0.235-0.73-0.599-0.512-1.106-0.36C148.298,199.405,152.309,201.435,151.572,199.126z"/>
		<path d="M155.781,199.869c-0.234-0.73-0.597-0.512-1.105-0.36C152.508,200.147,156.52,202.177,155.781,199.869z"/>
		<path d="M159.448,201.682l-0.43-1.473l-0.134,0.042C157.497,200.659,158.638,201.633,159.448,201.682z"/>
		<path d="M111.528,207.483c-0.527,0.541-0.916,0.598-0.935,1.506c-0.055,2.835,4.745,0.754,2.716-1.19
			c0.809,0.142,1.619,0.284,2.43,0.428c-0.495,0.52-0.917,0.686-0.933,1.505c-0.067,2.838,4.748,0.751,2.713-1.191
			c0.809,0.142,1.619,0.285,2.429,0.428c-0.497,0.521-0.916,0.689-0.935,1.507c-0.063,2.84,4.749,0.751,2.718-1.191
			c0.811,0.143,1.619,0.283,2.427,0.427c-0.491,0.522-0.92,0.688-0.932,1.507c-0.043,2.809,4.741,0.768,2.715-1.192
			c0.808,0.143,1.619,0.287,2.427,0.428c-0.492,0.52-0.92,0.688-0.932,1.504c-0.043,2.813,4.74,0.77,2.716-1.189
			c0.808,0.144,1.618,0.285,2.426,0.428c-0.491,0.521-0.922,0.688-0.934,1.506c-0.046,2.811,4.743,0.766,2.714-1.191
			c0.812,0.146,1.621,0.288,2.43,0.429c-3.303,2.904,3.67,4.213,1.945,0.342c0.756,0.133,1.511,0.271,2.268,0.4
			c-2.688,1.668,1.271,4.414,2.141,2.046c0.256-0.692-0.377-1.28-0.198-1.703c0.755,0.132,1.511,0.267,2.267,0.401
			c-2.685,1.667,1.271,4.413,2.143,2.045c0.256-0.694-0.377-1.283-0.197-1.705c0.757,0.136,1.509,0.27,2.265,0.401
			c-2.686,1.668,1.271,4.414,2.143,2.048c0.257-0.693-0.378-1.283-0.198-1.706c0.756,0.135,1.51,0.267,2.267,0.399
			c-2.813,1.797,1.644,4.566,2.202,1.725c0.109-0.568-0.452-0.992-0.258-1.38c0.755,0.134,1.511,0.266,2.266,0.4
			c-2.814,1.794,1.645,4.562,2.2,1.723c0.112-0.57-0.448-0.995-0.256-1.382c0.755,0.134,1.511,0.268,2.269,0.403
			c-2.811,1.788,1.619,4.547,2.193,1.735l-1.902-6.52c-18.322-3.216-36.635-6.438-54.91-9.686l1.971,6.753
			c0.289-0.468,0.293-1.05-0.306-1.624C109.909,207.198,110.716,207.341,111.528,207.483z"/>
		<path d="M109.852,210.209l0.678,2.324C111.087,211.775,110.943,210.368,109.852,210.209z"/>
		<path d="M113.416,210.988c-1.96,0.461-1.016,2.875,0.513,2.76C115.466,213.64,115.579,210.479,113.416,210.988z"/>
		<path d="M117.622,211.731c-1.957,0.461-1.012,2.875,0.518,2.761C119.673,214.381,119.793,211.222,117.622,211.731z"/>
		<path d="M121.836,212.475c-1.958,0.46-1.011,2.873,0.515,2.757C123.884,215.123,124,211.964,121.836,212.475z"/>
		<path d="M126.206,213.243c-2.156,0.291-1.246,2.852,0.355,2.733C128.021,215.869,128.243,212.968,126.206,213.243z"/>
		<path d="M130.417,213.987c-2.151,0.292-1.252,2.851,0.355,2.731C132.231,216.612,132.452,213.711,130.417,213.987z"/>
		<path d="M134.629,214.729c-2.154,0.293-1.252,2.851,0.353,2.734C136.442,217.354,136.665,214.452,134.629,214.729z"/>
		<path d="M138.837,215.471c-2.26,0.307-1.147,3.032,0.516,2.762C140.733,218.013,140.761,215.211,138.837,215.471z"/>
		<path d="M143.048,216.213c-2.259,0.308-1.15,3.031,0.516,2.762C144.943,218.752,144.971,215.952,143.048,216.213z"/>
		<path d="M147.259,216.955c-2.234,0.316-1.16,3.031,0.517,2.762C149.146,219.498,149.19,216.688,147.259,216.955z"/>
		<path d="M151.47,217.698c-2.234,0.315-1.163,3.033,0.516,2.761C153.354,220.238,153.4,217.428,151.47,217.698z"/>
		<path d="M155.678,218.439c-2.231,0.314-1.16,3.034,0.518,2.763C157.565,220.983,157.611,218.169,155.678,218.439z"/>
		<path d="M159.891,219.182c-3.265,0.459,0.864,4.894,1.552,1.61C161.692,219.59,160.891,219.043,159.891,219.182z"/>
		<path d="M164.101,219.926c-3.086,0.436,0.328,4.137,1.335,2.276l-0.661-2.266C164.571,219.895,164.345,219.891,164.101,219.926z"
			/>
		<path d="M110.93,213.723l-0.049,0.015l0.693,2.376C112.645,215.562,112.897,213.441,110.93,213.723z"/>
		<path d="M114.872,216.923c1.727,0.568,2.719-2.808,0.27-2.457C113.421,214.711,114.079,216.662,114.872,216.923z"/>
		<path d="M119.35,215.208c-1.728,0.247-1.058,2.196-0.267,2.457C120.81,218.234,121.798,214.859,119.35,215.208z"/>
		<path d="M123.56,215.951c-1.739,0.257-1.047,2.201-0.267,2.457C125.024,218.979,126.01,215.586,123.56,215.951z"/>
		<path d="M127.77,216.693c-1.739,0.257-1.049,2.201-0.265,2.457C129.227,219.719,130.229,216.327,127.77,216.693z"/>
		<path d="M131.981,217.435c-1.757,0.261-1.028,2.208-0.268,2.458C133.472,220.474,134.503,217.062,131.981,217.435z"/>
		<path d="M136.19,218.176c-3.373,0.502,1.362,4.583,1.607,1.287C137.853,218.77,137.436,217.99,136.19,218.176z"/>
		<path d="M140.401,218.919c-3.374,0.501,1.358,4.582,1.608,1.285C142.06,219.508,141.646,218.734,140.401,218.919z"/>
		<path d="M144.61,219.661c-1.534,0.241-1.388,2.355,0.057,2.517C146.195,222.348,146.743,219.328,144.61,219.661z"/>
		<path d="M148.821,220.405c-1.738,0.256-1.044,2.201-0.267,2.458C150.287,223.433,151.271,220.041,148.821,220.405z"/>
		<path d="M153.032,221.147c-1.741,0.258-1.047,2.2-0.268,2.457C154.496,224.177,155.479,220.782,153.032,221.147z"/>
		<path d="M157.241,221.888c-1.738,0.258-1.046,2.204-0.268,2.459C158.708,224.918,159.69,221.525,157.241,221.888z"/>
		<path d="M161.45,222.631c-1.736,0.257-1.045,2.201-0.264,2.458C162.91,225.657,163.911,222.267,161.45,222.631z"/>
		<path d="M165.664,223.373c-1.741,0.257-1.048,2.2-0.267,2.459c0.404,0.133,0.764,0.046,1.053-0.153l-0.676-2.312L165.664,223.373z
			"/>
		<path d="M113.909,218.592c0.207-0.92-0.229-1.651-1.417-1.421c-0.231,0.045-0.403,0.116-0.552,0.198l0.627,2.147
			C113.111,219.717,113.693,219.551,113.909,218.592z"/>
		<path d="M118.122,219.332c0.204-0.917-0.234-1.646-1.418-1.419C113.927,218.452,117.506,222.059,118.122,219.332z"/>
		<path d="M122.385,219.75c0.002-0.846-0.636-1.264-1.474-1.094C117.851,219.267,122.386,223.013,122.385,219.75z"/>
		<path d="M126.598,220.492c0-0.848-0.636-1.262-1.476-1.093C122.06,220.01,126.598,223.754,126.598,220.492z"/>
		<path d="M130.806,221.235c0.004-0.848-0.636-1.264-1.475-1.096C126.274,220.75,130.81,224.496,130.806,221.235z"/>
		<path d="M135.018,221.979c0.009-0.667-0.277-1.339-1.475-1.097C130.441,221.507,134.994,225.183,135.018,221.979z"/>
		<path d="M139.229,222.72c0.006-0.667-0.278-1.337-1.474-1.095C134.654,222.252,139.204,225.927,139.229,222.72z"/>
		<path d="M143.438,223.464c0.01-0.667-0.277-1.337-1.476-1.097C138.863,222.992,143.414,226.67,143.438,223.464z"/>
		<path d="M146.174,223.109c-1.817,0.354-0.778,2.372,0.245,2.382C147.8,225.507,148.276,222.701,146.174,223.109z"/>
		<path d="M151.802,225.272c0.205-0.918-0.229-1.651-1.418-1.419C147.609,224.389,151.188,227.997,151.802,225.272z"/>
		<path d="M156.013,226.013c0.205-0.918-0.231-1.647-1.418-1.417C151.819,225.134,155.399,228.739,156.013,226.013z"/>
		<path d="M160.226,226.758c0.204-0.92-0.234-1.652-1.422-1.42C156.03,225.875,159.61,229.481,160.226,226.758z"/>
		<path d="M163.014,226.081c-3.061,0.61,1.477,4.356,1.479,1.093C164.49,226.325,163.854,225.91,163.014,226.081z"/>
		<path d="M167.47,229.173l-0.65-2.227C165.48,227.474,166.483,228.875,167.47,229.173z"/>
		<path d="M115.367,221.685c0.063-0.872-0.522-1.127-1.152-1.038C111.429,221.038,115.164,224.65,115.367,221.685z"/>
		<path d="M119.577,222.43c0.055-0.803-0.51-1.132-1.152-1.04C115.65,221.792,119.374,225.389,119.577,222.43z"/>
		<path d="M123.787,223.17c0.058-0.801-0.513-1.132-1.15-1.038C119.86,222.533,123.587,226.131,123.787,223.17z"/>
		<path d="M127.998,223.914c0.056-0.803-0.511-1.132-1.15-1.039C124.068,223.274,127.796,226.875,127.998,223.914z"/>
		<path d="M132.212,224.656c0.051-0.801-0.514-1.13-1.156-1.039C128.279,224.016,132.007,227.617,132.212,224.656z"/>
		<path d="M136.42,225.4c0.055-0.805-0.513-1.135-1.152-1.041C132.522,224.754,136.221,228.355,136.42,225.4z"/>
		<path d="M140.628,226.142c0.058-0.801-0.509-1.132-1.15-1.039C136.731,225.497,140.429,229.098,140.628,226.142z"/>
		<path d="M144.84,226.882c0.057-0.8-0.511-1.13-1.153-1.038C140.943,226.238,144.639,229.841,144.84,226.882z"/>
		<path d="M149.051,227.624c0.058-0.868-0.525-1.125-1.151-1.039C145.09,226.978,148.849,230.604,149.051,227.624z"/>
		<path d="M153.261,228.367c0.06-0.871-0.523-1.128-1.153-1.04C149.3,227.721,153.059,231.343,153.261,228.367z"/>
		<path d="M157.473,229.108c0.062-0.871-0.526-1.125-1.155-1.038C153.532,228.462,157.268,232.079,157.473,229.108z"/>
		<path d="M161.681,229.852c0.056-0.8-0.514-1.132-1.15-1.038C157.756,229.213,161.479,232.814,161.681,229.852z"/>
		<path d="M165.891,230.595c0.057-0.802-0.511-1.132-1.148-1.038C161.962,229.958,165.688,233.557,165.891,230.595z"/>
		<path d="M167.975,230.904c-0.109,0.324,0.034,0.707,0.298,1.021L167.975,230.904z"/>
		<path d="M115.777,224.095c-1.456,0.184-0.997,1.886-0.019,2.001C116.922,226.229,117.425,223.887,115.777,224.095z"/>
		<path d="M119.97,226.837c1.161,0.134,1.662-2.208,0.021-2.001C118.535,225.021,118.991,226.724,119.97,226.837z"/>
		<path d="M124.198,225.576c-1.453,0.187-0.996,1.889-0.018,2.005C125.34,227.714,125.847,225.372,124.198,225.576z"/>
		<path d="M128.41,226.321c-1.456,0.185-1,1.89-0.021,2.001C129.553,228.455,130.056,226.114,128.41,226.321z"/>
		<path d="M132.62,227.062c-1.453,0.187-0.995,1.889-0.021,2.004C133.763,229.198,134.264,226.855,132.62,227.062z"/>
		<path d="M136.829,227.808c-1.453,0.181-0.995,1.89-0.017,1.998C137.973,229.942,138.476,227.599,136.829,227.808z"/>
		<path d="M141.042,228.548c-1.457,0.185-0.999,1.89-0.021,2.002C142.185,230.684,142.685,228.342,141.042,228.548z"/>
		<path d="M145.25,229.29c-1.448,0.177-1.005,1.888-0.019,2.003C146.339,231.42,146.895,229.094,145.25,229.29z"/>
		<path d="M149.461,230.033c-1.449,0.185-1.002,1.896-0.019,2.002C150.575,232.157,151.112,229.826,149.461,230.033z"/>
		<path d="M153.671,230.775c-1.454,0.185-0.998,1.889-0.021,2.003C154.814,232.91,155.318,230.567,153.671,230.775z"/>
		<path d="M157.881,231.52c-1.456,0.183-0.997,1.888-0.02,2C159.026,233.651,159.528,231.31,157.881,231.52z"/>
		<path d="M162.093,232.262c-1.457,0.182-0.997,1.887-0.021,1.999C163.235,234.395,163.738,232.053,162.093,232.262z"/>
		<path d="M166.304,233.002c-1.455,0.186-1,1.889-0.021,2.001C167.445,235.138,167.948,232.795,166.304,233.002z"/>
		<path d="M117.339,227.545c-1.949,0.354,0.202,2.903,0.937,1.333C118.704,227.953,117.943,227.432,117.339,227.545z"/>
		<path d="M122.484,229.617c0.43-0.921-0.332-1.441-0.934-1.33C119.603,228.641,121.749,231.193,122.484,229.617z"/>
		<path d="M126.696,230.362c0.429-0.924-0.332-1.444-0.934-1.333C123.81,229.384,125.962,231.934,126.696,230.362z"/>
		<path d="M130.904,231.104c0.43-0.925-0.33-1.444-0.933-1.332C128.023,230.124,130.172,232.678,130.904,231.104z"/>
		<path d="M135.114,231.847c0.429-0.922-0.328-1.446-0.933-1.333C132.249,230.876,134.378,233.423,135.114,231.847z"/>
		<path d="M139.326,232.588c0.427-0.921-0.329-1.445-0.935-1.331C136.458,231.616,138.59,234.165,139.326,232.588z"/>
		<path d="M143.534,233.332c0.428-0.919-0.383-1.438-0.932-1.333C140.658,232.358,142.809,234.899,143.534,233.332z"/>
		<path d="M146.813,232.741c-0.616,0.112-1.103,0.106-0.879,1.18C146.396,236.113,149.425,232.248,146.813,232.741z"/>
		<path d="M151.021,233.485c-0.609,0.109-1.104,0.107-0.875,1.178C150.628,236.896,153.63,232.991,151.021,233.485z"/>
		<path d="M156.167,235.56c0.432-0.926-0.33-1.445-0.936-1.334C153.282,234.581,155.433,237.13,156.167,235.56z"/>
		<path d="M160.38,236.302c0.428-0.925-0.333-1.444-0.937-1.333C157.493,235.32,159.641,237.873,160.38,236.302z"/>
		<path d="M164.587,237.044c0.431-0.925-0.332-1.445-0.931-1.333C161.703,236.064,163.854,238.615,164.587,237.044z"/>
		<path d="M168.796,237.788c0.434-0.927-0.329-1.447-0.931-1.336C165.915,236.806,168.064,239.36,168.796,237.788z"/>
		<path d="M119.676,232.296c0.642-0.832-0.496-1.273-0.614-1.275C117.25,230.937,118.776,233.458,119.676,232.296z"/>
		<path d="M123.887,233.04c0.643-0.832-0.495-1.272-0.612-1.278C121.477,231.689,122.979,234.209,123.887,233.04z"/>
		<path d="M128.097,233.78c0.643-0.829-0.491-1.272-0.612-1.277C125.688,232.429,127.189,234.949,128.097,233.78z"/>
		<path d="M132.306,234.522c0.644-0.83-0.49-1.274-0.61-1.276C129.902,233.18,131.396,235.699,132.306,234.522z"/>
		<path d="M136.514,235.263c0.597-0.776-0.397-1.291-0.606-1.274C134.221,234.133,135.639,236.413,136.514,235.263z"/>
		<path d="M140.725,236.007c0.598-0.776-0.397-1.293-0.606-1.275C138.433,234.873,139.852,237.157,140.725,236.007z"/>
		<path d="M144.938,236.75c0.641-0.829-0.494-1.271-0.611-1.276C142.511,235.389,144.037,237.914,144.938,236.75z"/>
		<path d="M149.147,237.493c0.644-0.832-0.495-1.272-0.609-1.275C146.721,236.132,148.247,238.653,149.147,237.493z"/>
		<path d="M153.358,238.235c0.642-0.831-0.494-1.272-0.611-1.276C150.933,236.873,152.454,239.397,153.358,238.235z"/>
		<path d="M157.565,238.978c0.646-0.831-0.493-1.272-0.608-1.276C155.142,237.615,156.668,240.139,157.565,238.978z"/>
		<path d="M161.778,239.719c0.643-0.829-0.494-1.27-0.611-1.273C159.353,238.36,160.878,240.881,161.778,239.719z"/>
		<path d="M165.987,240.463c0.644-0.832-0.493-1.271-0.611-1.275C163.58,239.111,165.083,241.632,165.987,240.463z"/>
		<path d="M170.197,241.205c0.646-0.83-0.492-1.271-0.608-1.277C167.79,239.855,169.294,242.374,170.197,241.205z"/>
		<path d="M123.763,250.771c-1.504,0.368-1.265,2.515,0.191,2.704C125.718,253.705,126.235,250.168,123.763,250.771z"/>
		<path d="M127.974,251.514c-1.506,0.367-1.264,2.517,0.189,2.704C129.925,254.446,130.445,250.91,127.974,251.514z"/>
		<path d="M132.186,252.255c-1.507,0.368-1.267,2.518,0.189,2.705C134.136,255.189,134.656,251.651,132.186,252.255z"/>
		<path d="M136.394,252.999c-1.506,0.366-1.265,2.518,0.189,2.705C138.349,255.932,138.865,252.395,136.394,252.999z"/>
		<path d="M140.443,253.711c-1.364,0.477-1.075,2.559,0.353,2.735C142.832,256.697,142.843,252.874,140.443,253.711z"/>
		<path d="M144.816,254.482c-1.528,0.381-1.282,2.527,0.187,2.707C146.771,257.405,147.279,253.871,144.816,254.482z"/>
		<path d="M149.026,255.224c-1.507,0.37-1.268,2.518,0.188,2.708C150.978,258.158,151.497,254.621,149.026,255.224z"/>
		<path d="M153.235,255.967c-1.506,0.369-1.265,2.517,0.19,2.707C155.188,258.902,155.706,255.362,153.235,255.967z"/>
		<path d="M157.448,256.709c-1.506,0.369-1.269,2.517,0.188,2.705C159.397,259.643,159.914,256.106,157.448,256.709z"/>
		<path d="M161.657,257.453c-1.504,0.369-1.266,2.515,0.189,2.704C163.609,260.388,164.128,256.849,161.657,257.453z"/>
		<path d="M165.866,258.195c-1.442,0.352-1.265,2.324,0.031,2.654l1.213-0.354C167.892,259.628,167.726,257.74,165.866,258.195z"/>
		<path d="M170.078,258.936c-0.57,0.141-0.888,0.535-0.986,0.981l2.378-0.693C171.207,258.925,170.761,258.77,170.078,258.936z"/>
		<path d="M122.798,254.579c-0.007-0.254-0.073-0.499-0.205-0.7L122.798,254.579z"/>
		<path d="M126.92,254.667c-0.141-0.198-0.705-0.666-1.594-0.448c-1.03,0.257-1.227,0.882-0.961,1.668
			C124.91,257.504,128.168,256.496,126.92,254.667z"/>
		<path d="M129.538,254.96c-1.46,0.36-1.014,1.843-0.562,2.24C130.894,258.872,132.596,254.208,129.538,254.96z"/>
		<path d="M133.748,255.704c-1.458,0.356-1.017,1.845-0.563,2.238C135.104,259.613,136.808,254.949,133.748,255.704z"/>
		<path d="M138.177,258.99c1.59,0.186,2.041-3.086-0.219-2.544C136.554,256.782,136.825,258.832,138.177,258.99z"/>
		<path d="M142.388,259.73c1.57,0.159,2.057-3.078-0.219-2.541C140.725,257.528,140.997,259.592,142.388,259.73z"/>
		<path d="M146.598,260.476c1.571,0.155,2.055-3.081-0.222-2.544C144.938,258.273,145.208,260.333,146.598,260.476z"/>
		<path d="M150.809,261.218c1.568,0.155,2.053-3.08-0.22-2.544C149.146,259.014,149.417,261.075,150.809,261.218z"/>
		<path d="M156.494,260.216c-0.1-0.604-0.846-1.007-1.697-0.802c-0.862,0.212-1.015,0.812-1.037,1.153
			C153.661,262.193,156.89,262.584,156.494,260.216z"/>
		<path d="M159.009,260.157c-1.918,0.475-0.635,2.508,0.547,2.543l0.612-0.179C161.238,261.826,160.847,259.703,159.009,260.157z"/>
		<path d="M163.221,260.9c-0.767,0.191-1.048,0.601-1.045,1.035l2.46-0.718C164.378,260.896,163.923,260.724,163.221,260.9z"/>
		<path d="M123.467,256.873l0.533,1.828C124.357,258.037,124.235,257.055,123.467,256.873z"/>
		<path d="M126.889,257.664c-1.273,0.394-0.931,2.242,0.249,2.383C128.716,260.236,129.021,257.012,126.889,257.664z"/>
		<path d="M131.101,258.408c-1.274,0.393-0.933,2.242,0.25,2.383C132.925,260.982,133.231,257.756,131.101,258.408z"/>
		<path d="M135.31,259.151c-1.273,0.393-0.93,2.24,0.247,2.382C137.136,261.723,137.439,258.496,135.31,259.151z"/>
		<path d="M141.155,261.021c0.043-0.879-0.688-1.424-1.635-1.13C136.896,260.711,141.026,263.999,141.155,261.021z"/>
		<path d="M145.366,261.761c0.041-0.874-0.688-1.418-1.635-1.127C141.108,261.451,145.237,264.739,145.366,261.761z"/>
		<path d="M147.94,261.376c-1.291,0.407-0.965,2.245,0.248,2.383C149.772,263.939,150.062,260.721,147.94,261.376z"/>
		<path d="M152.151,262.121c-1.291,0.402-0.967,2.243,0.248,2.381C153.984,264.682,154.271,261.461,152.151,262.121z"/>
		<path d="M156.361,262.861c-0.523,0.162-0.762,0.569-0.794,1.002l2.152-0.627C157.507,262.86,157.073,262.643,156.361,262.861z"/>
		<path d="M125.806,260.984c-0.138-0.472-0.561-0.896-1.338-0.682l0.607,2.082C125.655,262.373,126.099,262.004,125.806,260.984z"/>
		<path d="M130.015,261.727c-0.152-0.518-0.637-0.985-1.564-0.611C125.603,262.267,130.862,264.673,130.015,261.727z"/>
		<path d="M134.226,262.467c-0.15-0.517-0.635-0.982-1.564-0.607C129.812,263.008,135.072,265.415,134.226,262.467z"/>
		<path d="M136.873,262.602c-1.429,0.566-0.541,2.522,0.792,2.141C138.843,264.404,138.401,261.99,136.873,262.602z"/>
		<path d="M141.08,263.343c-1.425,0.565-0.537,2.523,0.792,2.141C143.056,265.147,142.611,262.734,141.08,263.343z"/>
		<path d="M145.292,264.086c-0.805,0.318-0.895,0.707-0.741,1.371c0.282,1.211,3.131,0.809,2.171-0.953
			C146.431,263.968,145.942,263.824,145.292,264.086z"/>
		<path d="M149.503,264.828c-0.66,0.261-0.836,0.571-0.796,1.037l2.206-0.644C150.62,264.709,150.142,264.572,149.503,264.828z"/>
		<path d="M125.966,263.848c-0.169,0.044-0.301,0.101-0.416,0.162l0.528,1.813C127.146,265.725,128.156,263.288,125.966,263.848z"/>
		<path d="M130.174,264.591c-0.957,0.247-1.013,0.829-0.74,1.372C130.519,268.12,132.991,263.87,130.174,264.591z"/>
		<path d="M134.385,265.334c-0.958,0.247-1.015,0.83-0.74,1.371C134.727,268.865,137.202,264.613,134.385,265.334z"/>
		<path d="M138.595,266.076c-2.467,0.607,1.237,3.364,1.344,0.906C139.967,266.376,139.385,265.879,138.595,266.076z"/>
		<path d="M142.805,266.818c-0.789,0.197-0.947,0.61-0.797,1.002l2.024-0.59C143.833,266.879,143.397,266.671,142.805,266.818z"/>
		<path d="M127.528,267.296c-1.884,0.637,0.952,2.998,1.182,0.874C128.796,267.38,128.201,267.072,127.528,267.296z"/>
		<path d="M131.738,268.038c-1.884,0.636,0.95,2.997,1.183,0.876C133.005,268.12,132.409,267.812,131.738,268.038z"/>
		<path d="M135.947,268.783c-0.624,0.21-0.724,0.61-0.577,0.974l1.73-0.505C136.974,268.771,136.489,268.602,135.947,268.783z"/>
		<path d="M129.09,270.744c-0.811,0.234-0.815,0.656-0.522,0.998l1.66-0.484l-0.031-0.152
			C130.056,270.632,129.618,270.594,129.09,270.744z"/>
		<polygon points="175.768,257.97 175.863,257.941 175.827,257.818 		"/>
		<path d="M174.017,251.612c-18.309-3.212-36.618-6.422-54.9-9.651l1.481,5.079c0.319,0.056,0.637,0.112,0.957,0.169
			c0.28,0.458-0.482,0.629-0.55,1.225l0.369,1.267c1.059,1.035,3.873-0.229,2.446-2.09c0.646,0.113,1.294,0.229,1.942,0.34
			c0.284,0.462-0.495,0.631-0.554,1.238c-0.273,2.905,4.613,1.499,2.823-0.837c0.647,0.115,1.293,0.228,1.942,0.343
			c0.284,0.461-0.496,0.629-0.552,1.236c-0.277,2.904,4.607,1.499,2.818-0.837c0.65,0.115,1.297,0.229,1.942,0.343
			c0.285,0.461-0.494,0.628-0.55,1.236c-0.277,2.907,4.606,1.501,2.818-0.837c0.646,0.113,1.294,0.229,1.943,0.344
			c0.283,0.461-0.495,0.63-0.552,1.236c-0.279,2.924,4.584,1.462,2.818-0.839c0.649,0.116,1.295,0.228,1.942,0.345
			c0.443,0.381-0.478,0.495-0.552,1.236c-0.303,3.021,4.464,1.428,2.819-0.838c0.647,0.113,1.295,0.229,1.945,0.343
			c0.439,0.381-0.481,0.495-0.554,1.237c-0.305,3.02,4.466,1.428,2.819-0.838c0.648,0.116,1.295,0.227,1.94,0.342
			c0.286,0.464-0.493,0.63-0.55,1.24c-0.278,2.925,4.584,1.46,2.821-0.837c0.645,0.112,1.292,0.227,1.944,0.339
			c0.281,0.464-0.497,0.63-0.555,1.238c-0.278,2.926,4.584,1.462,2.817-0.838c0.646,0.115,1.296,0.229,1.945,0.344
			c0.286,0.461-0.496,0.631-0.553,1.238c-0.278,2.923,4.583,1.463,2.816-0.839c0.649,0.114,1.298,0.229,1.945,0.343
			c0.285,0.46-0.493,0.629-0.552,1.236c-0.277,2.908,4.608,1.501,2.82-0.838c0.646,0.116,1.294,0.23,1.943,0.346
			c0.283,0.459-0.496,0.631-0.554,1.234c-0.279,2.905,4.606,1.499,2.82-0.835c0.646,0.113,1.295,0.226,1.941,0.341
			c0.285,0.46-0.495,0.631-0.549,1.239c-0.091,0.938,0.359,1.421,0.947,1.574l1.908-0.558c0.415-0.446,0.538-1.101-0.041-1.854
			c0.391,0.068,0.778,0.137,1.166,0.205L174.017,251.612z"/>
		<path d="M170.392,54.376c-18.436-18.643-48.246-25.292-70.848-27.439l-3.033,14.586l0.293-1.411
			c-1.047,0.319-1.332,1.729-0.479,2.271l0.007,0.003l-0.823,3.956c-0.779,0.387-0.702,0.984-0.299,1.438l0.007-0.03l-1.103,5.297
			l0.06-0.287c-0.188,0.184-0.209,0.384-0.119,0.577L91.453,65.84c-16.371-2.941-32.783-5.854-49.216-8.753l-1.531,7.355
			c0.75,0.321,1.66,0.177,1.965-0.908c0.201-0.714-0.344-1.134-0.228-1.543c0.81,0.142,1.618,0.287,2.429,0.429
			c-2.966,1.415,1.24,4.6,2.011,1.856c0.199-0.715-0.346-1.135-0.23-1.541c0.811,0.142,1.62,0.282,2.43,0.427
			c-2.967,1.417,1.24,4.599,2.01,1.856c0.2-0.712-0.343-1.135-0.229-1.541c0.808,0.142,1.62,0.283,2.429,0.427
			c-2.966,1.415,1.24,4.6,2.01,1.856c0.2-0.713-0.343-1.137-0.227-1.542c0.807,0.143,1.617,0.285,2.428,0.428
			c-2.967,1.405,1.25,4.631,2.012,1.859c0.193-0.716-0.344-1.138-0.23-1.545c0.809,0.144,1.619,0.286,2.43,0.43
			c-2.969,1.404,1.249,4.629,2.01,1.857c0.194-0.718-0.34-1.137-0.23-1.545c0.809,0.145,1.62,0.287,2.43,0.429
			c-2.962,1.41,1.248,4.623,2.011,1.858c0.226-0.823-0.328-1.08-0.229-1.544c0.81,0.142,1.618,0.285,2.432,0.428
			c-2.962,1.41,1.246,4.622,2.01,1.856c0.226-0.819-0.329-1.077-0.23-1.542c0.809,0.143,1.619,0.286,2.428,0.429
			c-2.961,1.41,1.25,4.623,2.012,1.856c0.227-0.82-0.328-1.078-0.23-1.543c0.74,0.238,1.977,0.133,2.4,0.59
			c-2.887,1.354,1.3,4.384,2.042,1.694c0.223-0.818-0.329-1.076-0.229-1.541c0.738,0.236,1.977,0.131,2.397,0.591
			c-2.886,1.352,1.297,4.385,2.04,1.692c0.229-0.819-0.328-1.078-0.227-1.542c0.737,0.239,1.973,0.132,2.399,0.59
			c-2.757,1.607,1.329,4.275,2.037,1.696c0.226-0.819-0.327-1.081-0.226-1.545c0.488,0.158,1.191,0.167,1.736,0.288l0.863-4.152
			l-2.232,10.737c16.474,1.347,47.797,6.519,49.413,25.134c1.355,15.612-7.316,32.385-44.158,42.044
			c-8.932,2.342-16.944,3.938-23.911,5.037c-0.238-0.4-0.66-0.577-1.248-0.516c-0.879,0.095-1.199,0.386-1.262,0.896
			c-0.539,0.079-1.072,0.155-1.598,0.228c0.146-0.28,0.184-0.649,0.021-1.121c-0.195-0.579-0.675-0.819-1.369-0.743
			c-1.161,0.125-1.351,0.588-1.255,1.447c0.033,0.303,0.178,0.54,0.383,0.713c-1.646,0.211-3.219,0.393-4.714,0.55
			c-0.072-0.402-0.402-0.719-1.11-0.72c-0.697-0.001-1.11,0.45-1.246,0.953c-0.713,0.066-1.403,0.127-2.075,0.183
			c0.218-0.244,0.345-0.58,0.292-1.002c-0.045-0.354-0.399-0.881-1.18-0.876c-0.816,0.005-1.318,0.098-1.363,1.097
			c-0.019,0.422,0.122,0.727,0.34,0.931c-1.873,0.137-3.562,0.232-5.064,0.304c-0.311-0.326-0.805-0.484-1.285-0.29
			c-0.242,0.099-0.408,0.226-0.518,0.367c-0.786,0.03-1.512,0.054-2.164,0.074c0.008-0.128,0.017-0.254,0.006-0.413
			c-0.06-0.872-0.618-0.858-1.02-0.847c-1.323,0.03-1.397,0.716-1.026,1.319c-0.864,0.024-1.784,0.051-2.739,0.078
			c0.148-0.057,0.286-0.16,0.401-0.323c0.733-1.032-0.353-2.146-1.359-1.74c-1.303,0.522-0.489,1.851,0.403,2.079
			c-1.906,0.055-3.92,0.111-5.86,0.166c-0.058-0.089-0.13-0.174-0.239-0.246c-0.082-0.054-0.518-0.187-1-0.008
			c-0.225,0.082-0.423,0.169-0.562,0.305c-0.838,0.023-1.648,0.047-2.416,0.068c0.194-0.391,0.189-0.826-0.234-1.107
			c-0.078-0.056-0.517-0.187-0.997-0.008c-0.505,0.186-0.897,0.381-0.723,1.17c-2.558,0.072-4.288,0.12-4.288,0.12l-10.366,49.838
			c0.129,0.002,18.845-0.254,31.61-0.428s34.709-0.518,64.189-9.365c0.028-0.009,0.056-0.018,0.084-0.026
			c0.564,0.522,1.895,0.754,1.585-0.498c1.699-0.528,3.372-1.077,5.021-1.645c0.214,0.772,2.023,1.445,1.908-0.114
			c-0.014-0.188-0.062-0.356-0.145-0.493c1.795-0.641,3.555-1.308,5.288-1.996c-0.548,0.539-0.067,1.577,0.674,1.678
			c1.228,0.168,1.65-2.191,0.146-2.012c0.693-0.28,1.389-0.559,2.071-0.846c0.666,0.558,1.606,0.689,1.628-0.701
			c1.54-0.67,3.05-1.36,4.537-2.068c0.239,1.106,2.226,2.443,2.429,0.188c0.053-0.569-0.242-0.903-0.588-1.069
			c0.411-0.203,0.814-0.411,1.222-0.617c0.366,0.329,0.887,0.483,1.464,0.22c0.557-0.255,0.698-0.782,0.594-1.285
			c1.428-0.755,2.834-1.523,4.207-2.316c-0.032,0.133-0.053,0.275-0.066,0.43c-0.159,1.717,2.836,2.356,2.838,0
			c0.001-0.945-0.594-1.276-1.375-1.258c0.377-0.225,0.752-0.451,1.125-0.679c0.661,1.744,4.216,0.374,2.713-1.635
			c0.652,0.112,1.299,0.226,1.946,0.339c0.311,0.438-0.509,0.628-0.552,1.239c-0.213,2.887,4.507,1.423,2.819-0.838
			c0.647,0.112,1.292,0.227,1.943,0.342c0.313,0.438-0.507,0.628-0.554,1.238c-0.113,1.541,1.176,1.836,2.147,1.438l-2.222-7.617
			c22.191-16.252,35.224-38.483,37.616-65.138C190.176,86.18,183.97,68.108,170.392,54.376z"/>
	</g>
</g>
</svg>
