<?xml version="1.0" encoding="utf-8"?>
<!-- Generator: Adobe Illustrator 15.0.0, SVG Export Plug-In . SVG Version: 6.00 Build 0)  -->
<!DOCTYPE svg PUBLIC "-//W3C//DTD SVG 1.1//EN" "http://www.w3.org/Graphics/SVG/1.1/DTD/svg11.dtd">
<svg version="1.1" xmlns="http://www.w3.org/2000/svg" xmlns:xlink="http://www.w3.org/1999/xlink" x="0px" y="0px"
	 width="283.46px" height="283.46px" viewBox="0 0 283.46 283.46" enable-background="new 0 0 283.46 283.46" xml:space="preserve">
<g id="Calque_1">
</g>
<g id="M">
</g>
<g id="R">
</g>
<g id="E">
</g>
<g id="H">
</g>
<g id="C">
</g>
<g id="T">
	<path fill="#1D1D1B" d="M155.167,38.158L8.715,41.787L0,93.351l46.487-1.695L20.937,266.656l15.49,2.059h16.02
		c1.508-4.342,1.154-11.359,1.804-12.689c3.211-0.779,7.703,1.239,11.041,1.308c-0.059,2.577-1.241,7.276-1.44,11.382h2.458
		c0.565-3.912,1.056-7.301,1.636-11.297c4.534,0.861,5.534,1.332,11.421,1.846c-0.491,3.39-0.916,6.32-1.369,9.451h1.35
		l15.095-98.549c0.052-0.663,0.131-1.215,0.25-1.633l7.617-49.725c0.621-4.281,1.238-8.563,1.859-12.845
		c0.035,0.005,0.07,0.011,0.105,0.016l0.394-2.571c-0.042-0.006-0.084-0.013-0.126-0.019c0.622-4.289,1.243-8.579,1.864-12.868
		c0.077,0.011,0.153,0.022,0.231,0.033l0.127-0.835l17.086-0.731L123,88.865l25.179-0.918L155.167,38.158z M75.899,90.583
		c-0.059,1.88-0.514,4.233-1.319,7.153c-4.058,1.041-6.717-0.735-12.664-0.363c-0.121-1.801,0.192-3.869,0.825-6.311L75.899,90.583z
		 M90.329,90.057c-0.018,2.418-0.771,6.41-1.943,10.992c-3.943-0.838-9.128-0.799-11.211-2.076c0.377-2.609,0.732-5.611,1.096-8.477
		L90.329,90.057z M77.201,178.264c-3.813-0.553-7.632-1.105-11.447-1.658c0.945-4.209,1.244-11.72,1.864-12.869
		c2.086,0.111,9.155,1.711,11.583,1.498C79.309,167.726,77.025,173.814,77.201,178.264z M59.034,115.619
		c2.347-0.874,8.767,1.667,12.751,1.42c-1.465,6.07-1.359,5.348-1.681,11.584c-2.42,1.848-8.224-0.42-12.243-0.734
		C57.253,124.857,59.302,116.795,59.034,115.619z M61.301,99.754c6.034,1.715,9.472,0.286,12.719,1.843
		c-0.559,3.861-1.195,8.773-1.754,12.635c-2.24,0.602-8.465-1.286-12.483-1.601C59.109,109.732,61.246,104.771,61.301,99.754z
		 M69.733,131.195c-1.125,4.034-0.234,7.766-1.948,13.873c-2.473,0.596-7.531-1.062-11.552-1.375
		c-0.671-2.9,1.373-8.398,1.301-13.071C60.83,130.505,63.609,130.783,69.733,131.195z M67.311,147.925
		c-0.979,4.319-0.746,10.472-2.087,13.042c-4.161-0.854-7.305-2.027-11.95-2.24c0.112-3.764,0.96-8.189,2.371-13.082
		C60.574,146.061,62.959,147.168,67.311,147.925z M65.074,163.367c-1.187,2.138-0.051,9.935-1.985,12.857
		c-4.179-0.66-7.026-2.49-12.271-2.347c0.621-4.289,1.004-8.681,1.626-12.97C56.695,162.385,60.383,162.098,65.074,163.367z
		 M62.662,179c-0.105,1.92-0.131,6.457-1.708,12.164c-4.056,1.041-6.4-1.708-11.949-1.814c0.174-3.185,1.174-7.256,1.6-12.377
		C55.087,177.506,60.967,177.031,62.662,179z M60.652,193.886c-0.558,3.86-1.058,8.781-1.618,12.643
		c-2.732-0.286-8.358-1.179-12.377-1.493c-0.673-2.9,1.492-7.683,1.947-12.895C53.211,192.863,57.411,192.672,60.652,193.886z
		 M58.416,209.328c-0.941,5.722-0.556,6.804-1.942,12.992c-2.72-1.044-8.252-1.713-12.271-2.027
		c-0.607-2.776,1.614-10.727,1.495-12.59C48.395,206.889,54.434,209.575,58.416,209.328z M58.725,225.141
		c4.699-1.526,5.639,0.779,11.634,0.37c-0.621,4.29-1.241,8.58-1.864,12.868c-2.42,1.85-7.615-0.057-11.633-0.371
		C57.481,233.719,58.104,229.43,58.725,225.141z M59.248,222.106c0.621-4.29,1.153-8.55,1.775-12.841
		c3.173,1.836,7.489,1.074,11.451,1.637c-0.684,4.718-1.246,8.604-1.93,13.321C64.67,223.047,62.236,222.213,59.248,222.106z
		 M61.334,207.123c0.62-4.289,1.242-8.578,1.863-12.869c3.816,0.554,7.633,1.106,11.449,1.658c-0.621,4.29-1.245,8.58-1.864,12.869
		C68.965,208.229,65.149,207.675,61.334,207.123z M63.758,190.394c0.559-3.86,1.117-7.722,1.676-11.581
		c5.661-0.673,10.293,0.824,11.633,2.107c-0.002,2.552-0.574,6.658-2.047,12.419C71.076,192.5,65.554,192.854,63.758,190.394z
		 M67.99,161.162c0.684-4.719,1.367-9.437,2.051-14.155c3.322,1.942,7.186,1.338,11.081,2.116c0.587,2.967-1.411,8.908-1.684,13.697
		C75.622,162.269,71.807,161.715,67.99,161.162z M70.229,145.721c0.619-4.291,1.418-9.488,2.037-13.777
		c4.143-0.148,5.464,1.688,11.461,1.279c-0.622,4.289-1.243,8.579-1.863,12.868C79.441,147.941,74.246,146.033,70.229,145.721z
		 M72.649,128.991c0.623-4.29,1.134-7.817,1.755-12.106c3.034,1.783,7.506,0.954,11.468,1.516c-0.684,4.719-1.276,8.816-1.96,13.535
		C77.942,130.739,75.629,130.193,72.649,128.991z M74.701,114.834c0.62-4.289,1.243-8.578,1.863-12.868
		c3.816,0.552,7.633,1.106,11.449,1.658c-0.621,4.29-1.243,8.579-1.865,12.868C82.332,115.939,78.517,115.387,74.701,114.834z
		 M60.565,91.143c-0.055,1.63-0.303,3.189-1.435,5.67c-3.816-0.553-7.633-1.105-11.447-1.658c0.171-1.187,0.344-2.374,0.516-3.562
		L60.565,91.143z M47.311,97.729c3.816,0.553,7.631,1.105,11.447,1.658c-0.62,4.289-1.242,8.578-1.863,12.867
		c-3.816-0.553-7.631-1.104-11.447-1.657C46.067,106.309,46.688,102.019,47.311,97.729z M45.074,113.172
		c4.24,0.613,8.047,1.647,12.286,2.261c-1.369,2.153-1.189,7.71-2.167,12.029c-5.244,0.146-7.619-2.049-11.797-2.708
		C43.956,120.893,44.516,117.032,45.074,113.172z M43.023,127.327c4.41,2.534,9.535,1.431,12.09,2.908
		c-0.575,2.981-1.164,10.287-1.628,12.592c-2.451,0.644-8.144-1.069-12.514-1.344C41.655,136.764,42.339,132.046,43.023,127.327z
		 M40.786,142.77c3.737,1.765,6.366,0.262,12.167,1.871c-1.095,7.335-0.866,7.707-2.77,13.942
		c-4.179-0.659-5.964-2.349-11.209-2.204C39.596,152.09,40.166,147.059,40.786,142.77z M39.03,159.115
		c0.667-0.385,6.952,1.112,10.97,1.425c0.1,4.409-1.215,7.18-1.316,13.766c-4.469-1.275-8.108-1.815-12.184-1.938
		C38.078,168.041,37.545,159.576,39.03,159.115z M36.18,174.574c3.816,0.553,8.472,1.42,12.29,1.973
		c-1.036,6.491-0.427,7.361-2.028,12.804c-3.815-0.552-8.311-1.354-12.125-1.908C34.937,183.154,35.559,178.865,36.18,174.574z
		 M33.942,190.018c3.818,0.553,8.361,1.34,12.18,1.894c-0.621,4.29-1.193,8.516-1.813,12.804c-3.818-0.553-8.414-1.277-12.23-1.83
		C32.699,198.596,33.321,194.307,33.942,190.018z M31.706,205.459c4.24,0.613,7.736,1.12,11.976,1.734
		c-0.439,2.856-1.414,8.475-2.392,12.793c-4.695-0.471-7.239-1.664-11.418-2.322C30.432,213.803,31.146,209.32,31.706,205.459z
		 M29.655,219.615c4.352,1.468,9.196,1.783,11.411,2.597c-0.532,4.168-0.597,8.538-1.345,11.845
		c-2.227-0.193-7.243-0.606-12.025-0.909C28.379,228.43,28.972,224.334,29.655,219.615z M34.676,266.311
		c-4.468-1.273-6.419-1.397-11.593-2.062c1.581-4.326,1.616-11.998,2.34-13.545c2.348,0.213,7.188,1.143,11.207,1.456
		C36.697,255.553,35.733,260.658,34.676,266.311z M25.554,247.926c0.622-4.289,1.382-8.512,2.003-12.801
		c3.946,1.088,6.131,0.107,11.931,1.719c-1.095,7.334-0.556,7.082-2.46,13.318C32.848,249.502,30.304,248.377,25.554,247.926z
		 M49.751,267.882c-4.18-0.661-7.18-1.714-12.424-1.571c0.622-4.289,1.123-8.806,1.747-13.095c4.929,1.753,8.35,1.271,12.63,2.44
		C50.502,257.916,51.465,264.328,49.751,267.882z M51.992,252.943c-3.51-1.129-7.711-1.184-12.406-2.25
		c0.692-3.069,1.23-8.963,2.377-13.115c5.385-0.252,7.145,1.576,12.164,1.601C53.148,243.497,53.395,250.818,51.992,252.943z
		 M42.283,235.23c-0.674-2.898,1.48-8.75,1.177-12.302c3.294-0.117,6.454,0.726,12.577,1.138c-0.417,2.842-0.301,6.906-1.377,12.871
		C52.204,237.152,46.302,235.546,42.283,235.23z M66.071,255.109c-3.816-0.553-7.633-1.105-11.449-1.658
		c0.686-4.719,1.368-9.438,2.052-14.156c3.855,1.377,7.426,1.24,11.324,2.018C68.569,243.338,66.345,250.32,66.071,255.109z
		 M79.682,257.08c-5.603-1.256-7.194-0.454-11.364-2.002c0.978-4.319,1.021-11.159,2.349-13.445
		c4.416,1.514,7.912,1.388,10.879,2.579C80.924,248.502,80.304,252.791,79.682,257.08z M81.655,241.525
		c-4.464-1.375-8.22-1.364-11.205-2.346c0.623-4.289,1.449-9.066,2.07-13.355c3.908,0.551,6.517,1.513,11.163,1.725
		C84.064,230.42,81.763,239.179,81.655,241.525z M84.003,225.947c-3.416-0.532-7.356-1.863-10.885-1.6
		c-0.59-2.9,1.165-8.26,1.453-12.68c4.133-0.219,5.547,1.467,11.447,1.658C85.041,217.646,85.08,224.354,84.003,225.947z
		 M86.391,210.752c-3.814-0.553-7.63-1.105-11.447-1.658c-0.281-3.605,1.804-10.248,1.909-12.062c2.16-1.1,9.392,1.494,10.862,0.991
		C88.271,202.047,86.293,205.861,86.391,210.752z M88.629,195.311c-3.816-0.553-7.631-1.105-11.448-1.658
		c0.623-4.291,1.242-8.579,1.864-12.869c3.816,0.553,7.631,1.104,11.447,1.658C89.87,186.731,89.25,191.021,88.629,195.311z
		 M90.811,180.234c-4.553-1.426-5.178-0.405-11.396-1.982c0.622-4.289,1.296-8.973,1.917-13.262
		c5.143,1.42,5.561,1.154,11.445,1.666C92.095,171.375,91.496,175.516,90.811,180.234z M93.049,164.792
		c-5.313-1.233-7.431-0.698-11.286-2.011c0.978-4.318,1.044-11.023,2.454-13.552c4.708,2.437,7.398,0.226,10.695,2.692
		C94.291,156.213,93.67,160.502,93.049,164.792z M94.994,149.336c-4.5-2.152-8.339-1.364-10.971-2.932
		c0.622-4.289,1.168-8.068,1.791-12.357c3.843,1.375,6.348,1.206,10.993,1.418C97.365,138.25,96.314,146.68,94.994,149.336z
		 M97.021,133.758c-2.987-0.992-7.604-1.365-10.342-1.836c-0.116-2.539,0.971-8.123,1.26-12.543
		c4.388-0.666,5.547,1.467,11.447,1.659C98.408,125.357,98.348,131.512,97.021,133.758z M99.759,118.464
		c-3.816-0.554-7.63-1.106-11.448-1.658c-0.281-3.606,2.095-10.15,1.882-12.392c1.707-0.746,10.137,1.602,11.31,1.174
		C102.036,108.363,99.66,113.572,99.759,118.464z M103.859,90.152c-0.622,4.291-1.242,8.579-1.863,12.869
		c-3.816-0.554-7.631-1.105-11.447-1.658c0.548-3.791,1.098-7.583,1.647-11.375l8.415-0.307
		C101.694,89.839,102.776,89.995,103.859,90.152z"/>
	<rect y="268.707" fill="none" width="15.755" height="14.174"/>
</g>
</svg>
