<?xml version="1.0" encoding="utf-8"?>
<!-- Generator: Adobe Illustrator 15.0.0, SVG Export Plug-In . SVG Version: 6.00 Build 0)  -->
<!DOCTYPE svg PUBLIC "-//W3C//DTD SVG 1.1//EN" "http://www.w3.org/Graphics/SVG/1.1/DTD/svg11.dtd">
<svg version="1.1" xmlns="http://www.w3.org/2000/svg" xmlns:xlink="http://www.w3.org/1999/xlink" x="0px" y="0px"
	 width="283.46px" height="283.46px" viewBox="0 0 283.46 283.46" enable-background="new 0 0 283.46 283.46" xml:space="preserve">
<g id="Calque_1">
</g>
<g id="M">
</g>
<g id="R">
</g>
<g id="E">
</g>
<g id="H">
</g>
<g id="C">
</g>
<g id="T">
</g>
<g id="I">
</g>
<g id="U">
	<g>
		<path fill="#1D1D1B" d="M78.053,40.307l-0.511,0.007c0.165,0.029,0.333,0.06,0.499,0.089
			C78.045,40.37,78.049,40.339,78.053,40.307z"/>
		<path fill="#1D1D1B" d="M165.982,55.135c0.779-5.571,1.557-11.144,2.336-16.715c-8.848,0.187-17.695,0.372-26.545,0.559
			c-9.044,0.19-18.089,0.381-27.134,0.571c-0.188,0.004-0.899,6.728-0.954,7.135c-0.756,5.721-1.514,11.441-2.27,17.162
			c-1.443,10.899-2.886,21.799-4.328,32.698c-0.942,7.118-1.885,14.237-2.826,21.356c-1.111,8.404-2.225,16.809-3.336,25.212
			c-1.17,8.836-2.334,17.672-3.508,26.507c-0.604,4.538-1.201,9.077-1.803,13.617c-0.994,7.514-1.824,15.294-5.15,22.203
			c-1.246,2.593-2.91,5.117-5.293,6.794c-2.686,1.885-5.816,2.167-8.982,1.629c-0.25,1.886-0.498,3.771-0.748,5.656
			c-24.846-4.381-49.691-8.762-74.537-13.143c-0.066,0.518-0.289,0.692,0.303,0.797c0.391,0.069,0.783,0.139,1.176,0.208
			c0.785,0.139,1.568,0.277,2.354,0.416c1.568,0.277,3.137,0.555,4.705,0.832c3.139,0.555,6.275,1.109,9.414,1.665
			c6.406,1.133,12.812,2.268,19.219,3.401c6.275,1.111,12.553,2.223,18.828,3.334c3.139,0.556,6.277,1.112,9.414,1.667
			c1.568,0.278,3.139,0.556,4.707,0.834c0.784,0.139,1.568,0.277,2.354,0.416c0.348,0.062,2.07,0.186,1.934,0.562
			c-24.846-4.363-49.691-8.721-74.535-13.092c-0.038,0.312-0.076,0.623-0.113,0.935c-0.061,0.504,0.326,0.362,0.748,0.437
			c0.785,0.138,1.568,0.276,2.354,0.414c1.568,0.277,3.137,0.554,4.707,0.83c3.268,0.576,6.535,1.152,9.803,1.729
			c6.537,1.152,13.074,2.305,19.61,3.458c6.405,1.129,12.812,2.259,19.217,3.388c3.269,0.577,6.536,1.153,9.804,1.729
			c1.568,0.276,3.139,0.553,4.707,0.83c0.783,0.138,1.568,0.276,2.353,0.415c0.393,0.068,0.784,0.138,1.177,0.207
			c0.047,0.088-0.051,0.382-0.064,0.485c-24.839-4.362-49.678-8.72-74.516-13.09c-0.043,0.354-0.084,0.71-0.127,1.064
			c-0.058,0.501-0.254,0.614,0.318,0.715c0.783,0.139,1.566,0.277,2.35,0.415c1.568,0.277,3.137,0.555,4.703,0.832
			c3.268,0.577,6.533,1.155,9.8,1.732c6.403,1.133,12.806,2.267,19.208,3.4c6.402,1.133,12.807,2.268,19.209,3.4
			c3.266,0.579,6.533,1.157,9.801,1.736c1.566,0.277,3.136,0.555,4.703,0.832c0.785,0.139,1.568,0.278,2.353,0.417
			c0.349,0.062,2.071,0.185,1.932,0.562c-24.829-4.361-49.659-8.716-74.487-13.084c-0.035,0.317-0.071,0.636-0.106,0.953
			c0.392,0.069,0.784,0.139,1.175,0.208c0.784,0.138,1.568,0.276,2.352,0.415c1.697,0.301,3.396,0.601,5.094,0.9
			c3.266,0.578,6.53,1.155,9.796,1.732c6.531,1.156,13.062,2.312,19.594,3.469c6.532,1.156,13.063,2.312,19.595,3.47
			c3.266,0.578,6.531,1.156,9.797,1.734c1.568,0.277,3.135,0.556,4.703,0.833c0.784,0.139,1.568,0.277,2.352,0.416
			c0.079,0.15-0.093,0.698-0.115,0.863c-0.037,0.288-0.076,0.575-0.114,0.863c-24.804-4.356-49.608-8.707-74.411-13.07
			c-0.025,0.294-0.033,0.576-0.027,0.871c0.01,0.555,0.305,0.407,0.791,0.493c0.785,0.139,1.572,0.278,2.357,0.417
			c1.703,0.301,3.404,0.602,5.107,0.902c3.273,0.579,6.548,1.158,9.822,1.738c6.549,1.158,13.098,2.318,19.646,3.478
			c6.549,1.159,13.098,2.319,19.647,3.479c3.273,0.579,6.549,1.159,9.822,1.739c1.572,0.278,3.145,0.557,4.717,0.835
			c0.52,0.092,2.404,0.049,2.32,0.686c-0.377,2.846-0.752,5.69-1.129,8.536c-24.16-4.261-48.322-8.521-72.482-12.781
			c0.033,0.255,0.068,0.51,0.105,0.764c0.393,0.069,0.785,0.139,1.178,0.208c0.786,0.139,1.571,0.278,2.357,0.417
			c1.57,0.277,3.141,0.556,4.713,0.833c3.142,0.556,6.283,1.112,9.426,1.668c6.154,1.089,12.308,2.179,18.461,3.268
			c6.154,1.09,12.309,2.18,18.463,3.271c3.012,0.533,6.023,1.066,9.035,1.6c1.571,0.278,3.143,0.557,4.713,0.835
			c0.786,0.139,1.572,0.278,2.357,0.417c0.312,0.056,1.687,0.104,1.543,0.491c-24.068-4.227-48.136-8.448-72.202-12.682
			c0.085,0.578-0.028,1.255,0.597,1.365c0.785,0.139,1.57,0.276,2.355,0.415c1.57,0.277,3.139,0.554,4.709,0.831
			c3.141,0.553,6.281,1.107,9.42,1.66c6.281,1.107,12.561,2.215,18.842,3.322c6.279,1.107,12.56,2.215,18.84,3.322
			c3.141,0.554,6.279,1.107,9.42,1.661c1.57,0.276,3.141,0.554,4.711,0.83c0.785,0.139,1.57,0.277,2.354,0.415
			c0.671,0.118,0.805-0.007,0.718,0.644c-23.891-4.213-47.781-8.425-71.672-12.638c0.107,0.614,0.225,1.227,0.349,1.838
			c0.784,0.139,1.571,0.277,2.356,0.417c1.57,0.277,3.143,0.556,4.713,0.833c3.141,0.556,6.283,1.111,9.425,1.668
			c6.153,1.089,12.306,2.178,18.458,3.268c6.154,1.09,12.308,2.18,18.461,3.27c3.012,0.533,6.021,1.066,9.033,1.6
			c1.571,0.277,3.143,0.556,4.713,0.834c0.785,0.139,1.571,0.278,2.357,0.417c0.312,0.056,1.686,0.103,1.543,0.492
			c-23.664-4.156-47.329-8.307-70.992-12.469c0.072,0.337,0.139,0.675,0.215,1.011c0.393,0.069,0.785,0.139,1.178,0.208
			c0.784,0.139,1.568,0.277,2.354,0.416c1.57,0.278,3.139,0.556,4.709,0.833c3.27,0.578,6.54,1.157,9.811,1.736
			c6.409,1.134,12.818,2.269,19.229,3.404c6.41,1.135,12.82,2.271,19.23,3.405c3.271,0.579,6.541,1.158,9.812,1.737
			c0.389,0.069,4.322,0.718,4.312,0.79c-0.074,0.566-0.15,1.134-0.225,1.7c-23.312-4.094-46.626-8.183-69.938-12.281
			c0.092,0.354,0.197,0.703,0.295,1.055c0.393,0.069,0.786,0.139,1.18,0.208c0.785,0.139,1.57,0.276,2.355,0.415
			c1.701,0.301,3.402,0.601,5.105,0.9c3.271,0.577,6.545,1.154,9.816,1.731c6.545,1.153,13.09,2.308,19.635,3.462
			c6.545,1.153,13.089,2.308,19.633,3.462c3.273,0.577,6.545,1.153,9.818,1.73c0.482,0.086,2.01-0.013,1.928,0.608
			c-0.069,0.527-0.139,1.056-0.209,1.584c-0.318,2.41-0.637,4.82-0.957,7.23c-21.486-3.789-42.975-7.578-64.463-11.366
			c0.092,0.183,0.183,0.365,0.273,0.548c0.207,0.408,0.496,0.334,0.926,0.41c0.653,0.116,1.307,0.231,1.961,0.348
			c1.438,0.254,2.877,0.509,4.314,0.764c2.746,0.485,5.492,0.972,8.238,1.458c5.492,0.973,10.984,1.945,16.477,2.918
			c5.493,0.974,10.986,1.946,16.479,2.919c2.746,0.486,5.492,0.973,8.238,1.459c1.309,0.232,2.615,0.464,3.924,0.695
			c0.654,0.115,1.309,0.231,1.961,0.348c0.311,0.055,1.684,0.104,1.542,0.488c-21.243-3.73-42.489-7.457-63.731-11.189
			c0.25,0.469,0.502,0.936,0.764,1.396c0.655,0.115,1.309,0.23,1.963,0.346c1.439,0.254,2.879,0.508,4.318,0.762
			c2.746,0.484,5.494,0.969,8.242,1.453c5.494,0.969,10.989,1.938,16.484,2.906c5.494,0.969,10.988,1.938,16.484,2.907
			c2.747,0.484,5.494,0.969,8.242,1.453c1.439,0.254,2.877,0.508,4.316,0.762c0.654,0.115,1.309,0.23,1.963,0.346
			c0.67,0.118,0.805-0.007,0.717,0.644c-20.795-3.666-41.59-7.333-62.386-11c0.261,0.44,0.508,0.892,0.796,1.314
			c0.381,0.559,0.809,0.516,1.463,0.631c1.307,0.23,2.611,0.461,3.917,0.691c2.741,0.483,5.483,0.967,8.226,1.45
			c5.484,0.967,10.967,1.934,16.451,2.9c5.483,0.968,10.967,1.935,16.449,2.901c2.742,0.483,5.484,0.967,8.227,1.45
			c1.305,0.23,2.611,0.46,3.916,0.69c0.653,0.115,1.307,0.23,1.959,0.346c0.652,0.114,0.803-0.014,0.719,0.622
			c-20.209-3.549-40.418-7.095-60.625-10.645c0.328,0.499,0.533,1.077,1.141,1.185c0.655,0.116,1.311,0.232,1.965,0.348
			c1.441,0.256,2.883,0.511,4.324,0.766c2.751,0.486,5.502,0.974,8.254,1.461c5.633,0.997,11.266,1.994,16.899,2.991
			c5.501,0.974,11.005,1.948,16.507,2.922c2.75,0.487,5.502,0.974,8.254,1.461c0.654,0.116,1.31,0.231,1.965,0.348
			c0.344,0.062,1.209-0.025,1.152,0.413c-0.068,0.51-0.136,1.02-0.203,1.528c-19.312-3.392-38.625-6.784-57.937-10.177
			c0.228,0.295,0.454,0.591,0.687,0.883c0.307,0.386,0.547,0.344,1.018,0.428c0.785,0.138,1.569,0.276,2.354,0.415
			c1.7,0.3,3.4,0.599,5.1,0.898c3.27,0.576,6.539,1.153,9.808,1.729c6.538,1.152,13.076,2.306,19.614,3.458
			c1.613,0.284,19.239,3.264,19.223,3.396c-0.332,2.51-0.664,5.02-0.998,7.529c-0.055,0.422-0.111,0.844-0.166,1.266
			c-14.121-2.479-28.24-4.957-42.361-7.435c0.645,0.382,1.29,0.759,1.945,1.118c0.83,0.455,1.701,0.54,2.625,0.704
			c1.832,0.324,3.662,0.648,5.492,0.973c3.66,0.648,7.32,1.297,10.98,1.945s7.32,1.297,10.982,1.945
			c1.828,0.324,3.659,0.648,5.489,0.973c0.915,0.162,1.829,0.323,2.745,0.485c0.34,0.061,2.064,0.194,1.934,0.552
			c-12.906-2.266-25.811-4.531-38.717-6.795c1.533,0.77,3.101,1.471,4.693,2.107c1.948,0.346,3.896,0.69,5.845,1.036
			c3.896,0.69,7.793,1.381,11.688,2.07c3.768,0.668,7.533,1.335,11.299,2.002c1.729,0.306,3.379,0.592,5.138,0.592
			c1.687,0,3.374-0.135,5.059-0.135c22.784-1.081,45.442-10.849,59.505-29.298c3.395-4.454,6.141-9.438,7.839-14.784
			c1.485-4.679,2.206-9.674,2.885-14.528c0.581-4.16,1.163-8.319,1.744-12.479c1.159-8.304,2.321-16.614,3.482-24.918
			c1.247-8.914,2.489-17.828,3.737-26.741c1.176-8.388,2.354-16.776,3.518-25.165c1.258-9.054,2.531-18.105,3.795-27.158
			c1.121-8.023,2.246-16.046,3.365-24.068C164.111,68.504,165.047,61.819,165.982,55.135L165.982,55.135z"/>
		<path fill="#1D1D1B" d="M78.009,40.654c-0.612-0.107-1.226-0.215-1.837-0.322l-6.779,0.093c2.818,0.497,5.638,0.994,8.457,1.491
			C77.902,41.494,77.955,41.078,78.009,40.654z"/>
		<path fill="#1D1D1B" d="M77.785,42.422c-3.703-0.653-7.408-1.307-11.111-1.96l-8.146,0.111c6.355,1.121,12.711,2.241,19.066,3.362
			C77.658,43.432,77.723,42.927,77.785,42.422z"/>
		<path fill="#1D1D1B" d="M77.53,44.439c-7.239-1.276-14.478-2.553-21.717-3.829l-5.319,0.073
			c8.969,1.588,17.938,3.176,26.908,4.766C77.445,45.115,77.488,44.774,77.53,44.439z"/>
		<path fill="#1D1D1B" d="M77.18,47.217c-12.153-2.133-24.307-4.266-36.455-6.4l-5.284,0.072
			c13.871,2.445,27.741,4.892,41.612,7.338C77.096,47.89,77.139,47.555,77.18,47.217z"/>
		<path fill="#1D1D1B" d="M75.946,57.061c-17.95-3.148-35.896-6.301-53.833-9.46c-0.043,0.316-0.086,0.63-0.129,0.945
			c17.939,3.168,35.887,6.344,53.836,9.525C75.863,57.733,75.904,57.399,75.946,57.061z"/>
		<path fill="#1D1D1B" d="M75.789,58.323c-17.955-3.149-35.905-6.304-53.847-9.463c-0.054,0.399-0.108,0.8-0.163,1.197
			c17.945,3.169,35.897,6.346,53.854,9.528C75.685,59.166,75.736,58.744,75.789,58.323z"/>
		<path fill="#1D1D1B" d="M75.601,59.838c-17.961-3.15-35.917-6.305-53.864-9.465c-0.078,0.578-0.156,1.156-0.234,1.731
			c17.959,3.167,35.92,6.334,53.879,9.501C75.453,61.02,75.527,60.427,75.601,59.838z"/>
		<path fill="#1D1D1B" d="M75.318,62.109c-17.961-3.167-35.924-6.334-53.885-9.501c-0.045,0.327-0.088,0.651-0.133,0.978
			c17.959,3.171,35.924,6.351,53.893,9.535C75.234,62.783,75.276,62.449,75.318,62.109z"/>
		<path fill="#1D1D1B" d="M74.975,64.889c-17.98-3.154-35.955-6.312-53.922-9.476c-0.043,0.313-0.086,0.632-0.129,0.944
			c17.971,3.174,35.946,6.354,53.926,9.541C74.891,65.564,74.934,65.224,74.975,64.889z"/>
		<path fill="#1D1D1B" d="M73.764,74.735c-18.021-3.161-36.037-6.326-54.045-9.497c-0.042,0.314-0.086,0.634-0.128,0.947
			c18.011,3.181,36.028,6.369,54.05,9.562C73.681,75.414,73.723,75.071,73.764,74.735z"/>
		<path fill="#1D1D1B" d="M73.609,75.999c-18.026-3.162-36.048-6.328-54.061-9.5c-0.055,0.403-0.108,0.797-0.162,1.198
			c18.018,3.182,36.041,6.372,54.068,9.566C73.508,76.841,73.557,76.425,73.609,75.999z"/>
		<path fill="#1D1D1B" d="M73.426,77.514c-18.034-3.163-36.062-6.33-54.082-9.503c-0.078,0.58-0.158,1.157-0.235,1.733
			c18.034,3.18,36.067,6.359,54.101,9.539C73.281,78.696,73.354,78.105,73.426,77.514z"/>
		<path fill="#1D1D1B" d="M73.148,79.789c-18.037-3.18-36.072-6.36-54.109-9.541c-0.043,0.324-0.088,0.654-0.131,0.978
			c18.033,3.185,36.074,6.378,54.117,9.575C73.066,80.466,73.107,80.126,73.148,79.789z"/>
		<path fill="#1D1D1B" d="M72.812,82.566c-18.057-3.168-36.109-6.339-54.152-9.516c-0.043,0.316-0.086,0.631-0.129,0.946
			c18.049,3.187,36.102,6.383,54.158,9.583C72.73,83.243,72.771,82.904,72.812,82.566z"/>
		<path fill="#1D1D1B" d="M71.631,92.42c-18.107-3.176-36.209-6.355-54.301-9.541c-0.043,0.316-0.086,0.632-0.129,0.946
			c18.098,3.196,36.201,6.4,54.309,9.609C71.549,93.099,71.59,92.758,71.631,92.42z"/>
		<path fill="#1D1D1B" d="M71.48,93.684c-18.113-3.177-36.223-6.357-54.322-9.545c-0.054,0.398-0.109,0.803-0.162,1.198
			c18.105,3.197,36.217,6.403,54.333,9.614C71.379,94.529,71.43,94.108,71.48,93.684z"/>
		<path fill="#1D1D1B" d="M71.3,95.199c-18.12-3.178-36.237-6.36-54.346-9.549c-0.077,0.572-0.153,1.135-0.23,1.703
			c18.116,3.199,36.24,6.406,54.366,9.619C71.16,96.384,71.229,95.794,71.3,95.199z"/>
		<path fill="#1D1D1B" d="M71.061,97.222c-18.133-3.181-36.26-6.365-54.379-9.555c-0.055,0.399-0.109,0.801-0.162,1.198
			c18.125,3.201,36.256,6.41,54.391,9.625C70.96,98.071,71.012,97.643,71.061,97.222z"/>
		<path fill="#1D1D1B" d="M70.703,100.254c-18.148-3.184-36.295-6.371-54.432-9.563c-0.043,0.317-0.084,0.63-0.127,0.946
			c18.142,3.204,36.289,6.416,54.439,9.633C70.623,100.933,70.664,100.594,70.703,100.254z"/>
		<path fill="#1D1D1B" d="M69.557,110.114c-18.21-3.194-36.416-6.392-54.613-9.596c-0.043,0.316-0.086,0.632-0.127,0.946
			c18.203,3.215,36.412,6.438,54.623,9.666C69.479,110.795,69.518,110.452,69.557,110.114z"/>
		<path fill="#1D1D1B" d="M69.412,111.379c-18.219-3.196-36.434-6.395-54.639-9.6c-0.053,0.397-0.109,0.802-0.162,1.197
			c18.214,3.217,36.433,6.442,54.654,9.672C69.314,112.225,69.363,111.806,69.412,111.379z"/>
		<path fill="#1D1D1B" d="M69.238,112.896c-18.229-3.198-36.453-6.398-54.669-9.605c-0.077,0.572-0.153,1.135-0.229,1.703
			c18.227,3.219,36.459,6.446,54.695,9.679C69.102,114.086,69.17,113.488,69.238,112.896z"/>
		<path fill="#1D1D1B" d="M69.007,114.919c-18.242-3.2-36.479-6.403-54.71-9.612c-0.054,0.399-0.107,0.803-0.162,1.199
			c18.238,3.221,36.482,6.45,54.729,9.685C68.911,115.766,68.958,115.348,69.007,114.919z"/>
		<path fill="#1D1D1B" d="M68.663,117.955c-18.265-3.204-36.522-6.411-54.774-9.624c-0.043,0.317-0.084,0.632-0.127,0.946
			c18.256,3.226,36.52,6.458,54.787,9.695C68.586,118.637,68.625,118.293,68.663,117.955z"/>
		<path fill="#1D1D1B" d="M67.564,127.822c-18.339-3.217-36.674-6.437-55-9.662c-0.033,0.24-0.066,0.485-0.098,0.726
			c18.338,3.233,36.676,6.467,55.015,9.7C67.509,128.332,67.537,128.078,67.564,127.822z"/>
		<path fill="#1D1D1B" d="M67.426,129.093c-18.342-3.234-36.685-6.469-55.027-9.703c-0.056,0.414-0.111,0.818-0.166,1.229
			c18.348,3.24,36.699,6.489,55.055,9.743C67.332,129.942,67.379,129.517,67.426,129.093z"/>
		<path fill="#1D1D1B" d="M67.262,130.607c-18.363-3.221-36.721-6.444-55.072-9.675c-0.075,0.569-0.152,1.14-0.229,1.703
			c18.364,3.244,36.734,6.496,55.107,9.752C67.132,131.797,67.195,131.206,67.262,130.607z"/>
		<path fill="#1D1D1B" d="M67.041,132.633c-18.379-3.224-36.754-6.451-55.121-9.684c-0.045,0.327-0.088,0.65-0.133,0.977
			c18.383,3.241,36.764,6.482,55.145,9.724C66.968,133.314,67.006,132.971,67.041,132.633z"/>
		<path fill="#1D1D1B" d="M66.716,135.672c-18.407-3.229-36.81-6.461-55.204-9.699c-0.041,0.314-0.085,0.635-0.127,0.948
			c18.402,3.25,36.811,6.509,55.223,9.772C66.643,136.356,66.68,136.011,66.716,135.672z"/>
		<path fill="#1D1D1B" d="M65.686,145.552c-18.504-3.246-37.004-6.494-55.494-9.749c-0.032,0.242-0.064,0.484-0.098,0.726
			c18.504,3.263,37.01,6.525,55.514,9.788C65.633,146.064,65.66,145.806,65.686,145.552z"/>
		<path fill="#1D1D1B" d="M65.556,146.823c-18.509-3.264-37.019-6.528-55.528-9.792c-0.055,0.41-0.111,0.824-0.166,1.23
			c18.518,3.271,37.041,6.551,55.566,9.834C65.471,147.671,65.512,147.253,65.556,146.823z"/>
		<path fill="#1D1D1B" d="M65.404,148.34c-18.534-3.251-37.064-6.505-55.584-9.765c-0.077,0.571-0.153,1.138-0.229,1.703
			c18.539,3.275,37.085,6.559,55.634,9.847C65.283,149.537,65.344,148.938,65.404,148.34z"/>
		<path fill="#1D1D1B" d="M65.201,150.368c-18.556-3.255-37.107-6.513-55.652-9.776c-0.043,0.324-0.088,0.654-0.131,0.978
			c18.561,3.272,37.121,6.546,55.684,9.818C65.135,151.049,65.168,150.711,65.201,150.368z"/>
		<path fill="#1D1D1B" d="M64.902,153.417c-18.584-3.277-37.169-6.555-55.754-9.831c-0.044,0.324-0.088,0.654-0.131,0.978
			c18.591,3.284,37.188,6.576,55.787,9.873C64.836,154.098,64.869,153.76,64.902,153.417z"/>
		<path fill="#1D1D1B" d="M63.981,163.311c-18.723-3.284-37.442-6.571-56.151-9.864c-0.033,0.241-0.065,0.486-0.098,0.727
			c18.727,3.302,37.453,6.604,56.182,9.906C63.936,163.824,63.959,163.568,63.981,163.311z"/>
		<path fill="#1D1D1B" d="M63.869,164.588c-18.734-3.304-37.469-6.607-56.205-9.91c-0.055,0.414-0.108,0.818-0.164,1.229
			c18.748,3.312,37.502,6.633,56.258,9.957C63.793,165.443,63.832,165.016,63.869,164.588z"/>
		<path fill="#1D1D1B" d="M63.725,166.246c0.004-0.046,0.008-0.094,0.012-0.141c-18.764-3.291-37.524-6.586-56.277-9.886
			c-0.076,0.569-0.152,1.142-0.227,1.704c18.791,3.319,37.589,6.647,56.389,9.979L63.725,166.246z"/>
		<path fill="#1D1D1B" d="M63.605,168.146c-18.81-3.3-37.617-6.603-56.416-9.911c-0.043,0.329-0.086,0.653-0.129,0.979
			c18.828,3.319,37.654,6.639,56.481,9.959L63.605,168.146z"/>
		<path fill="#1D1D1B" d="M63.415,171.215c-18.874-3.327-37.749-6.655-56.624-9.983c-0.043,0.328-0.086,0.651-0.129,0.978
			c18.891,3.337,37.789,6.684,56.689,10.033L63.415,171.215z"/>
		<path fill="#1D1D1B" d="M62.746,181.152c-19.094-3.35-38.184-6.701-57.264-10.059c-0.031,0.23-0.062,0.467-0.094,0.695
			c19.104,3.375,38.212,6.759,57.323,10.146C62.723,181.678,62.734,181.414,62.746,181.152z"/>
		<path fill="#1D1D1B" d="M62.691,182.439c-19.125-3.371-38.248-6.744-57.373-10.115c-0.055,0.413-0.109,0.822-0.162,1.23
			c19.16,3.385,38.325,6.778,57.493,10.176C62.662,183.307,62.676,182.877,62.691,182.439z"/>
		<path fill="#1D1D1B" d="M62.641,183.972c-19.18-3.364-38.357-6.731-57.525-10.104c-0.076,0.575-0.151,1.141-0.227,1.704
			c19.234,3.398,38.475,6.806,57.717,10.216C62.613,185.195,62.625,184.59,62.641,183.972z"/>
		<path fill="#1D1D1B" d="M62.604,186.029c-19.257-3.379-38.51-6.759-57.755-10.146c-0.042,0.315-0.085,0.638-0.126,0.948
			c19.287,3.408,38.578,6.824,57.873,10.244C62.597,186.731,62.6,186.383,62.604,186.029z"/>
		<path fill="#1D1D1B" d="M62.629,189.138c-19.392-3.419-38.783-6.839-58.176-10.258c-0.043,0.329-0.086,0.653-0.129,0.979
			c19.438,3.434,38.881,6.877,58.326,10.323C62.639,189.842,62.637,189.484,62.629,189.138z"/>
		<path fill="#1D1D1B" d="M63.703,199.379c-20.186-3.541-40.369-7.084-60.543-10.634c-0.031,0.233-0.061,0.466-0.092,0.696
			c20.273,3.582,40.555,7.175,60.837,10.77C63.838,199.933,63.766,199.665,63.703,199.379z"/>
		<path fill="#1D1D1B" d="M63.965,200.457c-20.316-3.564-40.633-7.131-60.937-10.703c-0.064,0.492-0.127,0.975-0.188,1.453
			c20.52,3.625,41.047,7.262,61.576,10.9C64.254,201.576,64.105,201.022,63.965,200.457z"/>
		<path fill="#1D1D1B" d="M64.498,202.355c-20.572-3.608-41.141-7.219-61.699-10.836c-0.076,0.579-0.149,1.147-0.222,1.705
			c20.867,3.688,41.741,7.385,62.616,11.084C64.942,203.688,64.711,203.035,64.498,202.355z"/>
		<path fill="#1D1D1B" d="M65.301,204.561c-20.926-3.671-41.851-7.344-62.764-11.023c-0.041,0.32-0.082,0.636-0.123,0.949
			c21.12,3.731,42.248,7.475,63.377,11.219C65.615,205.343,65.461,204.945,65.301,204.561z"/>
		<path fill="#1D1D1B" d="M66.908,207.68c-21.581-3.786-43.161-7.572-64.729-11.367c-0.053,0.404-0.105,0.81-0.156,1.201
			c21.99,3.885,43.988,7.783,65.986,11.681C67.621,208.724,67.254,208.219,66.908,207.68z"/>
		<path fill="#1D1D1B" d="M63.082,274.362c-8.736-1.54-17.473-3.081-26.208-4.621C44.49,272.418,53.213,273.971,63.082,274.362z"/>
	</g>
	<rect y="268.707" fill="none" width="15.755" height="14.174"/>
</g>
</svg>
